<?xml version="1.0" encoding="UTF-8"?>
<svg width="519px" height="294px" viewBox="0 0 519 294" version="1.1" xmlns="http://www.w3.org/2000/svg" xmlns:xlink="http://www.w3.org/1999/xlink">
    <!-- Generator: Sketch 52.6 (67491) - http://www.bohemiancoding.com/sketch -->
    <title>020-bicycle</title>
    <desc>Created with Sketch.</desc>
    <defs>
        <path d="M403.67294,69.3287225 C388.763583,69.3287225 374.544736,72.3329554 361.582427,77.7612449 L330.58703,17.6166902 L373.908246,17.6166902 C378.607935,17.6166902 382.431569,21.4406864 382.431569,26.1408193 C382.431569,30.8409523 378.607935,34.6649485 373.908246,34.6649485 L364.665056,34.6649485 C359.799786,34.6649485 355.857544,38.6087382 355.857544,43.4732936 C355.857544,48.337849 359.799786,52.2816387 364.665056,52.2816387 L373.908246,52.2816387 C388.320859,52.2816387 400.046593,40.5547952 400.046593,26.1408193 C400.046593,11.7268434 388.322033,0 373.908246,0 L316.140362,0 C313.069476,0 310.219365,1.60076991 308.619921,4.22330786 C307.021651,6.84584581 306.904217,10.1131546 308.311071,12.8437416 L323.724217,42.7533582 L196.610679,42.7533582 L183.786942,17.6166902 L204.066532,17.6166902 C208.931802,17.6166902 212.874044,13.6729005 212.874044,8.80834509 C212.874044,3.94378971 208.931802,0 204.066532,0 L146.297473,0 C141.432203,0 137.489961,3.94378971 137.489961,8.80834509 C137.489961,13.6729005 141.432203,17.6166902 146.297473,17.6166902 L164.011141,17.6166902 L181.128247,51.1682639 L161.009541,82.3415844 C145.610487,74.0441233 128.009555,69.3287225 109.325886,69.3287225 C49.0437503,69.3287225 0,118.375937 0,178.663774 C0,238.951611 49.0437503,288 109.325886,288 C166.642826,288 213.795897,243.656442 218.295948,187.472119 L244.139538,187.472119 L234.100148,220.142858 L228.320072,220.142858 C223.454802,220.142858 219.512559,224.086648 219.512559,228.951203 C219.512559,233.815759 223.454802,237.759548 228.320072,237.759548 L260.027115,237.759548 C264.892385,237.759548 268.834627,233.815759 268.834627,228.951203 C268.834627,224.086648 264.892385,220.142858 260.027115,220.142858 L252.527812,220.142858 L264.117324,182.426699 L337.40287,69.2958381 L345.939111,85.8590502 C314.987165,105.188083 294.347054,139.558245 294.347054,178.663774 C294.347054,238.951611 343.390804,288 403.674114,288 C463.95625,288 513,238.951611 513,178.663774 C512.998826,118.375937 463.955075,69.3287225 403.67294,69.3287225 Z M190.384355,69.3111059 L241.676957,169.855429 L218.294774,169.855429 C215.755862,138.163003 199.643987,110.242898 175.792069,91.920366 L190.384355,69.3111059 Z M200.604592,169.855429 L125.494129,169.855429 L166.197753,106.788853 C185.232548,121.886356 198.16315,144.355857 200.604592,169.855429 Z M109.325886,270.38331 C58.7555003,270.38331 17.6150242,229.238943 17.6150242,178.663774 C17.6150242,128.08978 58.7555003,86.9442383 109.325886,86.9442383 C124.491247,86.9442383 138.795821,90.6672321 151.410527,97.2124198 L101.925227,173.886128 C100.176642,176.595575 100.04864,180.044923 101.591716,182.876512 C103.133618,185.708101 106.101162,187.470945 109.325886,187.470945 L200.604592,187.470945 C196.156212,233.928506 156.92403,270.38331 109.325886,270.38331 Z M256.966798,161.062352 L205.597865,60.3688739 L322.196407,60.3688739 L256.966798,161.062352 Z M403.67294,270.38331 C353.102554,270.38331 311.960904,229.237768 311.960904,178.663774 C311.960904,146.368858 328.751545,117.940217 354.046719,101.593103 L395.843649,182.699171 C397.407863,185.732765 400.486969,187.473294 403.679986,187.473294 C405.038691,187.473294 406.41736,187.157368 407.707955,186.492631 C412.03303,184.264707 413.731119,178.952688 411.502231,174.627203 L369.692384,93.497647 C380.209728,89.2860836 391.668888,86.9430638 403.67294,86.9430638 C454.243325,86.9430638 495.383802,128.088605 495.383802,178.6626 C495.383802,229.238943 454.243325,270.38331 403.67294,270.38331 Z" id="path-1"></path>
        <filter x="-0.6%" y="-1.0%" width="102.3%" height="104.2%" filterUnits="objectBoundingBox" id="filter-2">
            <feOffset dx="6" dy="6" in="SourceAlpha" result="shadowOffsetOuter1"></feOffset>
            <feColorMatrix values="0 0 0 0 0.917647059   0 0 0 0 0.937254902   0 0 0 0 0  0 0 0 1 0" type="matrix" in="shadowOffsetOuter1"></feColorMatrix>
        </filter>
    </defs>
    <g id="Page-1" stroke="none" stroke-width="1" fill="none" fill-rule="evenodd">
        <g id="020-bicycle" fill-rule="nonzero">
            <g id="Shape">
                <use fill="black" fill-opacity="1" filter="url(#filter-2)" xlink:href="#path-1"></use>
                <use fill="#000000" xlink:href="#path-1"></use>
            </g>
        </g>
    </g>
</svg>