<?xml version="1.0" encoding="UTF-8"?>
<svg width="486px" height="486px" viewBox="0 0 486 486" version="1.1" xmlns="http://www.w3.org/2000/svg" xmlns:xlink="http://www.w3.org/1999/xlink">
    <!-- Generator: Sketch 52.6 (67491) - http://www.bohemiancoding.com/sketch -->
    <title>018-conference</title>
    <desc>Created with Sketch.</desc>
    <defs>
        <rect id="path-1" x="232" y="224" width="16" height="16"></rect>
        <filter x="-18.8%" y="-18.8%" width="175.0%" height="175.0%" filterUnits="objectBoundingBox" id="filter-2">
            <feOffset dx="6" dy="6" in="SourceAlpha" result="shadowOffsetOuter1"></feOffset>
            <feColorMatrix values="0 0 0 0 0.917647059   0 0 0 0 0.937254902   0 0 0 0 0  0 0 0 1 0" type="matrix" in="shadowOffsetOuter1"></feColorMatrix>
        </filter>
        <rect id="path-3" x="216" y="256" width="48" height="16"></rect>
        <filter x="-6.2%" y="-18.8%" width="125.0%" height="175.0%" filterUnits="objectBoundingBox" id="filter-4">
            <feOffset dx="6" dy="6" in="SourceAlpha" result="shadowOffsetOuter1"></feOffset>
            <feColorMatrix values="0 0 0 0 0.917647059   0 0 0 0 0.937254902   0 0 0 0 0  0 0 0 1 0" type="matrix" in="shadowOffsetOuter1"></feColorMatrix>
        </filter>
        <path d="M408.418,399.983 C405.393,399.969 402.374,400.243 399.4,400.8 C395.482,374.622 371.084,356.576 344.905,360.495 C324.072,363.613 307.718,379.968 304.6,400.8 C298.918,399.712 293.082,399.712 287.4,400.8 C283.482,374.622 259.084,356.576 232.905,360.495 C212.072,363.613 195.718,379.968 192.6,400.8 C186.918,399.712 181.082,399.712 175.4,400.8 C171.482,374.622 147.084,356.576 120.905,360.495 C100.072,363.613 83.718,379.968 80.6,400.8 C54.652,395.94 29.677,413.034 24.817,438.982 C24.26,441.955 23.987,444.975 24,448 L24,472 C24,476.418 27.582,480 32,480 L112,480 C116.418,480 120,476.418 120,472 L120,448 C119.984,445.318 119.743,442.642 119.28,440 L136.72,440 C136.257,442.642 136.016,445.318 136,448 L136,472 C136,476.418 139.582,480 144,480 L224,480 C228.418,480 232,476.418 232,472 L232,448 C231.984,445.318 231.743,442.642 231.28,440 L248.72,440 C248.257,442.642 248.016,445.318 248,448 L248,472 C248,476.418 251.582,480 256,480 L336,480 C340.418,480 344,476.418 344,472 L344,448 C343.984,445.318 343.743,442.642 343.28,440 L360.72,440 C360.257,442.642 360.016,445.318 360,448 L360,472 C360,476.418 363.582,480 368,480 L448,480 C452.418,480 456,476.418 456,472 L456,448 C456.12,421.601 434.817,400.103 408.418,399.983 Z M104,464 L40,464 L40,448 C40,430.327 54.327,416 72,416 C89.673,416 104,430.327 104,448 L104,464 Z M142.496,424 L113.504,424 C109.319,416.792 103.338,410.792 96.144,406.584 C96.827,388.99 111.643,375.282 129.237,375.965 C145.873,376.611 159.211,389.949 159.856,406.584 C152.662,410.792 146.681,416.792 142.496,424 Z M216,464 L152,464 L152,448 C152,430.327 166.327,416 184,416 C201.673,416 216,430.327 216,448 L216,464 Z M254.496,424 L225.504,424 C221.319,416.792 215.338,410.792 208.144,406.584 C208.827,388.99 223.643,375.282 241.237,375.965 C257.873,376.611 271.21,389.949 271.856,406.584 C264.662,410.792 258.681,416.792 254.496,424 Z M328,464 L264,464 L264,448 C264,430.327 278.327,416 296,416 C313.673,416 328,430.327 328,448 L328,464 Z M366.496,424 L337.504,424 C333.319,416.792 327.338,410.792 320.144,406.584 C320.827,388.99 335.643,375.282 353.237,375.965 C369.873,376.611 383.211,389.949 383.856,406.584 C376.662,410.792 370.681,416.792 366.496,424 Z M440,464 L376,464 L376,448 C376,430.327 390.327,416 408,416 C425.673,416 440,430.327 440,448 L440,464 Z" id="path-5"></path>
        <filter x="-0.7%" y="-2.5%" width="102.8%" height="110.0%" filterUnits="objectBoundingBox" id="filter-6">
            <feOffset dx="6" dy="6" in="SourceAlpha" result="shadowOffsetOuter1"></feOffset>
            <feColorMatrix values="0 0 0 0 0.917647059   0 0 0 0 0.937254902   0 0 0 0 0  0 0 0 1 0" type="matrix" in="shadowOffsetOuter1"></feColorMatrix>
        </filter>
        <path d="M472,0 L8,0 C3.582,0 0,3.582 0,8 L0,40 C0,44.418 3.582,48 8,48 L24,48 L24,264 C24,268.418 27.582,272 32,272 L178.984,272 L182.672,296 L176,296 C171.582,296 168,299.582 168,304 L168,336 C168,340.418 171.582,344 176,344 L304,344 C308.418,344 312,340.418 312,336 L312,304 C312,299.582 308.418,296 304,296 L297.328,296 L301.016,272 L448,272 C452.418,272 456,268.418 456,264 L456,48 L472,48 C476.418,48 480,44.418 480,40 L480,8 C480,3.582 476.418,0 472,0 Z M296,328 L184,328 L184,312 L296,312 L296,328 Z M185.328,208 L294.672,208 L281.136,296 L198.864,296 L185.328,208 Z M158.248,192 L154.248,176 L325.752,176 L321.752,192 L158.248,192 Z M440,256 L303.48,256 L310.864,208 L328,208 C331.672,207.999 334.871,205.499 335.76,201.936 L343.76,169.936 C344.829,165.649 342.221,161.307 337.934,160.238 C337.301,160.08 336.652,160 336,160 L320,160 L320,136 C320,133.878 319.156,131.844 317.656,130.344 L301.6,114.28 C303.166,111.078 303.986,107.564 304,104 C304,90.745 293.255,80 280,80 C266.745,80 256,90.745 256,104 C256,117.255 266.745,128 280,128 C283.564,127.986 287.078,127.166 290.28,125.6 L304,139.312 L304,160 L176,160 L176,139.312 L189.72,125.6 C192.922,127.166 196.436,127.986 200,128 C213.255,128 224,117.255 224,104 C224,90.745 213.255,80 200,80 C186.745,80 176,90.745 176,104 C176.014,107.564 176.834,111.078 178.4,114.28 L162.336,130.344 C160.839,131.845 159.998,133.88 160,136 L160,160 L144,160 C139.582,160.001 136.001,163.584 136.002,168.002 C136.002,168.654 136.082,169.303 136.24,169.936 L144.24,201.936 C145.129,205.499 148.328,207.999 152,208 L169.136,208 L176.52,256 L40,256 L40,48 L440,48 L440,256 Z M288,104 C288,108.418 284.418,112 280,112 C275.582,112 272,108.418 272,104 C272,99.582 275.582,96 280,96 C284.418,96 288,99.582 288,104 Z M192,104 C192,99.582 195.582,96 200,96 C204.418,96 208,99.582 208,104 C208,108.418 204.418,112 200,112 C195.582,112 192,108.418 192,104 Z M464,32 L16,32 L16,16 L464,16 L464,32 Z" id="path-7"></path>
        <filter x="-0.6%" y="-0.9%" width="102.5%" height="103.5%" filterUnits="objectBoundingBox" id="filter-8">
            <feOffset dx="6" dy="6" in="SourceAlpha" result="shadowOffsetOuter1"></feOffset>
            <feColorMatrix values="0 0 0 0 0.917647059   0 0 0 0 0.937254902   0 0 0 0 0  0 0 0 1 0" type="matrix" in="shadowOffsetOuter1"></feColorMatrix>
        </filter>
    </defs>
    <g id="Page-1" stroke="none" stroke-width="1" fill="none" fill-rule="evenodd">
        <g id="018-conference">
            <g id="Rectangle">
                <use fill="black" fill-opacity="1" filter="url(#filter-2)" xlink:href="#path-1"></use>
                <use fill="#000000" fill-rule="evenodd" xlink:href="#path-1"></use>
            </g>
            <g id="Rectangle">
                <use fill="black" fill-opacity="1" filter="url(#filter-4)" xlink:href="#path-3"></use>
                <use fill="#000000" fill-rule="evenodd" xlink:href="#path-3"></use>
            </g>
            <g id="Shape" fill-rule="nonzero">
                <use fill="black" fill-opacity="1" filter="url(#filter-6)" xlink:href="#path-5"></use>
                <use fill="#000000" xlink:href="#path-5"></use>
            </g>
            <g id="Shape" fill-rule="nonzero">
                <use fill="black" fill-opacity="1" filter="url(#filter-8)" xlink:href="#path-7"></use>
                <use fill="#000000" xlink:href="#path-7"></use>
            </g>
        </g>
    </g>
</svg>