<?xml version="1.0" encoding="UTF-8"?>
<svg width="390px" height="449px" viewBox="0 0 390 449" version="1.1" xmlns="http://www.w3.org/2000/svg" xmlns:xlink="http://www.w3.org/1999/xlink">
    <!-- Generator: Sketch 52.6 (67491) - http://www.bohemiancoding.com/sketch -->
    <title>006-dishwasher</title>
    <desc>Created with Sketch.</desc>
    <defs>
        <path d="M302.631806,251 L247.368194,251 C243.293366,251 240,254.36019 240,258.5 C240,262.63981 243.293366,266 247.368194,266 L302.631806,266 C306.706634,266 310,262.63981 310,258.5 C310,254.36019 306.706634,251 302.631806,251 Z" id="path-1"></path>
        <filter x="-4.3%" y="-20.0%" width="117.1%" height="180.0%" filterUnits="objectBoundingBox" id="filter-2">
            <feOffset dx="6" dy="6" in="SourceAlpha" result="shadowOffsetOuter1"></feOffset>
            <feColorMatrix values="0 0 0 0 0.917647059   0 0 0 0 0.937254902   0 0 0 0 0  0 0 0 1 0" type="matrix" in="shadowOffsetOuter1"></feColorMatrix>
        </filter>
        <path d="M302.588491,280 L254.411509,280 C250.312727,280 247,283.36019 247,287.5 C247,291.63981 250.312727,295 254.411509,295 L302.588491,295 C306.687273,295 310,291.63981 310,287.5 C310,283.36019 306.687273,280 302.588491,280 Z" id="path-3"></path>
        <filter x="-4.8%" y="-20.0%" width="119.0%" height="180.0%" filterUnits="objectBoundingBox" id="filter-4">
            <feOffset dx="6" dy="6" in="SourceAlpha" result="shadowOffsetOuter1"></feOffset>
            <feColorMatrix values="0 0 0 0 0.917647059   0 0 0 0 0.937254902   0 0 0 0 0  0 0 0 1 0" type="matrix" in="shadowOffsetOuter1"></feColorMatrix>
        </filter>
        <path d="M302.631806,340 L247.368194,340 C243.293366,340 240,343.36019 240,347.5 C240,351.63981 243.293366,355 247.368194,355 L302.631806,355 C306.706634,355 310,351.63981 310,347.5 C310,343.36019 306.706634,340 302.631806,340 Z" id="path-5"></path>
        <filter x="-4.3%" y="-20.0%" width="117.1%" height="180.0%" filterUnits="objectBoundingBox" id="filter-6">
            <feOffset dx="6" dy="6" in="SourceAlpha" result="shadowOffsetOuter1"></feOffset>
            <feColorMatrix values="0 0 0 0 0.917647059   0 0 0 0 0.937254902   0 0 0 0 0  0 0 0 1 0" type="matrix" in="shadowOffsetOuter1"></feColorMatrix>
        </filter>
        <path d="M155,266 C134.598706,266 118,282.597839 118,303 C118,323.401294 134.597839,340 155,340 C175.401294,340 192,323.402161 192,303 C192,282.597839 175.402161,266 155,266 Z M155,325.199827 C142.760611,325.199827 132.800173,315.239389 132.800173,303 C132.800173,290.760611 142.760611,280.800173 155,280.800173 C167.239389,280.800173 177.199827,290.760611 177.199827,303 C177.199827,315.239389 167.239389,325.199827 155,325.199827 Z" id="path-7"></path>
        <filter x="-4.1%" y="-4.1%" width="116.2%" height="116.2%" filterUnits="objectBoundingBox" id="filter-8">
            <feOffset dx="6" dy="6" in="SourceAlpha" result="shadowOffsetOuter1"></feOffset>
            <feColorMatrix values="0 0 0 0 0.917647059   0 0 0 0 0.937254902   0 0 0 0 0  0 0 0 1 0" type="matrix" in="shadowOffsetOuter1"></feColorMatrix>
        </filter>
        <path d="M347.077472,0 L36.9233931,0 C16.5643394,0 0,16.5605859 0,36.9169551 L0,81.2169551 C0,85.292209 3.30836787,88.6 7.38433247,88.6 L347.077472,88.6 C351.161225,88.6 354.461805,85.292209 354.461805,81.2169551 C354.461805,77.1417012 351.161225,73.8339102 347.077472,73.8339102 L14.7695303,73.8339102 L14.7695303,36.9169551 C14.7695303,24.7050371 24.7093455,14.7669551 36.9233931,14.7669551 L347.077472,14.7669551 C359.29152,14.7669551 369.231335,24.7050371 369.231335,36.9169551 L369.231335,376.55 C369.231335,388.761918 359.29152,398.7 347.077472,398.7 C342.993719,398.7 339.69314,402.007791 339.69314,406.083045 L339.69314,428.233045 L44.3077256,428.233045 L44.3077256,413.46609 L317.538412,413.46609 C321.622165,413.46609 324.922744,410.158299 324.922744,406.083045 C324.922744,402.007791 321.622165,398.7 317.538412,398.7 L36.9233931,398.7 C24.7093455,398.7 14.7695303,388.761918 14.7695303,376.55 L14.7695303,110.75 C14.7695303,106.674746 11.4611625,103.366955 7.38519786,103.366955 C3.30923326,103.366955 0.000865385265,106.674746 0.000865385265,110.75 L0.000865385265,376.55 C0.000865385265,394.38075 12.7099134,409.287873 29.5390607,412.721123 L29.5390607,435.616955 C29.5390607,439.692209 32.8474285,443 36.9233931,443 L347.077472,443 C351.161225,443 354.461805,439.692209 354.461805,435.616955 L354.461805,412.721123 C371.290952,409.29566 384,394.38075 384,376.55 L384,36.9169551 C384.000865,16.5605859 367.436526,0 347.077472,0 Z" id="path-9"></path>
        <filter x="-0.8%" y="-0.7%" width="103.1%" height="102.7%" filterUnits="objectBoundingBox" id="filter-10">
            <feOffset dx="6" dy="6" in="SourceAlpha" result="shadowOffsetOuter1"></feOffset>
            <feColorMatrix values="0 0 0 0 0.917647059   0 0 0 0 0.937254902   0 0 0 0 0  0 0 0 1 0" type="matrix" in="shadowOffsetOuter1"></feColorMatrix>
        </filter>
        <path d="M302.588491,310 L254.411509,310 C250.312727,310 247,313.36019 247,317.5 C247,321.63981 250.312727,325 254.411509,325 L302.588491,325 C306.687273,325 310,321.63981 310,317.5 C310,313.36019 306.687273,310 302.588491,310 Z" id="path-11"></path>
        <filter x="-4.8%" y="-20.0%" width="119.0%" height="180.0%" filterUnits="objectBoundingBox" id="filter-12">
            <feOffset dx="6" dy="6" in="SourceAlpha" result="shadowOffsetOuter1"></feOffset>
            <feColorMatrix values="0 0 0 0 0.917647059   0 0 0 0 0.937254902   0 0 0 0 0  0 0 0 1 0" type="matrix" in="shadowOffsetOuter1"></feColorMatrix>
        </filter>
        <path d="M251,44 C251,52.2721041 257.727017,59 266,59 C274.272104,59 281,52.2729829 281,44 C281,35.7278959 274.272983,29 266,29 C257.727017,29 251,35.7278959 251,44 Z" id="path-13"></path>
        <filter x="-10.0%" y="-10.0%" width="140.0%" height="140.0%" filterUnits="objectBoundingBox" id="filter-14">
            <feOffset dx="6" dy="6" in="SourceAlpha" result="shadowOffsetOuter1"></feOffset>
            <feColorMatrix values="0 0 0 0 0.917647059   0 0 0 0 0.937254902   0 0 0 0 0  0 0 0 1 0" type="matrix" in="shadowOffsetOuter1"></feColorMatrix>
        </filter>
        <path d="M310,44 C310,52.2721041 316.727017,59 325,59 C333.272104,59 340,52.2729829 340,44 C340,35.7278959 333.272983,29 325,29 C316.727896,29 310,35.7278959 310,44 Z" id="path-15"></path>
        <filter x="-10.0%" y="-10.0%" width="140.0%" height="140.0%" filterUnits="objectBoundingBox" id="filter-16">
            <feOffset dx="6" dy="6" in="SourceAlpha" result="shadowOffsetOuter1"></feOffset>
            <feColorMatrix values="0 0 0 0 0.917647059   0 0 0 0 0.937254902   0 0 0 0 0  0 0 0 1 0" type="matrix" in="shadowOffsetOuter1"></feColorMatrix>
        </filter>
        <path d="M51.3997398,37 C47.3152708,37 44,40.3601899 44,44.5 C44,48.6398101 47.3152708,52 51.3997398,52 L110.60026,52 C114.684729,52 118,48.6398101 118,44.5 C118,40.3601899 114.684729,37 110.60026,37 L51.3997398,37 Z" id="path-17"></path>
        <filter x="-4.1%" y="-20.0%" width="116.2%" height="180.0%" filterUnits="objectBoundingBox" id="filter-18">
            <feOffset dx="6" dy="6" in="SourceAlpha" result="shadowOffsetOuter1"></feOffset>
            <feColorMatrix values="0 0 0 0 0.917647059   0 0 0 0 0.937254902   0 0 0 0 0  0 0 0 1 0" type="matrix" in="shadowOffsetOuter1"></feColorMatrix>
        </filter>
        <path d="M225.359758,236 L302.640242,236 C306.710404,236 310,232.63981 310,228.5 C310,224.36019 306.710404,221 302.640242,221 L225.359758,221 C221.289596,221 218,224.36019 218,228.5 C218,232.63981 221.289596,236 225.359758,236 Z" id="path-19"></path>
        <filter x="-3.3%" y="-20.0%" width="113.0%" height="180.0%" filterUnits="objectBoundingBox" id="filter-20">
            <feOffset dx="6" dy="6" in="SourceAlpha" result="shadowOffsetOuter1"></feOffset>
            <feColorMatrix values="0 0 0 0 0.917647059   0 0 0 0 0.937254902   0 0 0 0 0  0 0 0 1 0" type="matrix" in="shadowOffsetOuter1"></feColorMatrix>
        </filter>
        <path d="M332.84087,383.999133 C345.057821,383.999133 355,374.045712 355,361.814946 L355,125.184188 C355,112.953421 345.057821,103 332.84087,103 L52.1591303,103 C39.9421785,103 30,112.953421 30,125.184188 L30,361.815812 C30,374.046579 39.9421785,384 52.1591303,384 L332.84087,384 L332.84087,383.999133 Z M44.7721764,361.814946 L44.7721764,125.184188 C44.7721764,121.109576 48.0882557,117.789747 52.1582647,117.789747 L332.84087,117.789747 C336.917803,117.789747 340.226958,121.109576 340.226958,125.184188 L340.226958,361.815812 C340.226958,365.890424 336.917803,369.210253 332.84087,369.210253 L52.1591303,369.210253 C48.0891213,369.210253 44.7721764,365.889557 44.7721764,361.814946 Z" id="path-21"></path>
        <filter x="-0.9%" y="-1.1%" width="103.7%" height="104.3%" filterUnits="objectBoundingBox" id="filter-22">
            <feOffset dx="6" dy="6" in="SourceAlpha" result="shadowOffsetOuter1"></feOffset>
            <feColorMatrix values="0 0 0 0 0.917647059   0 0 0 0 0.937254902   0 0 0 0 0  0 0 0 1 0" type="matrix" in="shadowOffsetOuter1"></feColorMatrix>
        </filter>
        <path d="M100.619451,352.509654 C103.86663,350.0567 104.522452,345.424402 102.070025,342.158415 C93.3441465,330.521389 88.7275081,316.734456 88.7275081,302.274758 C88.7275081,265.61293 118.462111,235.777465 155,235.777465 C191.537889,235.777465 221.272492,265.61293 221.272492,302.274758 C221.272492,316.734456 216.655853,330.521389 207.922209,342.158415 C205.477548,345.424402 206.125603,350.0567 209.380549,352.509654 C210.705999,353.514906 212.260123,353.994587 213.798715,353.994587 C216.037138,353.994587 218.246221,352.974615 219.689891,351.05416 C230.359935,336.823912 236,319.963212 236,302.274758 C236,257.462683 199.660584,221 155,221 C110.339416,221 74,257.462683 74,302.274758 C74,319.963212 79.6400652,336.823912 90.310109,351.05416 C92.7478667,354.304561 97.3645051,354.977327 100.619451,352.509654 Z" id="path-23"></path>
        <filter x="-1.9%" y="-2.3%" width="107.4%" height="109.0%" filterUnits="objectBoundingBox" id="filter-24">
            <feOffset dx="6" dy="6" in="SourceAlpha" result="shadowOffsetOuter1"></feOffset>
            <feColorMatrix values="0 0 0 0 0.917647059   0 0 0 0 0.937254902   0 0 0 0 0  0 0 0 1 0" type="matrix" in="shadowOffsetOuter1"></feColorMatrix>
        </filter>
    </defs>
    <g id="Page-1" stroke="none" stroke-width="1" fill="none" fill-rule="evenodd">
        <g id="006-dishwasher">
            <g id="Path">
                <use fill="black" fill-opacity="1" filter="url(#filter-2)" xlink:href="#path-1"></use>
                <use fill="#000000" fill-rule="evenodd" xlink:href="#path-1"></use>
            </g>
            <g id="Path">
                <use fill="black" fill-opacity="1" filter="url(#filter-4)" xlink:href="#path-3"></use>
                <use fill="#000000" fill-rule="evenodd" xlink:href="#path-3"></use>
            </g>
            <g id="Path">
                <use fill="black" fill-opacity="1" filter="url(#filter-6)" xlink:href="#path-5"></use>
                <use fill="#000000" fill-rule="evenodd" xlink:href="#path-5"></use>
            </g>
            <g id="Shape" fill-rule="nonzero">
                <use fill="black" fill-opacity="1" filter="url(#filter-8)" xlink:href="#path-7"></use>
                <use fill="#000000" xlink:href="#path-7"></use>
            </g>
            <g id="Path">
                <use fill="black" fill-opacity="1" filter="url(#filter-10)" xlink:href="#path-9"></use>
                <use fill="#000000" fill-rule="evenodd" xlink:href="#path-9"></use>
            </g>
            <g id="Path">
                <use fill="black" fill-opacity="1" filter="url(#filter-12)" xlink:href="#path-11"></use>
                <use fill="#000000" fill-rule="evenodd" xlink:href="#path-11"></use>
            </g>
            <g id="Path">
                <use fill="black" fill-opacity="1" filter="url(#filter-14)" xlink:href="#path-13"></use>
                <use fill="#000000" fill-rule="evenodd" xlink:href="#path-13"></use>
            </g>
            <g id="Path">
                <use fill="black" fill-opacity="1" filter="url(#filter-16)" xlink:href="#path-15"></use>
                <use fill="#000000" fill-rule="evenodd" xlink:href="#path-15"></use>
            </g>
            <g id="Path">
                <use fill="black" fill-opacity="1" filter="url(#filter-18)" xlink:href="#path-17"></use>
                <use fill="#000000" fill-rule="evenodd" xlink:href="#path-17"></use>
            </g>
            <g id="Path">
                <use fill="black" fill-opacity="1" filter="url(#filter-20)" xlink:href="#path-19"></use>
                <use fill="#000000" fill-rule="evenodd" xlink:href="#path-19"></use>
            </g>
            <g id="Shape" fill-rule="nonzero">
                <use fill="black" fill-opacity="1" filter="url(#filter-22)" xlink:href="#path-21"></use>
                <use fill="#000000" xlink:href="#path-21"></use>
            </g>
            <g id="Path">
                <use fill="black" fill-opacity="1" filter="url(#filter-24)" xlink:href="#path-23"></use>
                <use fill="#000000" fill-rule="evenodd" xlink:href="#path-23"></use>
            </g>
        </g>
    </g>
</svg>