<?xml version="1.0" encoding="UTF-8"?>
<svg width="388px" height="516px" viewBox="0 0 388 516" version="1.1" xmlns="http://www.w3.org/2000/svg" xmlns:xlink="http://www.w3.org/1999/xlink">
    <!-- Generator: Sketch 52.6 (67491) - http://www.bohemiancoding.com/sketch -->
    <title>007-elevator</title>
    <desc>Created with Sketch.</desc>
    <defs>
        <path d="M312.999,96 L24.999,96 C20.575,96 16.999,99.576 16.999,104 L16.999,504 C16.999,508.424 20.575,512 24.999,512 C29.423,512 32.999,508.424 32.999,504 L32.999,112 L304.999,112 L304.999,504 C304.999,508.424 308.575,512 312.999,512 C317.423,512 320.999,508.424 320.999,504 L320.999,104 C320.999,99.576 317.423,96 312.999,96 Z" id="path-1"></path>
        <filter x="-0.7%" y="-0.5%" width="102.6%" height="101.9%" filterUnits="objectBoundingBox" id="filter-2">
            <feOffset dx="4" dy="4" in="SourceAlpha" result="shadowOffsetOuter1"></feOffset>
            <feColorMatrix values="0 0 0 0 0.917647059   0 0 0 0 0.937254902   0 0 0 0 0  0 0 0 1 0" type="matrix" in="shadowOffsetOuter1"></feColorMatrix>
        </filter>
        <path d="M288.999,120 L48.999,120 C44.575,120 40.999,123.576 40.999,128 L40.999,504 C40.999,508.424 44.575,512 48.999,512 C53.423,512 56.999,508.424 56.999,504 L56.999,136 L280.999,136 L280.999,504 C280.999,508.424 284.575,512 288.999,512 C293.423,512 296.999,508.424 296.999,504 L296.999,128 C296.999,123.576 293.423,120 288.999,120 Z" id="path-3"></path>
        <filter x="-0.8%" y="-0.5%" width="103.1%" height="102.0%" filterUnits="objectBoundingBox" id="filter-4">
            <feOffset dx="4" dy="4" in="SourceAlpha" result="shadowOffsetOuter1"></feOffset>
            <feColorMatrix values="0 0 0 0 0.917647059   0 0 0 0 0.937254902   0 0 0 0 0  0 0 0 1 0" type="matrix" in="shadowOffsetOuter1"></feColorMatrix>
        </filter>
        <path d="M366.655,258.344 C363.527,255.216 358.471,255.216 355.343,258.344 L339.343,274.344 C336.215,277.472 336.215,282.528 339.343,285.656 C340.903,287.216 342.951,288 344.999,288 C347.047,288 349.095,287.216 350.655,285.656 L366.655,269.656 C369.783,266.528 369.783,261.472 366.655,258.344 Z" id="path-5"></path>
        <filter x="-6.2%" y="-6.2%" width="125.0%" height="125.0%" filterUnits="objectBoundingBox" id="filter-6">
            <feOffset dx="4" dy="4" in="SourceAlpha" result="shadowOffsetOuter1"></feOffset>
            <feColorMatrix values="0 0 0 0 0.917647059   0 0 0 0 0.937254902   0 0 0 0 0  0 0 0 1 0" type="matrix" in="shadowOffsetOuter1"></feColorMatrix>
        </filter>
        <path d="M382.655,274.344 L366.655,258.344 C363.527,255.216 358.471,255.216 355.343,258.344 C352.215,261.472 352.215,266.528 355.343,269.656 L371.343,285.656 C372.903,287.216 374.951,288 376.999,288 C379.047,288 381.095,287.216 382.655,285.656 C385.783,282.528 385.783,277.472 382.655,274.344 Z" id="path-7"></path>
        <filter x="-6.2%" y="-6.2%" width="125.0%" height="125.0%" filterUnits="objectBoundingBox" id="filter-8">
            <feOffset dx="4" dy="4" in="SourceAlpha" result="shadowOffsetOuter1"></feOffset>
            <feColorMatrix values="0 0 0 0 0.917647059   0 0 0 0 0.937254902   0 0 0 0 0  0 0 0 1 0" type="matrix" in="shadowOffsetOuter1"></feColorMatrix>
        </filter>
        <path d="M382.655,322.344 C379.527,319.216 374.471,319.216 371.343,322.344 L355.343,338.344 C352.215,341.472 352.215,346.528 355.343,349.656 C356.903,351.216 358.951,352 360.999,352 C363.047,352 365.095,351.216 366.655,349.656 L382.655,333.656 C385.783,330.528 385.783,325.472 382.655,322.344 Z" id="path-9"></path>
        <filter x="-6.2%" y="-6.2%" width="125.0%" height="125.0%" filterUnits="objectBoundingBox" id="filter-10">
            <feOffset dx="4" dy="4" in="SourceAlpha" result="shadowOffsetOuter1"></feOffset>
            <feColorMatrix values="0 0 0 0 0.917647059   0 0 0 0 0.937254902   0 0 0 0 0  0 0 0 1 0" type="matrix" in="shadowOffsetOuter1"></feColorMatrix>
        </filter>
        <path d="M366.655,338.344 L350.655,322.344 C347.527,319.216 342.471,319.216 339.343,322.344 C336.215,325.472 336.215,330.528 339.343,333.656 L355.343,349.656 C356.903,351.216 358.951,352 360.999,352 C363.047,352 365.095,351.216 366.655,349.656 C369.783,346.528 369.783,341.472 366.655,338.344 Z" id="path-11"></path>
        <filter x="-6.2%" y="-6.2%" width="125.0%" height="125.0%" filterUnits="objectBoundingBox" id="filter-12">
            <feOffset dx="4" dy="4" in="SourceAlpha" result="shadowOffsetOuter1"></feOffset>
            <feColorMatrix values="0 0 0 0 0.917647059   0 0 0 0 0.937254902   0 0 0 0 0  0 0 0 1 0" type="matrix" in="shadowOffsetOuter1"></feColorMatrix>
        </filter>
        <path d="M168.999,120 C164.575,120 160.999,123.576 160.999,128 L160.999,504 C160.999,508.424 164.575,512 168.999,512 C173.423,512 176.999,508.424 176.999,504 L176.999,128 C176.999,123.576 173.423,120 168.999,120 Z" id="path-13"></path>
        <filter x="-12.5%" y="-0.5%" width="150.0%" height="102.0%" filterUnits="objectBoundingBox" id="filter-14">
            <feOffset dx="4" dy="4" in="SourceAlpha" result="shadowOffsetOuter1"></feOffset>
            <feColorMatrix values="0 0 0 0 0.917647059   0 0 0 0 0.937254902   0 0 0 0 0  0 0 0 1 0" type="matrix" in="shadowOffsetOuter1"></feColorMatrix>
        </filter>
        <path d="M328.999,496 L8.999,496 C4.575,496 0.999,499.576 0.999,504 C0.999,508.424 4.575,512 8.999,512 L328.999,512 C333.423,512 336.999,508.424 336.999,504 C336.999,499.576 333.423,496 328.999,496 Z" id="path-15"></path>
        <filter x="-0.6%" y="-12.5%" width="102.4%" height="150.0%" filterUnits="objectBoundingBox" id="filter-16">
            <feOffset dx="4" dy="4" in="SourceAlpha" result="shadowOffsetOuter1"></feOffset>
            <feColorMatrix values="0 0 0 0 0.917647059   0 0 0 0 0.937254902   0 0 0 0 0  0 0 0 1 0" type="matrix" in="shadowOffsetOuter1"></feColorMatrix>
        </filter>
        <path d="M168.999,0 C129.295,0 96.999,32.296 96.999,72 C96.999,76.424 100.575,80 104.999,80 C109.423,80 112.999,76.424 112.999,72 C112.999,41.128 138.127,16 168.999,16 C199.871,16 224.999,41.128 224.999,72 C224.999,76.424 228.575,80 232.999,80 C237.423,80 240.999,76.424 240.999,72 C240.999,32.296 208.703,0 168.999,0 Z" id="path-17"></path>
        <filter x="-1.4%" y="-2.5%" width="105.6%" height="110.0%" filterUnits="objectBoundingBox" id="filter-18">
            <feOffset dx="4" dy="4" in="SourceAlpha" result="shadowOffsetOuter1"></feOffset>
            <feColorMatrix values="0 0 0 0 0.917647059   0 0 0 0 0.937254902   0 0 0 0 0  0 0 0 1 0" type="matrix" in="shadowOffsetOuter1"></feColorMatrix>
        </filter>
        <path d="M232.999,64 L104.999,64 C100.575,64 96.999,67.576 96.999,72 C96.999,76.424 100.575,80 104.999,80 L232.999,80 C237.423,80 240.999,76.424 240.999,72 C240.999,67.576 237.423,64 232.999,64 Z" id="path-19"></path>
        <filter x="-1.4%" y="-12.5%" width="105.6%" height="150.0%" filterUnits="objectBoundingBox" id="filter-20">
            <feOffset dx="4" dy="4" in="SourceAlpha" result="shadowOffsetOuter1"></feOffset>
            <feColorMatrix values="0 0 0 0 0.917647059   0 0 0 0 0.937254902   0 0 0 0 0  0 0 0 1 0" type="matrix" in="shadowOffsetOuter1"></feColorMatrix>
        </filter>
        <path d="M168.999,32 C164.575,32 160.999,35.576 160.999,40 L160.999,72 C160.999,76.424 164.575,80 168.999,80 C173.423,80 176.999,76.424 176.999,72 L176.999,40 C176.999,35.576 173.423,32 168.999,32 Z" id="path-21"></path>
        <filter x="-12.5%" y="-4.2%" width="150.0%" height="116.7%" filterUnits="objectBoundingBox" id="filter-22">
            <feOffset dx="4" dy="4" in="SourceAlpha" result="shadowOffsetOuter1"></feOffset>
            <feColorMatrix values="0 0 0 0 0.917647059   0 0 0 0 0.937254902   0 0 0 0 0  0 0 0 1 0" type="matrix" in="shadowOffsetOuter1"></feColorMatrix>
        </filter>
    </defs>
    <g id="Page-1" stroke="none" stroke-width="1" fill="none" fill-rule="evenodd">
        <g id="007-elevator" transform="translate(-1.000000, 0.000000)">
            <g id="Path">
                <use fill="black" fill-opacity="1" filter="url(#filter-2)" xlink:href="#path-1"></use>
                <use fill="#000000" fill-rule="evenodd" xlink:href="#path-1"></use>
            </g>
            <g id="Path">
                <use fill="black" fill-opacity="1" filter="url(#filter-4)" xlink:href="#path-3"></use>
                <use fill="#000000" fill-rule="evenodd" xlink:href="#path-3"></use>
            </g>
            <g id="Path">
                <use fill="black" fill-opacity="1" filter="url(#filter-6)" xlink:href="#path-5"></use>
                <use fill="#000000" fill-rule="evenodd" xlink:href="#path-5"></use>
            </g>
            <g id="Path">
                <use fill="black" fill-opacity="1" filter="url(#filter-8)" xlink:href="#path-7"></use>
                <use fill="#000000" fill-rule="evenodd" xlink:href="#path-7"></use>
            </g>
            <g id="Path">
                <use fill="black" fill-opacity="1" filter="url(#filter-10)" xlink:href="#path-9"></use>
                <use fill="#000000" fill-rule="evenodd" xlink:href="#path-9"></use>
            </g>
            <g id="Path">
                <use fill="black" fill-opacity="1" filter="url(#filter-12)" xlink:href="#path-11"></use>
                <use fill="#000000" fill-rule="evenodd" xlink:href="#path-11"></use>
            </g>
            <g id="Path">
                <use fill="black" fill-opacity="1" filter="url(#filter-14)" xlink:href="#path-13"></use>
                <use fill="#000000" fill-rule="evenodd" xlink:href="#path-13"></use>
            </g>
            <g id="Path">
                <use fill="black" fill-opacity="1" filter="url(#filter-16)" xlink:href="#path-15"></use>
                <use fill="#000000" fill-rule="evenodd" xlink:href="#path-15"></use>
            </g>
            <g id="Path">
                <use fill="black" fill-opacity="1" filter="url(#filter-18)" xlink:href="#path-17"></use>
                <use fill="#000000" fill-rule="evenodd" xlink:href="#path-17"></use>
            </g>
            <g id="Path">
                <use fill="black" fill-opacity="1" filter="url(#filter-20)" xlink:href="#path-19"></use>
                <use fill="#000000" fill-rule="evenodd" xlink:href="#path-19"></use>
            </g>
            <g id="Path">
                <use fill="black" fill-opacity="1" filter="url(#filter-22)" xlink:href="#path-21"></use>
                <use fill="#000000" fill-rule="evenodd" xlink:href="#path-21"></use>
            </g>
        </g>
    </g>
</svg>