<?xml version="1.0" encoding="UTF-8"?>
<svg width="38px" height="38px" viewBox="0 0 38 38" version="1.1" xmlns="http://www.w3.org/2000/svg" xmlns:xlink="http://www.w3.org/1999/xlink">
    <!-- Generator: Sketch 51.3 (57544) - http://www.bohemiancoding.com/sketch -->
    <title>Shape</title>
    <desc>Created with Sketch.</desc>
    <defs></defs>
    <g id="Tools" stroke="none" stroke-width="1" fill="none" fill-rule="evenodd">
        <g id="Footer" transform="translate(-443.000000, -243.000000)" fill="#6D5B97">
            <g id="Group-4" transform="translate(443.000000, 243.000000)">
                <g id="if_01_111032">
                    <path d="M0,34.8334858 C0,36.582998 1.4171763,38 3.16651418,38 L34.8334858,38 C36.582998,38 38,36.582998 38,34.8334858 L38,3.16651418 C38,1.41708916 36.582998,0 34.8334858,0 L3.16660131,0 C1.4171763,0 8.71357782e-05,1.4171763 8.71357782e-05,3.16651418 L8.71357782e-05,34.8334858 L0,34.8334858 Z M19.7917592,33.2499673 L19.7917592,20.5833878 L16.6250708,20.5833878 L16.6250708,15.833268 L19.7917592,15.833268 C19.7917592,7.6711725 20.1396924,7.12500545 30.0835403,7.12500545 L30.0835403,11.8750381 C24.8424104,11.8750381 25.3334205,12.1679886 25.3334205,15.8333551 L30.0835403,15.8333551 L30.0835403,20.5834749 L25.3334205,20.5834749 L25.3334205,33.2500545 L19.7917592,33.2500545 L19.7917592,33.2499673 Z" id="Shape"></path>
                </g>
            </g>
        </g>
    </g>
</svg>