<?xml version="1.0" encoding="UTF-8"?>
<svg width="414px" height="414px" viewBox="0 0 414 414" version="1.1" xmlns="http://www.w3.org/2000/svg" xmlns:xlink="http://www.w3.org/1999/xlink">
    <!-- Generator: Sketch 52.6 (67491) - http://www.bohemiancoding.com/sketch -->
    <title>021-gym</title>
    <desc>Created with Sketch.</desc>
    <defs>
        <path d="M212.656,233.344 C211.168,231.856 209.1112,231 207,231 C204.896,231 202.832,231.856 201.344,233.344 C199.8568,234.832 199,236.896 199,239 C199,241.104 199.856,243.168 201.344,244.656 C202.832,246.144 204.896,247 207,247 C209.104,247 211.168,246.144 212.656,244.656 C214.1432,243.168 215,241.104 215,239 C215,236.896 214.144,234.8312 212.656,233.344 Z" id="path-1"></path>
        <filter x="-18.8%" y="-18.8%" width="175.0%" height="175.0%" filterUnits="objectBoundingBox" id="filter-2">
            <feOffset dx="6" dy="6" in="SourceAlpha" result="shadowOffsetOuter1"></feOffset>
            <feColorMatrix values="0 0 0 0 0.917647059   0 0 0 0 0.937254902   0 0 0 0 0  0 0 0 1 0" type="matrix" in="shadowOffsetOuter1"></feColorMatrix>
        </filter>
        <path d="M157.659082,325.34027 C154.537858,322.237429 149.478358,322.237429 146.354736,325.34027 L143.408556,328.269098 L136.403587,321.305384 C142.646834,311.987325 146.294789,300.810738 146.294789,288.799047 C146.294789,256.376934 119.761588,230 87.1473947,230 C54.5332015,230 28,256.376934 28,288.799047 C28,321.221159 54.5332015,347.598093 87.1473947,347.598093 C101.917458,347.598093 115.429441,342.175867 125.805013,333.244769 L132.10421,339.506867 L129.157231,342.435696 C126.036007,345.538537 126.036007,350.569829 129.158031,353.67267 C130.719042,355.224488 132.764423,356 134.809804,356 C136.855185,356 138.900566,355.223694 140.461577,353.67267 L157.659082,336.577245 C160.780306,333.474403 160.780306,328.443906 157.659082,325.34027 Z M124.788317,309.759317 L108.909639,293.974157 C109.309284,292.312687 109.52749,290.581293 109.52749,288.799841 C109.52749,276.532294 99.4876193,266.551553 87.1473947,266.551553 C74.80717,266.551553 64.7672994,276.532294 64.7672994,288.799841 C64.7672994,301.067388 74.80717,311.048129 87.1473947,311.048129 C91.7744794,311.048129 96.077852,309.644898 99.6506743,307.244466 L114.476688,321.983162 C107.028113,328.05615 97.5093788,331.707253 87.1473947,331.707253 C63.3485612,331.707253 43.9857823,312.459306 43.9857823,288.799841 C43.9857823,265.140376 63.3485612,245.892429 87.1473947,245.892429 C110.946228,245.892429 130.309007,265.140376 130.309007,288.799841 C130.309007,296.408756 128.297196,303.556018 124.788317,309.759317 Z M93.5417076,288.799841 C93.5417076,292.304741 90.673059,295.156495 87.1473947,295.156495 C83.6217304,295.156495 80.7530817,292.304741 80.7530817,288.799841 C80.7530817,285.294941 83.6217304,282.443187 87.1473947,282.443187 C90.673059,282.443187 93.5417076,285.294941 93.5417076,288.799841 Z" id="path-3"></path>
        <filter x="-2.3%" y="-2.4%" width="109.1%" height="109.5%" filterUnits="objectBoundingBox" id="filter-4">
            <feOffset dx="6" dy="6" in="SourceAlpha" result="shadowOffsetOuter1"></feOffset>
            <feColorMatrix values="0 0 0 0 0.917647059   0 0 0 0 0.937254902   0 0 0 0 0  0 0 0 1 0" type="matrix" in="shadowOffsetOuter1"></feColorMatrix>
        </filter>
        <path d="M400.031266,0 C395.63093,0 392.062531,3.56760938 392.062531,7.96875 L392.062531,40.1162813 L364.968834,67.2100312 L364.968834,41.7801562 L365.936238,40.81275 C375.255673,31.4917031 375.255673,16.3255781 365.936238,7.00453125 C356.61521,-2.31651563 341.448317,-2.31651563 332.126492,7.00453125 L285.843285,53.2878281 C276.523054,62.608875 276.523054,77.775 285.843285,87.0968438 C289.921684,91.1744531 295.118095,93.4686562 300.454757,93.9778594 L310.780643,104.303766 L310.780643,114.350766 L282.129855,114.350766 C277.72952,114.350766 274.161121,117.918375 274.161121,122.319516 C274.161121,126.720656 277.72952,130.288266 282.129855,130.288266 L310.780643,130.288266 L310.780643,186.087844 L263.56111,246.061453 L241.490903,239.978109 C237.245959,238.808297 232.860764,241.300125 231.690954,245.542687 C230.521144,249.78525 233.012967,254.172844 237.255521,255.342656 L318.683237,277.785844 C318.804362,277.827281 318.927877,277.866328 319.051392,277.902188 C321.6747,278.658422 324.177679,279.667266 326.545987,280.887281 C326.668706,280.953422 326.793815,281.016375 326.921315,281.076937 C340.462585,288.2265 349.373224,302.503312 349.373224,318.219281 C349.373224,341.360531 330.547089,360.1875 307.405884,360.1875 C307.269619,360.1875 307.135744,360.181125 307.001072,360.176344 L306.48948,360.161203 C306.432105,360.160406 306.37473,360.159609 306.318152,360.159609 L87.6560788,360.159609 C68.4992412,360.159609 50.4891045,352.700063 36.9438497,339.153984 C23.3977981,325.608703 15.9374689,307.598531 15.9374689,288.441656 C15.9374689,269.284781 23.3977981,251.274609 36.9438497,237.728531 C56.0767811,218.595563 83.9721329,211.873922 109.747801,220.1925 C109.856973,220.227563 109.966145,220.260234 110.07691,220.291313 L170.350027,236.903766 L170.367558,236.840813 C170.911026,236.957953 171.467243,237.023297 172.026648,237.023297 C174.122426,237.023297 176.178359,236.170641 177.660544,234.688453 C179.141931,233.206266 179.995383,231.150328 179.995383,229.054547 C179.995383,226.958766 179.142728,224.902828 177.660544,223.420641 C176.506671,222.267563 175.010143,221.502563 173.412411,221.216484 L114.473261,204.971391 C104.588046,201.803016 94.4502218,200.446734 84.4693819,200.796562 L84.4693819,180.09375 L95.6256101,180.09375 C108.807491,180.09375 119.531813,169.369406 119.531813,156.1875 C119.531813,143.005594 108.807491,132.28125 95.6256101,132.28125 L31.8757346,132.28125 C18.6938541,132.28125 7.96953131,143.005594 7.96953131,156.1875 C7.96953131,169.369406 18.6938541,180.09375 31.8757346,180.09375 L43.0319628,180.09375 L43.0319628,212.968031 C36.8028031,216.667125 30.9625177,221.171063 25.6744655,226.459125 C9.11782594,243.014203 0,265.027875 0,288.441656 C0,311.855437 9.11782594,333.868313 25.6744655,350.424188 C30.8923928,355.642125 36.6529909,360.119766 42.8279632,363.806906 C42.7339322,363.951141 42.6375105,364.092187 42.5514481,364.243594 L26.8713694,392.0625 L7.96953131,392.0625 C3.56919615,392.0625 0.000796873444,395.630109 0.000796873444,400.03125 C0.000796873444,404.432391 3.56919615,408 7.96953131,408 L128.287062,408 C132.687397,408 136.255796,404.432391 136.255796,400.03125 C136.255796,395.630109 132.687397,392.0625 128.287062,392.0625 L112.625311,392.0625 L112.625311,376.097109 L252.334757,376.097109 L252.334757,392.0625 L236.673006,392.0625 C232.272671,392.0625 228.704272,395.630109 228.704272,400.03125 C228.704272,404.432391 232.272671,408 236.673006,408 L356.990537,408 C361.390872,408 364.959272,404.432391 364.959272,400.03125 C364.959272,395.630109 361.390872,392.0625 356.990537,392.0625 L338.088699,392.0625 L327.150017,372.655406 C349.386771,364.564734 365.31149,343.218844 365.31149,318.220078 C365.31149,298.877531 355.522696,281.120766 340.147023,270.507188 L364.443694,206.946844 C364.791131,206.038406 364.968834,205.074188 364.968834,204.101203 L364.968834,89.7496406 L405.665958,49.0524375 C407.160095,47.5582969 408,45.5310469 408,43.4177344 L408,7.96875 C408,3.56840625 404.431601,0 400.031266,0 Z M68.531913,202.846125 C65.2974037,203.568891 62.1043318,204.470156 58.9694317,205.557891 L58.9694317,180.092953 L68.531913,180.092953 L68.531913,202.846125 Z M31.8757346,164.15625 C27.4817744,164.15625 23.9070002,160.582266 23.9070002,156.1875 C23.9070002,151.793531 27.4817744,148.21875 31.8757346,148.21875 L95.6256101,148.21875 C100.01957,148.21875 103.594345,151.793531 103.594345,156.1875 C103.594345,160.581469 100.01957,164.15625 95.6256101,164.15625 L76.5006475,164.15625 L51.0006973,164.15625 L31.8757346,164.15625 Z M96.6878424,392.0625 L45.1667868,392.0625 L56.4369679,372.068906 C56.6999361,371.602734 56.908717,371.120625 57.0688885,370.630547 C66.7261978,374.218875 77.0465058,376.097109 87.6560788,376.097109 L96.6878424,376.097109 L96.6878424,392.0625 Z M268.273023,392.0625 L268.273023,376.097109 L306.209777,376.097109 L306.458401,376.105078 C306.773963,376.115437 307.088728,376.125 307.406681,376.125 C308.530272,376.125 309.644301,376.085156 310.751956,376.021406 L319.794079,392.0625 L268.273023,392.0625 Z M349.031365,202.630969 L325.827207,263.332922 C325.20963,263.125734 324.59046,262.921734 323.962524,262.734469 C323.772071,262.665938 323.577634,262.603781 323.379212,262.549594 L280.229312,250.657031 L325.011209,193.780078 C326.118066,192.375187 326.719706,190.638797 326.719706,188.850609 L326.719706,130.289062 L329.529481,130.289062 C333.929817,130.289062 337.498216,126.721453 337.498216,122.320312 C337.498216,117.919172 333.929817,114.351562 329.529481,114.351562 L326.719706,114.351562 L326.719706,101.003906 C326.719706,98.8905937 325.879801,96.8633437 324.385663,95.3692031 L317.789942,88.7734687 C318.432222,88.2523125 319.05458,87.6945 319.652235,87.0968437 L349.031365,57.7176562 L349.031365,83.1467344 L340.600444,91.5776719 C337.488653,94.6894687 337.488653,99.7352812 340.600444,102.847875 C342.156738,104.404172 344.195937,105.181922 346.235136,105.181922 C347.184213,105.181922 348.130898,105.005812 349.031365,104.669531 L349.031365,202.630969 Z M354.666057,29.5425469 L308.382054,75.8274375 C305.275841,78.9360469 300.219679,78.9344531 297.11267,75.8274375 C294.00566,72.7204219 294.00566,67.6658437 297.113467,64.5580312 L343.396673,18.2747344 C344.949779,16.7208281 346.991369,15.943875 349.031365,15.943875 C351.071361,15.943875 353.112951,16.7208281 354.666057,18.2739375 C357.77227,21.3809531 357.77227,26.437125 354.666057,29.5425469 Z" id="path-5"></path>
        <filter x="-0.7%" y="-0.7%" width="102.9%" height="102.9%" filterUnits="objectBoundingBox" id="filter-6">
            <feOffset dx="6" dy="6" in="SourceAlpha" result="shadowOffsetOuter1"></feOffset>
            <feColorMatrix values="0 0 0 0 0.917647059   0 0 0 0 0.937254902   0 0 0 0 0  0 0 0 1 0" type="matrix" in="shadowOffsetOuter1"></feColorMatrix>
        </filter>
        <path d="M314.907023,293.312025 C310.691217,292.10018 306.294426,294.525455 305.080725,298.728895 C303.86623,302.932335 306.296014,307.321908 310.508645,308.532961 C314.991959,309.82322 318.124245,313.978344 318.124245,318.6388 C318.124245,324.439817 313.394858,329.158885 307.58195,329.158885 L272.937877,329.158885 C268.554582,329.158885 265,332.704918 265,337.079442 C265,341.453966 268.554582,345 272.937877,345 L307.58195,345 C322.149543,345 334,333.174608 334,318.6388 C334,306.961522 326.148645,296.545989 314.907023,293.312025 Z" id="path-7"></path>
        <filter x="-4.3%" y="-5.8%" width="117.4%" height="123.1%" filterUnits="objectBoundingBox" id="filter-8">
            <feOffset dx="6" dy="6" in="SourceAlpha" result="shadowOffsetOuter1"></feOffset>
            <feColorMatrix values="0 0 0 0 0.917647059   0 0 0 0 0.937254902   0 0 0 0 0  0 0 0 1 0" type="matrix" in="shadowOffsetOuter1"></feColorMatrix>
        </filter>
        <path d="M247.6552,332.344 C246.168,330.856 244.104,330 242,330 C239.896,330 237.832,330.856 236.344,332.344 C234.856,333.832 234,335.896 234,338 C234,340.112 234.8552,342.168 236.344,343.656 C237.832,345.144 239.896,346 242,346 C244.104,346 246.168,345.144 247.6552,343.656 C249.1432,342.168 250,340.104 250,338 C250,335.896 249.144,333.8328 247.6552,332.344 Z" id="path-9"></path>
        <filter x="-18.8%" y="-18.8%" width="175.0%" height="175.0%" filterUnits="objectBoundingBox" id="filter-10">
            <feOffset dx="6" dy="6" in="SourceAlpha" result="shadowOffsetOuter1"></feOffset>
            <feColorMatrix values="0 0 0 0 0.917647059   0 0 0 0 0.937254902   0 0 0 0 0  0 0 0 1 0" type="matrix" in="shadowOffsetOuter1"></feColorMatrix>
        </filter>
    </defs>
    <g id="Page-1" stroke="none" stroke-width="1" fill="none" fill-rule="evenodd">
        <g id="021-gym">
            <g id="Path">
                <use fill="black" fill-opacity="1" filter="url(#filter-2)" xlink:href="#path-1"></use>
                <use fill="#000000" fill-rule="evenodd" xlink:href="#path-1"></use>
            </g>
            <g id="Shape" fill-rule="nonzero">
                <use fill="black" fill-opacity="1" filter="url(#filter-4)" xlink:href="#path-3"></use>
                <use fill="#000000" xlink:href="#path-3"></use>
            </g>
            <g id="Shape" fill-rule="nonzero">
                <use fill="black" fill-opacity="1" filter="url(#filter-6)" xlink:href="#path-5"></use>
                <use fill="#000000" xlink:href="#path-5"></use>
            </g>
            <g id="Path">
                <use fill="black" fill-opacity="1" filter="url(#filter-8)" xlink:href="#path-7"></use>
                <use fill="#000000" fill-rule="evenodd" xlink:href="#path-7"></use>
            </g>
            <g id="Path">
                <use fill="black" fill-opacity="1" filter="url(#filter-10)" xlink:href="#path-9"></use>
                <use fill="#000000" fill-rule="evenodd" xlink:href="#path-9"></use>
            </g>
        </g>
    </g>
</svg>