<?xml version="1.0" encoding="UTF-8"?>
<svg width="499px" height="516px" viewBox="0 0 499 516" version="1.1" xmlns="http://www.w3.org/2000/svg" xmlns:xlink="http://www.w3.org/1999/xlink">
    <!-- Generator: Sketch 52.6 (67491) - http://www.bohemiancoding.com/sketch -->
    <title>017-pool-table</title>
    <desc>Created with Sketch.</desc>
    <defs>
        <path d="M373.470589,170.002493 C368.758151,170.002493 364.941177,173.806305 364.941177,178.5 L364.941177,231.107771 C362.212265,230.093255 359.325772,229.544868 356.414266,229.5 L355.47378,229.5 C351.281611,229.495015 347.887356,226.112464 347.882353,221.937243 L347.882353,204 C347.882353,199.306305 344.062878,195.5 339.355443,195.5 C334.643005,195.5 330.82353,199.306305 330.82353,204 L330.82353,221.937243 C330.838537,235.497361 341.86424,246.487536 355.47378,246.5 L356.414266,246.5 C358.93557,246.5 361.329308,247.61173 362.955149,249.541056 C364.573487,251.467889 365.253839,254.010411 364.813611,256.488123 C363.76807,260.740616 359.866052,263.669501 355.47378,263.502493 C341.86424,263.514956 330.838537,274.505132 330.82353,288.065249 L330.82353,433.5 C330.881059,447.588563 338.419959,460.595308 350.626273,467.68695 L352.137054,468.631672 C355.536312,470.565982 357.177161,474.549267 356.121615,478.305718 C355.348715,481.209677 353.067535,483.480498 350.151026,484.255718 C346.269019,485.282698 342.189409,483.522874 340.283423,480.005719 L339.515525,478.806745 C331.744006,466.465543 318.146972,458.982551 303.529412,459 L169.357512,459 C155.435311,458.96261 142.47861,466.066716 135.059772,477.8022 L133.513973,480.242522 C131.540452,483.592669 127.568397,485.217888 123.806451,484.210851 C120.877437,483.420674 118.598758,481.119942 117.835863,478.191056 C117.415646,476.508504 117.505692,474.733724 118.093497,473.096041 L125.93005,467.375367 C136.750647,459.44868 143.148956,446.880645 143.173969,433.5 L143.173969,288.065249 C143.163964,274.505132 132.133259,263.514956 118.52622,263.502493 L117.588235,263.502493 C115.061928,263.502493 112.670692,262.390762 111.049853,260.461437 C109.424012,258.534604 108.746161,255.992082 109.186389,253.51437 C110.234431,249.261877 114.138951,246.332991 118.52622,246.5 C132.133259,246.487536 143.163964,235.497361 143.173969,221.937243 L143.173969,78.2 C143.218993,63.6378296 135.735122,50.0802054 123.371226,42.3155425 L121.852941,41.370821 C118.458685,39.4365101 116.817837,35.453226 117.870881,31.6967742 C118.646282,28.7903229 120.924961,26.5219941 123.838968,25.746774 C127.723477,24.7222877 131.798085,26.4796189 133.706572,29.9967739 L134.474469,31.1932548 C142.245989,43.5369498 155.850526,51.0224339 170.470588,51 L304.64749,51 C318.562188,51.0373902 331.52139,43.9357768 338.942729,32.2002936 L340.486027,29.7599708 C342.439538,26.3923754 346.431603,24.7596773 350.19605,25.7916424 C353.125065,26.5818182 355.401242,28.8825515 356.164137,31.8114366 C356.586855,33.4939881 356.494308,35.2687682 355.911506,36.9064519 L348.06995,42.6271259 C337.251855,50.5538122 330.851044,63.1218477 330.82353,76.4999997 L330.82353,119 C330.82353,123.696188 334.643005,127.5 339.355443,127.5 C344.062878,127.5 347.882353,123.696188 347.882353,119 L347.882353,76.4999997 C347.889857,68.5409089 351.689322,61.0554255 358.115146,56.3293258 L364.941177,51.3739 L364.941177,102 C364.941177,106.696188 368.758151,110.502493 373.470589,110.502493 C378.183026,110.502493 382,106.696188 382,102 L382,42.5024928 C381.969985,19.0390033 362.895118,0.0299120235 339.355443,0 L134.647059,0 C111.104882,0.0299120235 92.0250126,19.0390033 92,42.5024928 L92,467.5 C92.0250126,490.96349 111.104882,509.97258 134.647059,510 L339.355443,510 C362.895118,509.97258 381.969985,490.96349 382,467.5 L382,178.5 C382,173.806305 378.183026,170.002493 373.470589,170.002493 Z M328.819993,17 C327.714422,18.2139298 326.736416,19.542522 325.900984,20.9533728 L324.537778,23.1045453 C320.233052,29.909531 312.719165,34.0249264 304.64749,34 L170.470588,34 C161.698551,34.0249264 153.534328,29.545601 148.866914,22.144868 L148.294117,21.2499998 C147.388649,19.7294723 146.325599,18.3036658 145.12748,17 L328.819993,17 Z M109.058823,53.0090906 C110.279454,54.1008798 111.60514,55.0705277 113.01587,55.9080644 L114.228997,56.6683288 C121.647835,61.3271263 126.14266,69.4631966 126.117647,78.2 L126.117647,221.937243 C126.117647,223.948827 125.314731,225.870675 123.883991,227.293988 C122.455753,228.709824 120.519751,229.507478 118.498706,229.5 C115.27704,229.507478 112.080386,230.083284 109.058823,231.2 L109.058823,53.0090906 Z M109.058823,458.63607 L109.058823,278.894722 C111.790236,279.909237 114.671727,280.457624 117.588235,280.5 L118.52622,280.5 C122.715888,280.507478 126.112644,283.890029 126.117647,288.065249 L126.117647,433.5 C126.112644,441.461584 122.315681,448.947068 115.884854,453.673167 L109.058823,458.63607 Z M145.170002,493.002493 C146.280576,491.788563 147.261083,490.459971 148.101518,489.04912 L149.462222,486.897947 C153.769449,480.092962 161.280835,475.977566 169.357512,476.002493 L303.529412,476.002493 C312.308953,475.985044 320.478179,480.486804 325.135588,487.9 L325.725893,488.802346 C326.661377,490.327859 327.759445,491.753666 328.995084,493.052346 L145.170002,493.002493 Z M364.941177,456.993402 C363.723047,455.901613 362.39486,454.931965 360.981629,454.094428 L359.771003,453.331671 C352.484733,449.365836 347.932379,441.770674 347.882353,433.5 L347.882353,288.065249 C347.887356,286.053666 348.690271,284.131818 350.116009,282.708504 C351.544247,281.292669 353.480249,280.495015 355.498793,280.5 C358.72296,280.495015 361.917112,279.919208 364.941177,278.802493 L364.941177,456.993402 Z" id="path-1"></path>
        <filter x="-1.0%" y="-0.6%" width="104.1%" height="102.4%" filterUnits="objectBoundingBox" id="filter-2">
            <feOffset dx="6" dy="6" in="SourceAlpha" result="shadowOffsetOuter1"></feOffset>
            <feColorMatrix values="0 0 0 0 0.917647059   0 0 0 0 0.937254902   0 0 0 0 0  0 0 0 1 0" type="matrix" in="shadowOffsetOuter1"></feColorMatrix>
        </filter>
        <path d="M229.797927,375.221122 C226.947744,380.755012 227.520302,387.403157 231.273464,392.38615 L257.179862,427.125015 C260.423522,431.447431 265.548807,434 270.994422,434 C276.442559,434 281.565322,431.447431 284.816548,427.125015 L310.727991,392.351251 C314.481152,387.373244 315.053711,380.720113 312.195961,375.186224 C309.277676,369.515234 303.357871,365.953104 296.913431,366.000467 L245.085502,366.000467 C238.630972,365.960583 232.711167,369.532683 229.797927,375.221122 Z M296.888208,382.303005 L270.996944,416.999493 L245.085502,382.99848 L270.996944,382.99848 L296.888208,382.303005 Z" id="path-3"></path>
        <filter x="-3.5%" y="-4.4%" width="114.0%" height="117.6%" filterUnits="objectBoundingBox" id="filter-4">
            <feOffset dx="6" dy="6" in="SourceAlpha" result="shadowOffsetOuter1"></feOffset>
            <feColorMatrix values="0 0 0 0 0.917647059   0 0 0 0 0.937254902   0 0 0 0 0  0 0 0 1 0" type="matrix" in="shadowOffsetOuter1"></feColorMatrix>
        </filter>
        <path d="M178,162.498754 C178,167.194253 174.191202,171 169.5,171 C164.803812,171 161,167.194253 161,162.498754 C161,157.808239 164.803812,154 169.5,154 C174.191202,154 178,157.808239 178,162.498754 Z" id="path-5"></path>
        <filter x="-17.6%" y="-17.6%" width="170.6%" height="170.6%" filterUnits="objectBoundingBox" id="filter-6">
            <feOffset dx="6" dy="6" in="SourceAlpha" result="shadowOffsetOuter1"></feOffset>
            <feColorMatrix values="0 0 0 0 0.917647059   0 0 0 0 0.937254902   0 0 0 0 0  0 0 0 1 0" type="matrix" in="shadowOffsetOuter1"></feColorMatrix>
        </filter>
        <path d="M221,101.497507 C221,106.193695 217.193695,110 212.502493,110 C207.806305,110 204,106.193695 204,101.497507 C204,96.803812 207.806305,93 212.502493,93 C217.193695,93 221,96.803812 221,101.497507 Z" id="path-7"></path>
        <filter x="-17.6%" y="-17.6%" width="170.6%" height="170.6%" filterUnits="objectBoundingBox" id="filter-8">
            <feOffset dx="6" dy="6" in="SourceAlpha" result="shadowOffsetOuter1"></feOffset>
            <feColorMatrix values="0 0 0 0 0.917647059   0 0 0 0 0.937254902   0 0 0 0 0  0 0 0 1 0" type="matrix" in="shadowOffsetOuter1"></feColorMatrix>
        </filter>
        <path d="M263,212.498754 C263,217.194253 259.196188,221 254.5,221 C249.808798,221 246,217.194253 246,212.498754 C246,207.808239 249.808798,204 254.5,204 C259.196188,204 263,207.808239 263,212.498754 Z" id="path-9"></path>
        <filter x="-17.6%" y="-17.6%" width="170.6%" height="170.6%" filterUnits="objectBoundingBox" id="filter-10">
            <feOffset dx="6" dy="6" in="SourceAlpha" result="shadowOffsetOuter1"></feOffset>
            <feColorMatrix values="0 0 0 0 0.917647059   0 0 0 0 0.937254902   0 0 0 0 0  0 0 0 1 0" type="matrix" in="shadowOffsetOuter1"></feColorMatrix>
        </filter>
        <path d="M203,237.502493 C203,242.193695 199.196187,246 194.497507,246 C189.806305,246 186,242.193695 186,237.502493 C186,232.803812 189.806305,229 194.497507,229 C199.196187,229 203,232.803812 203,237.502493 Z" id="path-11"></path>
        <filter x="-17.6%" y="-17.6%" width="170.6%" height="170.6%" filterUnits="objectBoundingBox" id="filter-12">
            <feOffset dx="6" dy="6" in="SourceAlpha" result="shadowOffsetOuter1"></feOffset>
            <feColorMatrix values="0 0 0 0 0.917647059   0 0 0 0 0.937254902   0 0 0 0 0  0 0 0 1 0" type="matrix" in="shadowOffsetOuter1"></feColorMatrix>
        </filter>
        <path d="M229,314.502493 C229,319.193695 225.193695,323 220.497507,323 C215.803812,323 212,319.193695 212,314.502493 C212,309.803813 215.803812,306 220.497507,306 C225.193695,306 229,309.803813 229,314.502493 Z" id="path-13"></path>
        <filter x="-17.6%" y="-17.6%" width="170.6%" height="170.6%" filterUnits="objectBoundingBox" id="filter-14">
            <feOffset dx="6" dy="6" in="SourceAlpha" result="shadowOffsetOuter1"></feOffset>
            <feColorMatrix values="0 0 0 0 0.917647059   0 0 0 0 0.937254902   0 0 0 0 0  0 0 0 1 0" type="matrix" in="shadowOffsetOuter1"></feColorMatrix>
        </filter>
        <path d="M187,434.497508 C187,439.193695 183.196188,443 178.5,443 C173.803813,443 170,439.193695 170,434.497508 C170,429.803813 173.803813,426 178.5,426 C183.196188,426 187,429.803813 187,434.497508 Z" id="path-15"></path>
        <filter x="-17.6%" y="-17.6%" width="170.6%" height="170.6%" filterUnits="objectBoundingBox" id="filter-16">
            <feOffset dx="6" dy="6" in="SourceAlpha" result="shadowOffsetOuter1"></feOffset>
            <feColorMatrix values="0 0 0 0 0.917647059   0 0 0 0 0.937254902   0 0 0 0 0  0 0 0 1 0" type="matrix" in="shadowOffsetOuter1"></feColorMatrix>
        </filter>
        <path d="M479.830171,60.3852061 L283.869934,188.324676 C281.318927,189.985513 279.849788,192.884473 280.012193,195.928507 C280.177096,198.97004 281.94606,201.696413 284.659471,203.077109 C287.37538,204.455304 290.62098,204.280215 293.171986,202.616877 L489.132223,74.6774077 C491.68073,73.0140697 493.152368,70.1126076 492.987465,67.073576 C492.825061,64.0270412 491.053598,61.3006677 488.337688,59.9224731 C485.624277,58.5467795 482.378678,58.7168652 479.830171,60.3852061 Z" id="path-17"></path>
        <filter x="-1.4%" y="-2.1%" width="105.6%" height="108.3%" filterUnits="objectBoundingBox" id="filter-18">
            <feOffset dx="6" dy="6" in="SourceAlpha" result="shadowOffsetOuter1"></feOffset>
            <feColorMatrix values="0 0 0 0 0.917647059   0 0 0 0 0.937254902   0 0 0 0 0  0 0 0 1 0" type="matrix" in="shadowOffsetOuter1"></feColorMatrix>
        </filter>
        <path d="M284.387689,145.895176 C282.411425,144.888441 280.120035,144.723974 278.028958,145.436663 C275.930552,146.151844 274.193688,147.681882 273.211664,149.702828 L264.879112,166.695223 C262.824678,170.896599 264.493142,176.007524 268.611782,178.103228 C272.730422,180.198932 277.733373,178.496952 279.787808,174.295576 L288.12036,157.298197 C289.107269,155.284726 289.273383,152.947307 288.569843,150.806748 C287.873632,148.671173 286.366395,146.901911 284.387689,145.895176 Z" id="path-19"></path>
        <filter x="-12.0%" y="-8.8%" width="148.0%" height="135.3%" filterUnits="objectBoundingBox" id="filter-20">
            <feOffset dx="6" dy="6" in="SourceAlpha" result="shadowOffsetOuter1"></feOffset>
            <feColorMatrix values="0 0 0 0 0.917647059   0 0 0 0 0.937254902   0 0 0 0 0  0 0 0 1 0" type="matrix" in="shadowOffsetOuter1"></feColorMatrix>
        </filter>
        <path d="M58.865194,25.5000003 C58.865194,11.4189148 47.5120831,0 33.5010698,0 C19.4950156,0 8.1369456,11.4189148 8.1369456,25.5000003 L8.1369456,50.8404692 L0.00455788093,484.016422 C-0.124369582,490.86129 2.48642424,497.47434 7.26172232,502.362463 C12.0320619,507.250586 18.555328,510 25.3686821,510 L41.6359367,510 C48.4468116,510 54.9725569,507.250586 59.7453757,502.362463 C64.5132361,497.47434 67.128989,490.86129 66.9951019,484.016422 L58.865194,50.8404692 L58.865194,25.5000003 Z M25.0488414,25.5000003 C25.0488414,20.8063051 28.8323849,17 33.5010698,17 C38.1697547,17 41.9557774,20.8063051 41.9557774,25.5000003 L41.9557774,42.5024928 L25.0488414,42.5024928 L25.0488414,25.5000003 Z M47.6608463,490.452493 C46.0814766,492.087684 43.9045755,493.007478 41.6359367,493.002493 L25.3686821,493.002493 C23.097564,493.002493 20.9181832,492.082698 19.3264173,490.452493 C17.7346509,488.822287 16.8693452,486.618768 16.9114946,484.332991 L24.8852016,59.5024928 L42.1144582,59.5024928 L50.0881652,484.332991 C50.1377535,486.618768 49.2650095,488.827272 47.6608463,490.452493 Z" id="path-21"></path>
        <filter x="-4.5%" y="-0.6%" width="117.9%" height="102.4%" filterUnits="objectBoundingBox" id="filter-22">
            <feOffset dx="6" dy="6" in="SourceAlpha" result="shadowOffsetOuter1"></feOffset>
            <feColorMatrix values="0 0 0 0 0.917647059   0 0 0 0 0.937254902   0 0 0 0 0  0 0 0 1 0" type="matrix" in="shadowOffsetOuter1"></feColorMatrix>
        </filter>
    </defs>
    <g id="Page-1" stroke="none" stroke-width="1" fill="none" fill-rule="evenodd">
        <g id="017-pool-table">
            <g id="Shape" fill-rule="nonzero">
                <use fill="black" fill-opacity="1" filter="url(#filter-2)" xlink:href="#path-1"></use>
                <use fill="#000000" xlink:href="#path-1"></use>
            </g>
            <g id="Shape" fill-rule="nonzero">
                <use fill="black" fill-opacity="1" filter="url(#filter-4)" xlink:href="#path-3"></use>
                <use fill="#000000" xlink:href="#path-3"></use>
            </g>
            <g id="Path">
                <use fill="black" fill-opacity="1" filter="url(#filter-6)" xlink:href="#path-5"></use>
                <use fill="#000000" fill-rule="evenodd" xlink:href="#path-5"></use>
            </g>
            <g id="Path">
                <use fill="black" fill-opacity="1" filter="url(#filter-8)" xlink:href="#path-7"></use>
                <use fill="#000000" fill-rule="evenodd" xlink:href="#path-7"></use>
            </g>
            <g id="Path">
                <use fill="black" fill-opacity="1" filter="url(#filter-10)" xlink:href="#path-9"></use>
                <use fill="#000000" fill-rule="evenodd" xlink:href="#path-9"></use>
            </g>
            <g id="Path">
                <use fill="black" fill-opacity="1" filter="url(#filter-12)" xlink:href="#path-11"></use>
                <use fill="#000000" fill-rule="evenodd" xlink:href="#path-11"></use>
            </g>
            <g id="Path">
                <use fill="black" fill-opacity="1" filter="url(#filter-14)" xlink:href="#path-13"></use>
                <use fill="#000000" fill-rule="evenodd" xlink:href="#path-13"></use>
            </g>
            <g id="Path">
                <use fill="black" fill-opacity="1" filter="url(#filter-16)" xlink:href="#path-15"></use>
                <use fill="#000000" fill-rule="evenodd" xlink:href="#path-15"></use>
            </g>
            <g id="Path">
                <use fill="black" fill-opacity="1" filter="url(#filter-18)" xlink:href="#path-17"></use>
                <use fill="#000000" fill-rule="evenodd" xlink:href="#path-17"></use>
            </g>
            <g id="Path">
                <use fill="black" fill-opacity="1" filter="url(#filter-20)" xlink:href="#path-19"></use>
                <use fill="#000000" fill-rule="evenodd" xlink:href="#path-19"></use>
            </g>
            <g id="Shape" fill-rule="nonzero">
                <use fill="black" fill-opacity="1" filter="url(#filter-22)" xlink:href="#path-21"></use>
                <use fill="#000000" xlink:href="#path-21"></use>
            </g>
        </g>
    </g>
</svg>