<?xml version="1.0" encoding="UTF-8"?>
<svg width="33px" height="24px" viewBox="0 0 33 24" version="1.1" xmlns="http://www.w3.org/2000/svg" xmlns:xlink="http://www.w3.org/1999/xlink">
    <!-- Generator: Sketch 51.3 (57544) - http://www.bohemiancoding.com/sketch -->
    <title>garage</title>
    <desc>Created with Sketch.</desc>
    <defs>
        <filter x="-1.6%" y="-2.1%" width="106.2%" height="104.2%" filterUnits="objectBoundingBox" id="filter-1">
            <feOffset dx="1" dy="0" in="SourceAlpha" result="shadowOffsetOuter1"></feOffset>
            <feColorMatrix values="0 0 0 0 0.850980392   0 0 0 0 0.835294118   0 0 0 0 0.133333333  0 0 0 1 0" type="matrix" in="shadowOffsetOuter1" result="shadowMatrixOuter1"></feColorMatrix>
            <feMerge>
                <feMergeNode in="shadowMatrixOuter1"></feMergeNode>
                <feMergeNode in="SourceGraphic"></feMergeNode>
            </feMerge>
        </filter>
    </defs>
    <g id="Rental-View" stroke="none" stroke-width="1" fill="none" fill-rule="evenodd">
        <g id="Rental" transform="translate(-184.000000, -888.000000)" fill="#000000" fill-rule="nonzero">
            <g id="Group-2-Copy-11" transform="translate(75.000000, 793.000000)">
                <g id="Group-2" transform="translate(21.000000, 93.000000)">
                    <g id="garage" filter="url(#filter-1)" transform="translate(88.000000, 2.000000)">
                        <path d="M11.8274595,11.0781429 C11.5675676,11.8191429 11.3081081,12.5605714 11.0482162,13.3015714 C10.9111351,13.6932857 11.5372973,13.8617143 11.6735135,13.4725714 C11.9334054,12.7315714 12.1928649,11.9901429 12.4527568,11.2491429 C12.5902703,10.8574286 11.9636757,10.689 11.8274595,11.0781429 Z" id="Shape"></path>
                        <path d="M10.16,19.7314286 C11.3868108,19.7807143 12.3052973,18.8575714 12.4419459,17.7081429 C12.4536216,17.6592857 12.460973,17.6074286 12.4579459,17.5487143 C12.4622703,17.4685714 12.4501622,17.3982857 12.4276757,17.337 C12.2737297,16.2475714 11.4227027,15.3612857 10.2508108,15.3612857 C9.05167568,15.3612857 8.04367568,16.3611429 8.04367568,17.5487143 C8.04324324,18.705 8.99632432,19.6847143 10.16,19.7314286 Z M11.3768649,17.5487143 C11.299027,18.9788571 9.12475676,18.9908571 9.12475676,17.5487143 C9.12432432,16.1052857 11.299027,16.1181429 11.3768649,17.5487143 Z" id="Shape"></path>
                        <path d="M21.808,19.7314286 C23.0348108,19.7807143 23.9532973,18.8575714 24.0899459,17.7081429 C24.1016216,17.6592857 24.108973,17.6074286 24.1059459,17.5487143 C24.1102703,17.4685714 24.0981622,17.3982857 24.0756757,17.337 C23.9217297,16.2475714 23.0707027,15.3612857 21.8988108,15.3612857 C20.6996757,15.3612857 19.6916757,16.3611429 19.6916757,17.5487143 C19.6916757,18.705 20.6443243,19.6847143 21.808,19.7314286 Z M23.0248649,17.5487143 C22.947027,18.9788571 20.7727568,18.9908571 20.7727568,17.5487143 C20.7727568,16.1052857 22.9474595,16.1181429 23.0248649,17.5487143 Z" id="Shape"></path>
                        <path d="M31.4668108,9.036 C27.1783784,6.45685714 22.8903784,3.87771429 18.6019459,1.29857143 C18.0428108,0.962142857 17.456,0.514285714 16.8125405,0.351428571 C15.7617297,0.0852857143 14.9262703,0.473142857 14.0730811,0.986571429 C11.7007568,2.41328571 9.32886486,3.84 6.95654054,5.26671429 C4.86745946,6.52328571 2.77837838,7.77985714 0.689297297,9.036 C0.0951351351,9.39342857 0.637837838,10.32 1.23502703,9.96128571 C5.41059459,7.44985714 9.58616216,4.93885714 13.7612973,2.42742857 C14.2421622,2.13814286 14.7260541,1.77214286 15.2384865,1.539 C16.3031351,1.05428571 17.008,1.59342857 17.8516757,2.10085714 C20.2408649,3.53785714 22.6300541,4.97485714 25.0196757,6.41185714 C26.9868108,7.59514286 28.9539459,8.778 30.9215135,9.96128571 C31.5174054,10.32 32.0614054,9.39385714 31.4668108,9.036 Z" id="Shape"></path>
                        <path d="M28.8432432,22.8184286 C27.5424865,22.8184286 26.2417297,22.8184286 24.940973,22.8184286 C24.9945946,22.752 25.0447568,22.6825714 25.0858378,22.6067143 C25.3223784,22.17 25.2471351,21.6261429 25.2445405,21.1457143 C25.9472432,20.8898571 26.4527568,20.2255714 26.4527568,19.4412857 L26.4527568,15.6565714 C26.4527568,14.8487143 25.9156757,14.1698571 25.1792432,13.932 L23.2402162,8.88728571 C22.9068108,8.02071429 21.9126486,7.34142857 20.9764324,7.34142857 L11.1796757,7.34142857 C10.2434595,7.34142857 9.24886486,8.02028571 8.91545946,8.88728571 L6.97686486,13.932 C6.24043243,14.1698571 5.70335135,14.8482857 5.70335135,15.6565714 L5.70335135,19.4412857 C5.70335135,20.2427143 6.23135135,20.9168571 6.95783784,21.1598571 C6.95351351,21.6368571 6.88259459,22.1742857 7.11697297,22.6067143 C7.15805405,22.6825714 7.20821622,22.752 7.26183784,22.8184286 C7.09837838,22.8184286 6.93448649,22.8184286 6.77102703,22.8184286 C5.73059459,22.8184286 4.68972973,22.8184286 3.64886486,22.8184286 C2.95308108,22.8184286 2.95221622,23.8898571 3.64886486,23.8898571 C11.0062703,23.8898571 18.3636757,23.8898571 25.7210811,23.8898571 C26.7615135,23.8898571 27.8023784,23.8898571 28.8432432,23.8898571 C29.5385946,23.8898571 29.5398919,22.8184286 28.8432432,22.8184286 Z M23.3474595,21.2627143 L24.1690811,21.2627143 C24.1954595,21.6711429 24.2841081,22.3075714 23.7582703,22.3075714 C23.2332973,22.3075714 23.3210811,21.6702857 23.3474595,21.2627143 Z M9.92562162,9.26871429 C10.1011892,8.81271429 10.6875676,8.41242857 11.1796757,8.41242857 L20.9764324,8.41242857 C21.468973,8.41242857 22.0549189,8.81271429 22.2300541,9.26871429 L23.9852973,13.8347143 L23.0348108,13.8347143 L21.8724324,10.5042857 C21.5641081,9.62057143 20.5837838,8.92842857 19.6402162,8.92842857 L12.5163243,8.92842857 C11.5727568,8.92842857 10.592,9.62014286 10.2828108,10.503 L9.11524324,13.8347143 L8.17081081,13.8347143 L9.92562162,9.26871429 Z M21.8905946,13.8347143 L10.2594595,13.8347143 L11.3037838,10.8544286 C11.4633514,10.3992857 12.0298378,9.99985714 12.5163243,9.99985714 L19.6402162,9.99985714 C20.1262703,9.99985714 20.6918919,10.3992857 20.8505946,10.8544286 L21.8905946,13.8347143 Z M6.78443243,15.6561429 C6.78443243,15.2425714 7.12389189,14.9061429 7.54118919,14.9061429 L24.6149189,14.9061429 C25.0322162,14.9061429 25.3716757,15.2425714 25.3716757,15.6561429 L25.3716757,19.4408571 C25.3716757,19.8544286 25.0322162,20.1908571 24.6149189,20.1908571 L7.54118919,20.1908571 C7.12389189,20.1908571 6.78443243,19.8544286 6.78443243,19.4408571 L6.78443243,15.6561429 Z M8.44454054,22.3075714 C7.91956757,22.3075714 8.00735135,21.6707143 8.03372973,21.2627143 L8.85535135,21.2627143 C8.88216216,21.6711429 8.97037838,22.3075714 8.44454054,22.3075714 Z M9.77210811,22.6067143 C9.98962162,22.2047143 9.94378378,21.7127143 9.93297297,21.2627143 L22.2702703,21.2627143 C22.2594595,21.7131429 22.2131892,22.2051429 22.4311351,22.6067143 C22.4722162,22.6825714 22.5223784,22.752 22.576,22.8184286 C18.2598919,22.8184286 13.9437838,22.8184286 9.62767568,22.8184286 C9.68086486,22.752 9.73102703,22.6825714 9.77210811,22.6067143 Z" id="Shape"></path>
                    </g>
                </g>
            </g>
        </g>
    </g>
</svg>