<?xml version="1.0" encoding="UTF-8"?>
<svg width="450px" height="345px" viewBox="0 0 450 345" version="1.1" xmlns="http://www.w3.org/2000/svg" xmlns:xlink="http://www.w3.org/1999/xlink">
    <!-- Generator: Sketch 53.2 (72643) - https://sketchapp.com -->
    <title>010-car</title>
    <desc>Created with Sketch.</desc>
    <defs>
        <path d="M161.618952,155.191486 C157.838382,165.904363 154.064101,176.623435 150.28353,187.336312 C148.289452,192.999452 157.398049,195.434478 159.379546,189.808514 C163.160117,179.095637 166.934397,168.376565 170.714968,157.663688 C172.715337,152.000548 163.60045,149.565522 161.618952,155.191486 Z" id="path-1"></path>
        <filter x="-14.3%" y="-7.3%" width="157.1%" height="129.3%" filterUnits="objectBoundingBox" id="filter-2">
            <feOffset dx="6" dy="6" in="SourceAlpha" result="shadowOffsetOuter1"></feOffset>
            <feColorMatrix values="0 0 0 0 0.917647059   0 0 0 0 0.937254902   0 0 0 0 0  0 0 0 1 0" type="matrix" in="shadowOffsetOuter1"></feColorMatrix>
        </filter>
        <path d="M138.198022,279.972826 C155.703495,280.683023 168.80946,267.380731 170.759312,250.817711 C170.925913,250.11369 171.03081,249.366439 170.987617,248.520379 C171.049321,247.365538 170.87655,246.352735 170.555688,245.469621 C168.35902,229.771188 156.215639,217 139.49381,217 C122.383244,217 108.000002,231.407728 108.000002,248.520379 C107.993832,265.182209 121.59343,279.299683 138.198022,279.972826 Z M155.561575,248.520379 C154.4509,269.128432 123.426044,269.30135 123.426044,248.520379 C123.419874,227.720881 154.4509,227.90615 155.561575,248.520379 Z" id="path-3"></path>
        <filter x="-4.8%" y="-4.8%" width="119.0%" height="119.0%" filterUnits="objectBoundingBox" id="filter-4">
            <feOffset dx="6" dy="6" in="SourceAlpha" result="shadowOffsetOuter1"></feOffset>
            <feColorMatrix values="0 0 0 0 0.917647059   0 0 0 0 0.937254902   0 0 0 0 0  0 0 0 1 0" type="matrix" in="shadowOffsetOuter1"></feColorMatrix>
        </filter>
        <path d="M303.198021,279.972826 C320.703494,280.683023 333.80946,267.380731 335.759312,250.817711 C335.925913,250.11369 336.03081,249.366439 335.987617,248.520379 C336.049321,247.365538 335.87655,246.352735 335.555688,245.469621 C333.35902,229.771188 321.215639,217 304.493809,217 C287.383242,217 273,231.407728 273,248.520379 C273,265.182209 286.593429,279.299683 303.198021,279.972826 Z M320.561575,248.520379 C319.4509,269.128432 288.426043,269.30135 288.426043,248.520379 C288.426043,227.720881 319.45707,227.90615 320.561575,248.520379 Z" id="path-5"></path>
        <filter x="-4.8%" y="-4.8%" width="119.0%" height="119.0%" filterUnits="objectBoundingBox" id="filter-6">
            <feOffset dx="6" dy="6" in="SourceAlpha" result="shadowOffsetOuter1"></feOffset>
            <feColorMatrix values="0 0 0 0 0.917647059   0 0 0 0 0.937254902   0 0 0 0 0  0 0 0 1 0" type="matrix" in="shadowOffsetOuter1"></feColorMatrix>
        </filter>
        <path d="M440.351506,125.589485 C379.502747,88.659099 318.660124,51.7287127 257.811365,14.7983264 C249.877772,9.9810527 241.551487,3.56824883 232.421412,1.23632015 C217.511411,-2.57454225 205.657039,2.97913 193.5511,10.330842 C159.890084,30.7597646 126.235205,51.1886871 92.5741892,71.6176097 C62.9321247,89.6102805 33.2900602,107.602951 3.64799568,125.589485 C-4.7825977,130.707455 2.91783512,143.974902 11.3913791,138.838522 C70.6386933,102.877727 129.886008,66.9230691 189.127186,30.9622742 C195.950199,26.8200324 202.816163,21.5793296 210.087089,18.2409895 C225.193436,11.3004334 235.194795,19.0203447 247.165747,26.2861435 C281.066059,46.8623458 314.966371,67.438548 348.872818,88.0147503 C376.784586,104.958053 404.696354,121.895219 432.614258,138.838522 C441.069395,143.974902 448.788235,130.713592 440.351506,125.589485 Z" id="path-7"></path>
        <filter x="-0.7%" y="-2.1%" width="102.7%" height="108.6%" filterUnits="objectBoundingBox" id="filter-8">
            <feOffset dx="6" dy="6" in="SourceAlpha" result="shadowOffsetOuter1"></feOffset>
            <feColorMatrix values="0 0 0 0 0.917647059   0 0 0 0 0.937254902   0 0 0 0 0  0 0 0 1 0" type="matrix" in="shadowOffsetOuter1"></feColorMatrix>
        </filter>
        <path d="M402.599282,323.590682 C384.15765,323.590682 365.716018,323.590682 347.274386,323.590682 C348.034613,322.635304 348.745793,321.63678 349.328224,320.545801 C352.681806,314.264963 351.615036,306.443193 351.578251,299.533654 C361.540901,295.853909 368.707878,286.300132 368.707878,275.020511 L368.707878,220.588636 C368.707878,208.97001 361.093348,199.206666 350.652491,195.785798 L323.161707,123.232564 C318.434812,110.769508 304.339961,101 291.066645,101 L152.171973,101 C138.898658,101 124.797676,110.763344 120.070781,123.232564 L92.5861281,195.785798 C82.1452705,199.206666 74.5307403,208.963846 74.5307403,220.588636 L74.5307403,275.020511 C74.5307403,286.546681 82.0165225,296.242224 92.3163701,299.737057 C92.2550615,306.597286 91.2496002,314.3266 94.5725273,320.545801 C95.1549591,321.63678 95.8661391,322.635304 96.6263659,323.590682 C94.3089002,323.590682 91.9853036,323.590682 89.6678379,323.590682 C74.9169846,323.590682 60.1600004,323.590682 45.4030162,323.590682 C35.5384597,323.590682 35.526198,339 45.4030162,339 C149.713498,339 254.023979,339 358.33446,339 C373.085314,339 387.842298,339 402.599282,339 C412.457708,339 412.4761,323.590682 402.599282,323.590682 Z M324.68216,301.216352 L336.330798,301.216352 C336.70478,307.090384 337.961607,316.243519 330.506479,316.243519 C323.063613,316.243519 324.308178,307.078057 324.68216,301.216352 Z M134.392474,128.718281 C136.881604,122.160076 145.195053,116.403154 152.171973,116.403154 L291.066645,116.403154 C298.049697,116.403154 306.357015,122.160076 308.840014,128.718281 L333.725181,194.386631 L320.249547,194.386631 L303.769791,146.488307 C299.398487,133.778701 285.499823,123.824282 272.122283,123.824282 L171.122467,123.824282 C157.744926,123.824282 143.840132,133.772538 139.456566,146.469816 L122.903239,194.386631 L109.513437,194.386631 L134.392474,128.718281 Z M304.027287,194.386631 L139.125499,194.386631 L153.93153,151.524072 C156.193818,144.978194 164.225247,139.2336 171.122467,139.2336 L272.122283,139.2336 C279.013371,139.2336 287.032538,144.978194 289.282565,151.524072 L304.027287,194.386631 Z M89.8578946,220.582472 C89.8578946,214.634475 94.670621,209.79595 100.586903,209.79595 L342.651716,209.79595 C348.567998,209.79595 353.380724,214.634475 353.380724,220.582472 L353.380724,275.014347 C353.380724,280.962344 348.567998,285.80087 342.651716,285.80087 L100.586903,285.80087 C94.670621,285.80087 89.8578946,280.962344 89.8578946,275.014347 L89.8578946,220.582472 Z M113.394273,316.243519 C105.951407,316.243519 107.195972,307.08422 107.569954,301.216352 L119.218591,301.216352 C119.598705,307.090384 120.849401,316.243519 113.394273,316.243519 Z M132.216018,320.545801 C135.299842,314.764224 134.64997,307.688266 134.496699,301.216352 L309.410184,301.216352 C309.256912,307.694429 308.60091,314.770388 311.690864,320.545801 C312.273296,321.63678 312.984476,322.635304 313.744703,323.590682 C252.552572,323.590682 191.360441,323.590682 130.16831,323.590682 C130.922406,322.635304 131.633586,321.63678 132.216018,320.545801 Z" id="path-9"></path>
        <filter x="-0.8%" y="-1.3%" width="103.2%" height="105.0%" filterUnits="objectBoundingBox" id="filter-10">
            <feOffset dx="6" dy="6" in="SourceAlpha" result="shadowOffsetOuter1"></feOffset>
            <feColorMatrix values="0 0 0 0 0.917647059   0 0 0 0 0.937254902   0 0 0 0 0  0 0 0 1 0" type="matrix" in="shadowOffsetOuter1"></feColorMatrix>
        </filter>
    </defs>
    <g id="Page-1" stroke="none" stroke-width="1" fill="none" fill-rule="evenodd">
        <g id="010-car">
            <g id="Path">
                <use fill="black" fill-opacity="1" filter="url(#filter-2)" xlink:href="#path-1"></use>
                <use fill="#000000" fill-rule="evenodd" xlink:href="#path-1"></use>
            </g>
            <g id="Shape" fill-rule="nonzero">
                <use fill="black" fill-opacity="1" filter="url(#filter-4)" xlink:href="#path-3"></use>
                <use fill="#000000" xlink:href="#path-3"></use>
            </g>
            <g id="Shape" fill-rule="nonzero">
                <use fill="black" fill-opacity="1" filter="url(#filter-6)" xlink:href="#path-5"></use>
                <use fill="#000000" xlink:href="#path-5"></use>
            </g>
            <g id="Path">
                <use fill="black" fill-opacity="1" filter="url(#filter-8)" xlink:href="#path-7"></use>
                <use fill="#000000" fill-rule="evenodd" xlink:href="#path-7"></use>
            </g>
            <g id="Shape" fill-rule="nonzero">
                <use fill="black" fill-opacity="1" filter="url(#filter-10)" xlink:href="#path-9"></use>
                <use fill="#000000" xlink:href="#path-9"></use>
            </g>
        </g>
    </g>
</svg>