<?xml version="1.0" encoding="UTF-8"?>
<svg width="397px" height="397px" viewBox="0 0 397 397" version="1.1" xmlns="http://www.w3.org/2000/svg" xmlns:xlink="http://www.w3.org/1999/xlink">
    <!-- Generator: Sketch 52.6 (67491) - http://www.bohemiancoding.com/sketch -->
    <title>012-growing-seed</title>
    <desc>Created with Sketch.</desc>
    <defs>
        <path d="M271.104259,297.167133 C267.577453,296.235921 265.485225,292.654583 266.42979,289.165727 L271.55881,270.225772 C272.503375,266.740106 270.414371,263.158767 266.890789,262.224367 C263.370431,261.289966 259.746913,263.35968 258.802348,266.842157 L253.679775,285.782112 C250.849304,296.232732 257.116315,306.973559 267.67739,309.77995 C268.238326,309.926649 268.815381,309.999997 269.392436,309.999997 C272.706473,310.003187 275.50793,307.573106 275.943139,304.323432 C276.375124,301.073758 274.305463,298.00905 271.104259,297.160755 L271.104259,297.167133 Z" id="path-1"></path>
        <filter x="-13.0%" y="-6.3%" width="152.2%" height="125.0%" filterUnits="objectBoundingBox" id="filter-2">
            <feOffset dx="6" dy="6" in="SourceAlpha" result="shadowOffsetOuter1"></feOffset>
            <feColorMatrix values="0 0 0 0 0.917647059   0 0 0 0 0.937254902   0 0 0 0 0  0 0 0 1 0" type="matrix" in="shadowOffsetOuter1"></feColorMatrix>
        </filter>
        <path d="M389.255316,380.085319 C387.015419,377.628845 384.333269,375.617845 381.352042,374.147779 C376.862703,360.901273 364.457363,351.966326 350.473913,351.899505 L350.349829,351.899505 C349.099431,336.136069 339.194886,322.374087 324.641918,316.188354 C326.595464,312.802747 328.103577,309.17531 329.124894,305.404686 L347.67086,236.165209 C349.532138,229.212623 345.408691,222.06912 338.456738,220.204491 L319.560788,215.148354 L350.629816,99.1976844 C354.654631,98.5931121 358.529908,97.2439605 362.058382,95.2138688 C369.576674,90.9214032 375.058694,83.7906273 377.279502,75.4252513 L390.776155,25.0707138 C391.708384,21.5928303 389.643479,18.0194876 386.169093,17.0871731 L323.197438,0.222778212 C319.723052,-0.706354489 316.153216,1.35555644 315.220986,4.83025818 L307.995409,31.8069257 L301.692517,55.1911599 C298.304035,67.702631 302.694743,81.0318675 312.863367,89.0758657 L281.787976,205.074265 L262.892025,200.008583 C255.959161,198.163044 248.838578,202.264593 246.958211,209.185358 L228.421788,278.424836 C224.276069,293.987809 228.644506,310.581738 239.913988,322.084528 C234.734226,324.324629 230.216251,327.859787 226.799136,332.349535 C222.160257,330.488088 217.206394,329.533499 212.207987,329.533499 C195.917826,329.558955 181.221683,339.327577 174.883792,354.336888 C170.604442,352.739543 166.076923,351.915415 161.508041,351.899505 C160.941704,351.899505 160.40082,352.023602 159.831301,352.049057 L168.765436,267.182967 L175.933743,267.182967 C186.729156,267.182967 195.481937,258.429392 195.481937,247.632997 C195.481937,236.836603 186.729156,228.083027 175.933743,228.083027 L104.257033,228.083027 L104.257033,182.46643 L123.805227,182.46643 C156.178741,182.431428 182.414809,156.192975 182.449808,123.816519 C182.449808,120.21772 179.532214,117.299862 175.933743,117.299862 L149.869485,117.299862 C132.138026,117.303045 115.364251,125.347043 104.257033,139.169483 L104.257033,104.266549 L117.289162,104.266549 C142.468915,104.237911 162.872979,83.8319934 162.901614,58.6499513 C162.901614,55.0511528 159.984021,52.1332945 156.385549,52.1332945 C152.787078,52.1332945 149.869485,55.0511528 149.869485,58.6499513 C149.847213,76.6375783 135.275154,91.2109619 117.289162,91.233235 L104.909276,91.233235 C108.024133,76.0711896 121.361702,65.1825176 136.837356,65.166608 C140.435827,65.166608 143.35342,62.2487497 143.35342,58.6499513 C143.35342,55.0511528 140.435827,52.1332945 136.837356,52.1332945 C120.801728,52.1587502 105.959228,60.6036759 97.7409684,74.3752044 C89.522709,60.6036759 74.6802086,52.1587502 58.644581,52.1332945 L39.0963873,52.1332945 C35.4979159,52.1332945 32.5803228,55.0511528 32.5803228,58.6499513 C32.6089576,83.8319934 53.0130217,104.237911 78.1927747,104.266549 L91.2249038,104.266549 L91.2249038,139.169483 C80.1176861,125.347043 63.3439106,117.303045 45.6124519,117.299862 C42.0139805,117.299862 39.0963873,120.21772 39.0963873,123.816519 C39.0963873,127.415317 42.0139805,130.333176 45.6124519,130.333176 C68.2755028,130.364996 87.4928026,147.006653 90.7635616,169.433116 L71.6767101,169.433116 C46.4969572,169.404479 26.0928931,148.998561 26.0642582,123.816519 C26.0642582,120.21772 23.1466651,117.299862 19.5481937,117.299862 C15.9497223,117.299862 13.0321291,120.21772 13.0321291,123.816519 C13.0671277,156.192975 39.3031958,182.431428 71.6767101,182.46643 L91.2249038,182.46643 L91.2249038,228.083027 L19.5481937,228.083027 C8.75278028,228.083027 0,236.836603 0,247.632997 C0,258.429392 8.75278028,267.182967 19.5481937,267.182967 L26.7165008,267.182967 L39.1282037,385.135091 C39.4622798,388.463423 42.2653328,390.999446 45.6124519,390.999446 L129.592688,390.999446 C130.400833,390.993082 131.202614,390.830802 131.950307,390.525334 C132.198478,390.404419 132.437103,390.270777 132.666183,390.121224 C133.117981,389.888941 133.541143,389.605747 133.926126,389.271641 C134.145661,389.055267 134.349288,388.822984 134.537007,388.574791 C134.845629,388.215229 135.112889,387.820667 135.332425,387.40383 C135.478782,387.101543 135.599685,386.786529 135.698317,386.465151 C135.803312,386.242414 135.895581,386.013313 135.971941,385.781029 C137.651864,377.380651 143.369328,370.354881 151.25033,367.001094 C159.131333,363.650488 168.157736,364.404613 175.373769,369.018457 C177.193685,370.173509 179.462217,370.351699 181.441218,369.498933 C183.420217,368.646168 184.848788,366.870634 185.259224,364.757811 C187.779109,351.861322 199.070863,342.550903 212.207987,342.534994 C217.060038,342.563631 221.813455,343.89369 225.978264,346.385166 C227.550011,347.304753 229.436742,347.517945 231.177117,346.983375 C232.917492,346.445624 234.355607,345.204658 235.138298,343.559585 C238.262701,336.839282 244.94103,332.489541 252.347963,332.349535 C259.758077,332.21271 266.595491,336.307895 269.968064,342.907283 C271.113466,345.096472 273.401087,346.448806 275.873247,346.397894 C278.345406,346.346983 280.575758,344.902373 281.632073,342.665454 C287.699522,329.574865 302.398848,322.860927 316.264574,326.847924 C330.130302,330.834921 339.023076,344.329619 337.212704,358.645263 C336.95817,360.786724 337.779042,362.918637 339.411239,364.33461 C341.040256,365.750583 343.264245,366.269242 345.351422,365.715581 C350.508912,364.191422 356.070475,364.907363 360.674355,367.691579 C365.275053,370.475796 368.494904,375.067366 369.538493,380.346239 C370.028471,382.624523 371.70203,384.470061 373.922837,385.179639 C376.111828,385.89558 378.074919,387.171546 379.61803,388.88026 C382.048829,391.537198 386.172276,391.721751 388.82579,389.290733 C391.482486,386.862896 391.667023,382.739074 389.236225,380.085319 L389.255316,380.085319 Z M78.1927747,91.233235 C62.7171214,91.2173254 49.3795517,80.3286534 46.2646945,65.166608 L58.644581,65.166608 C74.1202343,65.1857002 87.4546225,76.0743714 90.5726612,91.233235 L78.1927747,91.233235 Z M149.869485,130.333176 L168.956336,130.333176 C165.685577,152.762821 146.468278,169.401297 123.805227,169.433116 L104.718375,169.433116 C107.989134,147.003471 127.206434,130.361814 149.869485,130.333176 Z M124.74382,377.966132 L51.4762739,377.966132 L39.8186271,267.182967 L104.257033,267.182967 C107.855504,267.182967 110.773097,264.265109 110.773097,260.666311 C110.773097,257.067512 107.855504,254.149654 104.257033,254.149654 L19.5481937,254.149654 C15.9497223,254.149654 13.0321291,251.231795 13.0321291,247.632997 C13.0321291,244.034199 15.9497223,241.11634 19.5481937,241.11634 L175.933743,241.11634 C179.532214,241.11634 182.449808,244.034199 182.449808,247.632997 C182.449808,251.231795 179.532214,254.149654 175.933743,254.149654 L143.35342,254.149654 C139.754949,254.149654 136.837356,257.067512 136.837356,260.666311 C136.837356,264.265109 139.754949,267.182967 143.35342,267.182967 L155.66331,267.182967 L146.411007,355.078285 C136.299653,359.335749 128.440923,367.637486 124.74382,377.966132 Z M326.089578,14.500238 L376.464994,28.0203922 L372.61517,42.3583094 L362.841073,39.7522829 C360.566178,39.0649792 358.097201,39.6727341 356.398187,41.3369 C354.699174,42.9978842 354.04375,45.4543575 354.683266,47.7453697 C355.322782,50.0332001 357.158607,51.7928245 359.471683,52.33694 L369.24578,54.9429666 L364.683262,72.0300984 C361.889754,82.4605679 351.167518,88.6494824 340.737997,85.8493565 L328.14812,82.4764775 C317.721781,79.6795341 311.53661,68.9595059 314.326936,58.5322189 L318.889455,41.4450871 L337.018622,46.307124 C340.486645,47.2171645 344.040573,45.1552536 344.966439,41.6900979 C345.895488,38.2249415 343.846491,34.6611448 340.384832,33.7161025 L322.265208,28.8636117 L326.089578,14.500238 Z M324.759639,95.0897721 L337.349516,98.4721972 L306.990001,211.791385 L294.403306,208.415324 L324.759639,95.0897721 Z M275.240094,328.486634 C270.935292,324.324629 265.561447,321.441771 259.716716,320.156259 C244.794674,313.81461 236.808676,297.462511 240.976667,281.794534 L259.528997,212.548692 L284.753293,219.291268 L309.923502,226.04339 L335.080984,232.789148 L316.538199,302.03499 C315.47552,305.97744 313.66833,309.681242 311.221624,312.949117 C310.190762,312.879114 309.166264,312.799565 308.119494,312.799565 C295.373715,312.844112 283.31836,318.60028 275.271911,328.486634 L275.240094,328.486634 Z" id="path-3"></path>
        <filter x="-0.8%" y="-0.8%" width="103.1%" height="103.1%" filterUnits="objectBoundingBox" id="filter-4">
            <feOffset dx="6" dy="6" in="SourceAlpha" result="shadowOffsetOuter1"></feOffset>
            <feColorMatrix values="0 0 0 0 0.917647059   0 0 0 0 0.937254902   0 0 0 0 0  0 0 0 1 0" type="matrix" in="shadowOffsetOuter1"></feColorMatrix>
        </filter>
    </defs>
    <g id="Page-1" stroke="none" stroke-width="1" fill="none" fill-rule="evenodd">
        <g id="012-growing-seed">
            <g id="Path">
                <use fill="black" fill-opacity="1" filter="url(#filter-2)" xlink:href="#path-1"></use>
                <use fill="#000000" fill-rule="evenodd" xlink:href="#path-1"></use>
            </g>
            <g id="Shape" fill-rule="nonzero">
                <use fill="black" fill-opacity="1" filter="url(#filter-4)" xlink:href="#path-3"></use>
                <use fill="#000000" xlink:href="#path-3"></use>
            </g>
        </g>
    </g>
</svg>