<?xml version="1.0" encoding="UTF-8"?>
<svg width="31px" height="18px" viewBox="0 0 31 18" version="1.1" xmlns="http://www.w3.org/2000/svg" xmlns:xlink="http://www.w3.org/1999/xlink">
    <!-- Generator: Sketch 51.3 (57544) - http://www.bohemiancoding.com/sketch -->
    <title>dumbbell</title>
    <desc>Created with Sketch.</desc>
    <defs>
        <filter x="-1.7%" y="-2.8%" width="106.7%" height="105.6%" filterUnits="objectBoundingBox" id="filter-1">
            <feOffset dx="1" dy="0" in="SourceAlpha" result="shadowOffsetOuter1"></feOffset>
            <feColorMatrix values="0 0 0 0 0.852333121   0 0 0 0 0.836844645   0 0 0 0 0.134253228  0 0 0 1 0" type="matrix" in="shadowOffsetOuter1" result="shadowMatrixOuter1"></feColorMatrix>
            <feMerge>
                <feMergeNode in="shadowMatrixOuter1"></feMergeNode>
                <feMergeNode in="SourceGraphic"></feMergeNode>
            </feMerge>
        </filter>
    </defs>
    <g id="Rental-View" stroke="none" stroke-width="1" fill="none" fill-rule="evenodd">
        <g id="Rental" transform="translate(-96.000000, -891.000000)" fill="#000000" fill-rule="nonzero">
            <g id="Group-2-Copy-11" transform="translate(75.000000, 793.000000)">
                <g id="Group-2" transform="translate(21.000000, 93.000000)">
                    <g id="dumbbell" filter="url(#filter-1)" transform="translate(0.000000, 5.000000)">
                        <path d="M28.0652113,6.35023256 L27.3861972,6.35023256 L27.3861972,4.40288372 C27.3861972,3.42209302 26.5804225,2.62381395 25.5904225,2.62381395 L24.3815493,2.62381395 L24.3815493,1.97204651 C24.3815493,0.991255814 23.5757746,0.192976744 22.5857746,0.192976744 L21.2526761,0.192976744 C20.2626761,0.192976744 19.4569014,0.991255814 19.4569014,1.97204651 L19.4569014,6.34311628 L10.343662,6.34311628 L10.343662,1.97204651 C10.343662,0.991255814 9.53788732,0.192976744 8.54788732,0.192976744 L7.21478873,0.192976744 C6.22478873,0.192976744 5.41901408,0.991255814 5.41901408,1.97204651 L5.41901408,3.18348837 L4.21056338,3.18348837 C3.22056338,3.18348837 2.41478873,3.98176744 2.41478873,4.96255814 L2.41478873,6.588 L1.73535211,6.588 C0.778732394,6.5875814 0,7.38586047 0,8.36665116 L0,9.67353488 C0,10.6543256 0.778732394,11.4526047 1.73535211,11.4526047 L2.4143662,11.4526047 L2.4143662,13.3999535 C2.4143662,14.3807442 3.22014085,15.1790233 4.21014085,15.1790233 L5.41859155,15.1790233 L5.41859155,15.8307907 C5.41859155,16.8115814 6.2243662,17.6098605 7.2143662,17.6098605 L8.54746479,17.6098605 C9.53746479,17.6098605 10.3432394,16.8115814 10.3432394,15.8307907 L10.3432394,11.2219535 L19.4564789,11.2219535 L19.4564789,15.8307907 C19.4564789,16.8115814 20.2622535,17.6098605 21.2522535,17.6098605 L22.5853521,17.6098605 C23.5753521,17.6098605 24.3811268,16.8115814 24.3811268,15.8307907 L24.3811268,14.6193488 L25.59,14.6193488 C26.58,14.6193488 27.3857746,13.8210698 27.3857746,12.8402791 L27.3857746,11.2152558 L28.0647887,11.2152558 C29.021831,11.2152558 29.8001408,10.4169767 29.8001408,9.43618605 L29.8001408,8.12930233 C29.8009859,7.14851163 29.0222535,6.35023256 28.0652113,6.35023256 Z M1.73535211,10.406093 C1.36098592,10.406093 1.05633803,10.0774884 1.05633803,9.67353488 L1.05633803,8.36665116 C1.05633803,7.96269767 1.36098592,7.63409302 1.73535211,7.63409302 L2.4143662,7.63409302 L2.4143662,10.406093 L1.73535211,10.406093 Z M4.21056338,14.1325116 C3.8028169,14.1325116 3.47112676,13.803907 3.47112676,13.3999535 L3.47112676,4.96213953 C3.47112676,4.55818605 3.8028169,4.2295814 4.21056338,4.2295814 L5.41901408,4.2295814 L5.41901408,14.132093 L4.21056338,14.132093 L4.21056338,14.1325116 Z M9.28732394,15.8307907 C9.28732394,16.2347442 8.9556338,16.5633488 8.54788732,16.5633488 L7.21478873,16.5633488 C6.80704225,16.5633488 6.47535211,16.2347442 6.47535211,15.8307907 L6.47535211,1.97204651 C6.47535211,1.56809302 6.80704225,1.23948837 7.21478873,1.23948837 L8.54788732,1.23948837 C8.9556338,1.23948837 9.28732394,1.56809302 9.28732394,1.97204651 L9.28732394,15.8307907 Z M10.343662,10.1754419 L10.343662,7.38962791 L19.4569014,7.38962791 L19.4569014,10.1754419 L10.343662,10.1754419 Z M23.3252113,15.8307907 C23.3252113,16.2347442 22.9935211,16.5633488 22.5857746,16.5633488 L21.2526761,16.5633488 C20.8449296,16.5633488 20.5132394,16.2347442 20.5132394,15.8307907 L20.5132394,1.97204651 C20.5132394,1.56809302 20.8449296,1.23948837 21.2526761,1.23948837 L22.5857746,1.23948837 C22.9935211,1.23948837 23.3252113,1.56809302 23.3252113,1.97204651 L23.3252113,15.8307907 Z M26.3298592,12.8402791 C26.3298592,13.2442326 25.998169,13.5728372 25.5904225,13.5728372 L24.3815493,13.5728372 L24.3815493,3.67032558 L25.5904225,3.67032558 C25.998169,3.67032558 26.3298592,3.99893023 26.3298592,4.40288372 L26.3298592,12.8402791 Z M28.7446479,9.43618605 C28.7446479,9.84013953 28.44,10.1687442 28.0656338,10.1687442 L27.3866197,10.1687442 L27.3866197,7.39674419 L28.0656338,7.39674419 C28.44,7.39674419 28.7446479,7.72534884 28.7446479,8.12930233 L28.7446479,9.43618605 Z" id="Shape"></path>
                    </g>
                </g>
            </g>
        </g>
    </g>
</svg>