<?xml version="1.0" encoding="UTF-8"?>
<svg width="38px" height="38px" viewBox="0 0 38 38" version="1.1" xmlns="http://www.w3.org/2000/svg" xmlns:xlink="http://www.w3.org/1999/xlink">
    <!-- Generator: Sketch 51.3 (57544) - http://www.bohemiancoding.com/sketch -->
    <title>if_instagram_386648</title>
    <desc>Created with Sketch.</desc>
    <defs></defs>
    <g id="Tools" stroke="none" stroke-width="1" fill="none" fill-rule="evenodd">
        <g id="Footer" transform="translate(-544.000000, -243.000000)" fill-rule="nonzero">
            <g id="Group-4" transform="translate(443.000000, 243.000000)">
                <g id="if_instagram_386648" transform="translate(101.000000, 0.000000)">
                    <rect id="rect2987" fill="#6D5B97" x="0" y="0" width="38" height="38" rx="3"></rect>
                    <path d="M26.7820446,5 L10.2181504,5 C7.3406763,5 5,7.34024013 5,10.2181665 L5,15.7292891 L5,26.7826097 C5,29.6598574 7.3406763,32 10.2181504,32 L26.7826296,32 C29.6597137,32 32,29.6598574 32,26.7826097 L32,15.7283156 L32,10.2164123 C31.999025,7.33936263 29.6593237,5 26.7820446,5 Z M28.3482037,8.00243404 L29,8 L29,8.64679013 L29,12.984084 L24.0170264,13 L24,8.01633907 L28.3482037,8.00243975 L28.3482037,8.00243404 Z M14.9453961,16.0839324 C15.8558456,14.8250644 17.3314528,14 18.9999408,14 C20.6684446,14 22.1445568,14.8250644 23.0531679,16.0839324 C23.6452713,16.9056139 24,17.9118053 24,18.9996934 C24,21.7566743 21.7549684,24 18.9993254,24 C16.2426566,24 14,21.7566743 14,18.9996934 C14.0010258,17.9118053 14.3541053,16.9056139 14.9453961,16.0839324 Z M29.9999013,27.3448176 C29.9999013,28.8101554 28.8256065,30 27.3820577,30 L10.618633,30 C9.17448454,30 8,28.8102555 8,27.3448176 L8,16 L12.0791464,16 C11.7266637,16.8786623 11.5287745,17.8384214 11.5287745,18.8443781 C11.5287745,23.0211993 14.8800856,26.4217522 19.0004402,26.4217522 C23.1209923,26.4217522 26.4719086,23.0211 26.4719086,18.8443781 C26.4719086,17.8383206 26.2726532,16.8786623 25.9207549,16 L30,16 L30,27.3448176 L29.9999013,27.3448176 Z" id="path9-6" fill="#FFFFFF"></path>
                </g>
            </g>
        </g>
    </g>
</svg>