<?xml version="1.0" encoding="UTF-8"?>
<svg width="389px" height="455px" viewBox="0 0 389 455" version="1.1" xmlns="http://www.w3.org/2000/svg" xmlns:xlink="http://www.w3.org/1999/xlink">
    <!-- Generator: Sketch 52.6 (67491) - http://www.bohemiancoding.com/sketch -->
    <title>005-washer</title>
    <desc>Created with Sketch.</desc>
    <defs>
        <path d="M147,32 C131.560847,32 119,44.5608466 119,60 C119,75.4400353 131.560847,88 147,88 C162.439153,88 175,75.4391534 175,60 C175.000882,44.5608466 162.440035,32 147,32 Z M147,74.7724868 C138.854497,74.7724868 132.227513,68.1455026 132.227513,60 C132.227513,51.8544974 138.854497,45.2275132 147,45.2275132 C155.145503,45.2275132 161.772487,51.8544974 161.772487,60 C161.772487,68.1455026 155.146384,74.7724868 147,74.7724868 Z" id="path-1"></path>
        <filter x="-5.4%" y="-5.4%" width="121.4%" height="121.4%" filterUnits="objectBoundingBox" id="filter-2">
            <feOffset dx="6" dy="6" in="SourceAlpha" result="shadowOffsetOuter1"></feOffset>
            <feColorMatrix values="0 0 0 0 0.917647059   0 0 0 0 0.937254902   0 0 0 0 0  0 0 0 1 0" type="matrix" in="shadowOffsetOuter1"></feColorMatrix>
        </filter>
        <path d="M71,32 C55.5608466,32 43,44.5608466 43,60 C43,75.4400353 55.5608466,88 71,88 C86.4391534,88 99,75.4391534 99,60 C99,44.5608466 86.4391534,32 71,32 Z M71,74.7724868 C62.8544974,74.7724868 56.2275132,68.1455026 56.2275132,60 C56.2275132,51.8544974 62.8544974,45.2275132 71,45.2275132 C79.1455026,45.2275132 85.7724868,51.8544974 85.7724868,60 C85.7724868,68.1455026 79.1455026,74.7724868 71,74.7724868 Z" id="path-3"></path>
        <filter x="-5.4%" y="-5.4%" width="121.4%" height="121.4%" filterUnits="objectBoundingBox" id="filter-4">
            <feOffset dx="6" dy="6" in="SourceAlpha" result="shadowOffsetOuter1"></feOffset>
            <feColorMatrix values="0 0 0 0 0.917647059   0 0 0 0 0.937254902   0 0 0 0 0  0 0 0 1 0" type="matrix" in="shadowOffsetOuter1"></feColorMatrix>
        </filter>
        <path d="M312.954816,32 L237.045184,32 C228.749126,32 222,38.7635619 222,47.077364 L222,72.922636 C222,81.2364381 228.749126,88 237.045184,88 L312.954816,88 C321.250874,88 328,81.2364381 328,72.922636 L328,47.077364 C328,38.7635619 321.250874,32 312.954816,32 Z M314.800926,72.922636 C314.800926,73.9429021 313.972905,74.7726951 312.954816,74.7726951 L237.045184,74.7726951 C236.027095,74.7726951 235.199074,73.9429021 235.199074,72.922636 L235.199074,47.077364 C235.199074,46.0570979 236.027095,45.2273049 237.045184,45.2273049 L312.954816,45.2273049 C313.972905,45.2273049 314.800926,46.0570979 314.800926,47.077364 L314.800926,72.922636 Z" id="path-5"></path>
        <filter x="-2.8%" y="-5.4%" width="111.3%" height="121.4%" filterUnits="objectBoundingBox" id="filter-6">
            <feOffset dx="6" dy="6" in="SourceAlpha" result="shadowOffsetOuter1"></feOffset>
            <feColorMatrix values="0 0 0 0 0.917647059   0 0 0 0 0.937254902   0 0 0 0 0  0 0 0 1 0" type="matrix" in="shadowOffsetOuter1"></feColorMatrix>
        </filter>
        <path d="M191.000878,135 C163.999347,135 138.450456,143.706179 117.117289,160.178491 C114.239221,162.400019 113.708196,166.534115 115.929724,169.412184 C118.15213,172.290252 122.286226,172.821277 125.163417,170.599749 C144.171483,155.923268 166.937101,148.165912 191.000878,148.165912 C250.460771,148.165912 298.834965,196.540107 298.834965,256 C298.834965,315.459893 250.460771,363.834088 191.000878,363.834088 C131.540985,363.834088 83.16679,315.459015 83.16679,256 C83.16679,231.250718 91.7650084,207.073715 107.377147,187.920823 C109.67416,185.10244 109.251973,180.956056 106.43359,178.659043 C103.615207,176.36203 99.4688225,176.784217 97.1718097,179.601722 C79.6506137,201.09639 70,228.228702 70,256 C70,322.719577 124.280423,377 191,377 C257.719577,377 312,322.719577 312,256 C312,189.280423 257.720455,135 191.000878,135 Z" id="path-7"></path>
        <filter x="-1.2%" y="-1.2%" width="105.0%" height="105.0%" filterUnits="objectBoundingBox" id="filter-8">
            <feOffset dx="6" dy="6" in="SourceAlpha" result="shadowOffsetOuter1"></feOffset>
            <feColorMatrix values="0 0 0 0 0.917647059   0 0 0 0 0.937254902   0 0 0 0 0  0 0 0 1 0" type="matrix" in="shadowOffsetOuter1"></feColorMatrix>
        </filter>
        <path d="M382.992931,397.942035 L382.992931,50.549332 C382.992931,22.6762539 360.310558,0 332.430909,0 L50.5620224,0 C22.6823731,0 0,22.6762539 0,50.549332 L0,398.460314 C0,426.328131 22.6823731,449 50.5611451,449 L332.430032,449 C360.059643,449 382.570938,426.728898 382.972753,399.204848 C383.001705,398.960178 383.006091,398.113918 382.992931,397.942035 Z M369.833049,391.882289 L315.35991,391.882289 C311.726028,391.882289 308.779969,394.827098 308.779969,398.459438 C308.779969,402.091777 311.726028,405.036586 315.35991,405.036586 L369.254014,405.036586 C366.135122,422.526539 350.810001,435.845703 332.430909,435.845703 L50.5620224,435.845703 C32.1829308,435.845703 16.8578092,422.526539 13.7397944,405.037463 L289.039268,405.037463 C292.67315,405.037463 295.619209,402.092654 295.619209,398.460314 C295.619209,394.827975 292.67315,391.883166 289.039268,391.883166 L13.1607596,391.883166 L13.1607596,119.051648 L369.833049,119.051648 L369.833049,391.882289 Z M369.833049,105.898229 L13.1598823,105.898229 L13.1598823,50.549332 C13.1598823,29.9295332 29.9387322,13.1542969 50.5620224,13.1542969 L332.430909,13.1542969 C353.054199,13.1542969 369.833049,29.9295332 369.833049,50.549332 L369.833049,105.898229 Z" id="path-9"></path>
        <filter x="-0.8%" y="-0.7%" width="103.1%" height="102.7%" filterUnits="objectBoundingBox" id="filter-10">
            <feOffset dx="6" dy="6" in="SourceAlpha" result="shadowOffsetOuter1"></feOffset>
            <feColorMatrix values="0 0 0 0 0.917647059   0 0 0 0 0.937254902   0 0 0 0 0  0 0 0 1 0" type="matrix" in="shadowOffsetOuter1"></feColorMatrix>
        </filter>
        <path d="M190.500439,165 C140.598402,165 100,205.598599 100,255.5 C100.000879,259.890866 100.316331,264.28349 100.939326,268.553975 C100.939326,268.557489 100.941084,268.560125 100.941084,268.56364 C104.022671,289.880036 114.698831,309.460119 131.007433,323.697703 C147.480351,338.079394 168.608602,346 190.499561,346 C212.39052,346 233.518771,338.079394 249.992567,323.697703 C266.299412,309.460997 276.975571,289.88355 280.058038,268.568034 C280.058916,268.56364 280.059795,268.559247 280.060674,268.554853 C280.683669,264.287884 281,259.89526 281,255.5 C281,205.59772 240.401598,165 190.500439,165 Z M241.324229,313.768387 C227.251909,326.053499 209.20261,332.819493 190.499561,332.819493 C171.796511,332.819493 153.747212,326.053499 139.675771,313.768387 C126.764208,302.496417 117.983397,287.313351 114.669834,270.666371 L118.732925,267.9011 C125.523489,263.280893 134.712895,263.277378 141.507852,267.9011 C152.727046,275.53525 167.889828,275.537007 179.111658,267.9011 C185.891678,263.290559 195.106565,263.287044 201.886585,267.9011 C213.110172,275.537886 228.267682,275.536129 239.493905,267.899343 C246.300286,263.26947 255.462452,263.266834 262.264439,267.900221 L266.328409,270.666371 C263.016603,287.312473 254.23667,302.496417 241.324229,313.768387 Z M267.818678,255.821604 C267.772107,255.794365 267.7229,255.77064 267.67545,255.7434 C264.137819,253.685483 260.271556,252.361282 256.248006,251.653928 C251.212198,250.768198 245.909266,251.180308 241.031623,252.685522 C237.851622,253.667031 234.825392,255.130067 232.075951,257.003457 C225.279236,261.628057 216.088952,261.621028 209.301024,257.003457 C203.729211,253.212743 197.227738,251.208427 190.499561,251.208427 C183.813561,251.208427 177.224218,253.243497 171.697219,257.002578 C164.88908,261.633329 155.726915,261.630693 148.922291,257.002578 C143.350478,253.211864 136.849005,251.207548 130.120828,251.207548 C124.281892,251.207548 118.364751,252.782179 113.323671,255.744279 C113.2771,255.771518 113.227893,255.794365 113.181322,255.821604 C113.180443,255.713524 113.180443,255.606323 113.180443,255.498243 C113.181322,212.865452 147.866098,178.179629 190.500439,178.179629 C233.13478,178.179629 267.819557,212.865452 267.819557,255.499121 C267.819557,255.606323 267.819557,255.714403 267.818678,255.821604 Z" id="path-11"></path>
        <filter x="-1.7%" y="-1.7%" width="106.6%" height="106.6%" filterUnits="objectBoundingBox" id="filter-12">
            <feOffset dx="6" dy="6" in="SourceAlpha" result="shadowOffsetOuter1"></feOffset>
            <feColorMatrix values="0 0 0 0 0.917647059   0 0 0 0 0.937254902   0 0 0 0 0  0 0 0 1 0" type="matrix" in="shadowOffsetOuter1"></feColorMatrix>
        </filter>
    </defs>
    <g id="Page-1" stroke="none" stroke-width="1" fill="none" fill-rule="evenodd">
        <g id="005-washer">
            <g id="Shape" fill-rule="nonzero">
                <use fill="black" fill-opacity="1" filter="url(#filter-2)" xlink:href="#path-1"></use>
                <use fill="#000000" xlink:href="#path-1"></use>
            </g>
            <g id="Shape" fill-rule="nonzero">
                <use fill="black" fill-opacity="1" filter="url(#filter-4)" xlink:href="#path-3"></use>
                <use fill="#000000" xlink:href="#path-3"></use>
            </g>
            <g id="Shape" fill-rule="nonzero">
                <use fill="black" fill-opacity="1" filter="url(#filter-6)" xlink:href="#path-5"></use>
                <use fill="#000000" xlink:href="#path-5"></use>
            </g>
            <g id="Path">
                <use fill="black" fill-opacity="1" filter="url(#filter-8)" xlink:href="#path-7"></use>
                <use fill="#000000" fill-rule="evenodd" xlink:href="#path-7"></use>
            </g>
            <g id="Shape" fill-rule="nonzero">
                <use fill="black" fill-opacity="1" filter="url(#filter-10)" xlink:href="#path-9"></use>
                <use fill="#000000" xlink:href="#path-9"></use>
            </g>
            <g id="Shape" fill-rule="nonzero">
                <use fill="black" fill-opacity="1" filter="url(#filter-12)" xlink:href="#path-11"></use>
                <use fill="#000000" xlink:href="#path-11"></use>
            </g>
        </g>
    </g>
</svg>