<?xml version="1.0" encoding="UTF-8"?>
<svg width="518px" height="415px" viewBox="0 0 518 415" version="1.1" xmlns="http://www.w3.org/2000/svg" xmlns:xlink="http://www.w3.org/1999/xlink">
    <!-- Generator: Sketch 52.6 (67491) - http://www.bohemiancoding.com/sketch -->
    <title>015-lounge</title>
    <desc>Created with Sketch.</desc>
    <defs>
        <path d="M489.5,364 L468.710938,364 C469.542969,361.652344 470,359.128906 470,356.5 L470,276.5 C470,272.355469 466.640625,269 462.5,269 C458.359375,269 455,272.355469 455,276.5 L455,356.5 C455,360.636719 451.636719,364 447.5,364 C443.363281,364 440,360.636719 440,356.5 L440,241 L455,241 L455,244.5 C455,248.644531 458.359375,252 462.5,252 C466.640625,252 470,248.644531 470,244.5 L470,240.992188 L489.5,240.992188 C501.90625,240.992188 512,230.898438 512,218.492188 C512,206.085938 501.90625,195.992188 489.5,195.992188 L470,195.992188 L470,167.5 C470,161.160156 464.839844,156 458.5,156 L406.5,156 C400.160156,156 395,161.160156 395,167.5 L395,195.992188 L365.296875,195.992188 L365.296875,165.339844 C377.976562,162.5625 387.5,151.246094 387.5,137.742188 L387.5,98.5 C387.5,94.355469 384.140625,91 380,91 L336,91 C331.859375,91 328.5,94.355469 328.5,98.5 L328.5,137.742188 C328.5,151.101562 337.820312,162.316406 350.296875,165.246094 L350.296875,195.992188 L309.5,195.992188 C297.09375,195.992188 287,206.085938 287,218.492188 C287,230.898438 297.09375,240.992188 309.5,240.992188 L329,240.992188 L329,356.5 C329,359.128906 329.457031,361.652344 330.289062,364 L242.710938,364 C243.542969,361.652344 244,359.128906 244,356.5 L244,349 L249.5,349 C267.972656,349 283,333.972656 283,315.5 L283,247.5 C283,229.027344 267.972656,214 249.5,214 L246.566406,214 C259.679688,202.679688 268,185.957031 268,167.320312 L268,61.679688 C268,27.671875 240.332031,0 206.320312,0 L76.679688,0 C66.589844,0 56.574219,2.492188 47.71875,7.210938 C44.0625,9.15625 42.675781,13.699219 44.625,17.355469 C46.570312,21.011719 51.113281,22.398438 54.769531,20.449219 C61.464844,16.886719 69.039062,15 76.679688,15 L206.320312,15 C232.0625,15 253,35.941406 253,61.683594 L253,167.320312 C253,193.0625 232.0625,214.003906 206.320312,214.003906 L76.679688,214.003906 C50.941406,214 30,193.058594 30,167.320312 L30,61.679688 C30,54.039062 31.882812,46.464844 35.449219,39.773438 C37.394531,36.117188 36.011719,31.574219 32.355469,29.628906 C28.699219,27.679688 24.15625,29.0625 22.210938,32.722656 C17.492188,41.574219 15,51.589844 15,61.679688 L15,167.320312 C15,185.960938 23.320312,202.679688 36.433594,214 L33.5,214 C15.027344,214 0,229.027344 0,247.5 L0,315.5 C0,333.972656 15.027344,349 33.5,349 L39,349 L39,356.5 C39,359.128906 39.457031,361.652344 40.289062,364 L22.5,364 C10.09375,364 0,374.09375 0,386.5 C0,398.90625 10.09375,409 22.5,409 L489.5,409 C501.90625,409 512,398.90625 512,386.5 C512,374.09375 501.90625,364 489.5,364 Z M343.5,137.742188 L343.5,106 L372.5,106 L372.5,137.742188 C372.5,145.054688 366.554688,151 359.246094,151 L356.757812,151 C349.445312,151 343.5,145.054688 343.5,137.742188 Z M410,171 L455,171 L455,195.992188 L410,195.992188 L410,171 Z M302,218.492188 C302,214.355469 305.363281,210.992188 309.5,210.992188 L489.5,210.992188 C493.636719,210.992188 497,214.355469 497,218.492188 C497,222.628906 493.636719,225.992188 489.5,225.992188 L309.5,225.992188 C305.363281,225.992188 302,222.628906 302,218.492188 Z M425,240.992188 L425,356.5 C425,359.128906 425.457031,361.652344 426.289062,364 L372.710938,364 C373.542969,361.652344 374,359.128906 374,356.5 L374,240.992188 L425,240.992188 Z M344,356.5 L344,241 L359,241 L359,356.5 C359,360.636719 355.636719,364 351.5,364 C347.363281,364 344,360.636719 344,356.5 Z M229,356.5 C229,360.636719 225.636719,364 221.5,364 C217.363281,364 214,360.636719 214,356.5 L214,349 L229,349 L229,356.5 Z M15,315.5 L15,247.5 C15,237.300781 23.300781,229 33.5,229 L249.5,229 C259.699219,229 268,237.300781 268,247.5 L268,315.5 C268,325.699219 259.699219,334 249.5,334 L192.375,334 C188.234375,334 184.875,337.355469 184.875,341.5 C184.875,345.644531 188.234375,349 192.375,349 L199,349 L199,356.5 C199,359.128906 199.457031,361.652344 200.289062,364 L82.710938,364 C83.542969,361.652344 84,359.128906 84,356.5 L84,349 L160.21875,349 C164.359375,349 167.71875,345.644531 167.71875,341.5 C167.71875,337.355469 164.359375,334 160.21875,334 L33.5,334 C23.300781,334 15,325.699219 15,315.5 Z M54,356.5 L54,349 L69,349 L69,356.5 C69,360.636719 65.636719,364 61.5,364 C57.363281,364 54,360.636719 54,356.5 Z M489.5,394 L22.5,394 C18.363281,394 15,390.636719 15,386.5 C15,382.363281 18.363281,379 22.5,379 L489.5,379 C493.636719,379 497,382.363281 497,386.5 C497,390.636719 493.636719,394 489.5,394 Z" id="path-1"></path>
        <filter x="-0.6%" y="-0.7%" width="102.3%" height="102.9%" filterUnits="objectBoundingBox" id="filter-2">
            <feOffset dx="6" dy="6" in="SourceAlpha" result="shadowOffsetOuter1"></feOffset>
            <feColorMatrix values="0 0 0 0 0.917647059   0 0 0 0 0.937254902   0 0 0 0 0  0 0 0 1 0" type="matrix" in="shadowOffsetOuter1"></feColorMatrix>
        </filter>
        <path d="M141.5,92 C137.359375,92 134,95.355469 134,99.5 L134,107 L126.5,107 C122.359375,107 119,110.355469 119,114.5 C119,118.644531 122.359375,122 126.5,122 L134,122 L134,129.5 C134,133.644531 137.359375,137 141.5,137 C145.640625,137 149,133.644531 149,129.5 L149,122 L156.5,122 C160.640625,122 164,118.644531 164,114.5 C164,110.355469 160.640625,107 156.5,107 L149,107 L149,99.5 C149,95.355469 145.640625,92 141.5,92 Z" id="path-3"></path>
        <filter x="-6.7%" y="-6.7%" width="126.7%" height="126.7%" filterUnits="objectBoundingBox" id="filter-4">
            <feOffset dx="6" dy="6" in="SourceAlpha" result="shadowOffsetOuter1"></feOffset>
            <feColorMatrix values="0 0 0 0 0.917647059   0 0 0 0 0.937254902   0 0 0 0 0  0 0 0 1 0" type="matrix" in="shadowOffsetOuter1"></feColorMatrix>
        </filter>
        <path d="M79.5,33 C75.359375,33 72,36.355469 72,40.5 L72,48 L64.5,48 C60.359375,48 57,51.355469 57,55.5 C57,59.644531 60.359375,63 64.5,63 L72,63 L72,70.5 C72,74.644531 75.359375,78 79.5,78 C83.640625,78 87,74.644531 87,70.5 L87,63 L94.5,63 C98.640625,63 102,59.644531 102,55.5 C102,51.355469 98.640625,48 94.5,48 L87,48 L87,40.5 C87,36.355469 83.640625,33 79.5,33 Z" id="path-5"></path>
        <filter x="-6.7%" y="-6.7%" width="126.7%" height="126.7%" filterUnits="objectBoundingBox" id="filter-6">
            <feOffset dx="6" dy="6" in="SourceAlpha" result="shadowOffsetOuter1"></feOffset>
            <feColorMatrix values="0 0 0 0 0.917647059   0 0 0 0 0.937254902   0 0 0 0 0  0 0 0 1 0" type="matrix" in="shadowOffsetOuter1"></feColorMatrix>
        </filter>
        <path d="M202.5,33 C198.359375,33 195,36.355469 195,40.5 L195,48 L187.5,48 C183.359375,48 180,51.355469 180,55.5 C180,59.644531 183.359375,63 187.5,63 L195,63 L195,70.5 C195,74.644531 198.359375,78 202.5,78 C206.640625,78 210,74.644531 210,70.5 L210,63 L217.5,63 C221.640625,63 225,59.644531 225,55.5 C225,51.355469 221.640625,48 217.5,48 L210,48 L210,40.5 C210,36.355469 206.640625,33 202.5,33 Z" id="path-7"></path>
        <filter x="-6.7%" y="-6.7%" width="126.7%" height="126.7%" filterUnits="objectBoundingBox" id="filter-8">
            <feOffset dx="6" dy="6" in="SourceAlpha" result="shadowOffsetOuter1"></feOffset>
            <feColorMatrix values="0 0 0 0 0.917647059   0 0 0 0 0.937254902   0 0 0 0 0  0 0 0 1 0" type="matrix" in="shadowOffsetOuter1"></feColorMatrix>
        </filter>
        <path d="M64.5,179 L72,179 L72,186.5 C72,190.644531 75.359375,194 79.5,194 C83.640625,194 87,190.644531 87,186.5 L87,179 L94.5,179 C98.640625,179 102,175.644531 102,171.5 C102,167.355469 98.640625,164 94.5,164 L87,164 L87,156.5 C87,152.355469 83.640625,149 79.5,149 C75.359375,149 72,152.355469 72,156.5 L72,164 L64.5,164 C60.359375,164 57,167.355469 57,171.5 C57,175.644531 60.359375,179 64.5,179 Z" id="path-9"></path>
        <filter x="-6.7%" y="-6.7%" width="126.7%" height="126.7%" filterUnits="objectBoundingBox" id="filter-10">
            <feOffset dx="6" dy="6" in="SourceAlpha" result="shadowOffsetOuter1"></feOffset>
            <feColorMatrix values="0 0 0 0 0.917647059   0 0 0 0 0.937254902   0 0 0 0 0  0 0 0 1 0" type="matrix" in="shadowOffsetOuter1"></feColorMatrix>
        </filter>
        <path d="M187.5,179 L195,179 L195,186.5 C195,190.644531 198.359375,194 202.5,194 C206.640625,194 210,190.644531 210,186.5 L210,179 L217.5,179 C221.640625,179 225,175.644531 225,171.5 C225,167.355469 221.640625,164 217.5,164 L210,164 L210,156.5 C210,152.355469 206.640625,149 202.5,149 C198.359375,149 195,152.355469 195,156.5 L195,164 L187.5,164 C183.359375,164 180,167.355469 180,171.5 C180,175.644531 183.359375,179 187.5,179 Z" id="path-11"></path>
        <filter x="-6.7%" y="-6.7%" width="126.7%" height="126.7%" filterUnits="objectBoundingBox" id="filter-12">
            <feOffset dx="6" dy="6" in="SourceAlpha" result="shadowOffsetOuter1"></feOffset>
            <feColorMatrix values="0 0 0 0 0.917647059   0 0 0 0 0.937254902   0 0 0 0 0  0 0 0 1 0" type="matrix" in="shadowOffsetOuter1"></feColorMatrix>
        </filter>
    </defs>
    <g id="Page-1" stroke="none" stroke-width="1" fill="none" fill-rule="evenodd">
        <g id="015-lounge">
            <g id="Shape" fill-rule="nonzero">
                <use fill="black" fill-opacity="1" filter="url(#filter-2)" xlink:href="#path-1"></use>
                <use fill="#000000" xlink:href="#path-1"></use>
            </g>
            <g id="Path">
                <use fill="black" fill-opacity="1" filter="url(#filter-4)" xlink:href="#path-3"></use>
                <use fill="#000000" fill-rule="evenodd" xlink:href="#path-3"></use>
            </g>
            <g id="Path">
                <use fill="black" fill-opacity="1" filter="url(#filter-6)" xlink:href="#path-5"></use>
                <use fill="#000000" fill-rule="evenodd" xlink:href="#path-5"></use>
            </g>
            <g id="Path">
                <use fill="black" fill-opacity="1" filter="url(#filter-8)" xlink:href="#path-7"></use>
                <use fill="#000000" fill-rule="evenodd" xlink:href="#path-7"></use>
            </g>
            <g id="Path">
                <use fill="black" fill-opacity="1" filter="url(#filter-10)" xlink:href="#path-9"></use>
                <use fill="#000000" fill-rule="evenodd" xlink:href="#path-9"></use>
            </g>
            <g id="Path">
                <use fill="black" fill-opacity="1" filter="url(#filter-12)" xlink:href="#path-11"></use>
                <use fill="#000000" fill-rule="evenodd" xlink:href="#path-11"></use>
            </g>
        </g>
    </g>
</svg>