<?xml version="1.0" encoding="UTF-8"?>
<svg width="570px" height="416px" viewBox="0 0 570 416" version="1.1" xmlns="http://www.w3.org/2000/svg" xmlns:xlink="http://www.w3.org/1999/xlink">
    <!-- Generator: Sketch 52.6 (67491) - http://www.bohemiancoding.com/sketch -->
    <title>023-park</title>
    <desc>Created with Sketch.</desc>
    <defs>
        <filter x="-2.2%" y="-3.0%" width="105.4%" height="107.5%" filterUnits="objectBoundingBox" id="filter-1">
            <feOffset dx="0" dy="2" in="SourceAlpha" result="shadowOffsetOuter1"></feOffset>
            <feGaussianBlur stdDeviation="2" in="shadowOffsetOuter1" result="shadowBlurOuter1"></feGaussianBlur>
            <feColorMatrix values="0 0 0 0 0   0 0 0 0 0   0 0 0 0 0  0 0 0 0.5 0" type="matrix" in="shadowBlurOuter1" result="shadowMatrixOuter1"></feColorMatrix>
            <feMerge>
                <feMergeNode in="shadowMatrixOuter1"></feMergeNode>
                <feMergeNode in="SourceGraphic"></feMergeNode>
            </feMerge>
        </filter>
        <path d="M546.993521,384 L488.75162,384 L488.75162,305.1756 C510.613348,301.1712 527.179266,282.8904 527.179266,261 C527.179266,249.9252 522.745676,222.3408 515.582523,197.0904 C505.307931,160.8696 493.921339,144 479.74514,144 C465.568942,144 454.18235,160.8696 443.907758,197.0904 C436.744605,222.3408 432.311015,249.9252 432.311015,261 C432.311015,282.8916 448.876933,301.1724 470.738661,305.1756 L470.738661,384 L411.896328,384 L411.896328,160.5192 C423.052354,156.7536 431.110151,146.2032 431.110151,133.8 L431.110151,95.4 C431.110151,90.4296 427.078851,86.4 422.103672,86.4 L411.896328,86.4 L411.896328,75.6 L431.710583,75.6 C436.685762,75.6 440.717063,71.5704 440.717063,66.6 C440.717063,61.6296 436.685762,57.6 431.710583,57.6 L374.069114,57.6 C369.093935,57.6 365.062635,61.6296 365.062635,66.6 C365.062635,71.5704 369.093935,75.6 374.069114,75.6 L393.883369,75.6 L393.883369,86.4 L383.676026,86.4 C378.700847,86.4 374.669546,90.4296 374.669546,95.4 L374.669546,133.8 C374.669546,146.2032 382.727343,156.7536 393.883369,160.5192 L393.883369,384 L362.394315,384 L356.274713,354 L364.461002,354 C369.436181,354 373.467482,349.9704 373.467482,345 C373.467482,340.0296 369.436181,336 364.461002,336 L345.325235,336 C345.285607,336 345.245978,336 345.205149,336 L344.647948,336 L344.647948,315.6 L354.855292,315.6 C359.830471,315.6 363.861771,311.5704 363.861771,306.6 C363.861771,301.6296 359.830471,297.6 354.855292,297.6 L344.647948,297.6 L344.647948,286.8 L354.855292,286.8 C359.830471,286.8 363.861771,282.7704 363.861771,277.8 C363.861771,272.8296 359.830471,268.8 354.855292,268.8 L181.930886,268.8 C176.955706,268.8 172.924406,272.8296 172.924406,277.8 C172.924406,282.7704 176.955706,286.8 181.930886,286.8 L192.138229,286.8 L192.138229,297.6 L181.930886,297.6 C176.955706,297.6 172.924406,301.6296 172.924406,306.6 C172.924406,311.5704 176.955706,315.6 181.930886,315.6 L192.138229,315.6 L192.138229,336 L191.571421,336 C191.537797,336 191.505374,336 191.471749,336 L172.323974,336 C167.348795,336 163.317495,340.0296 163.317495,345 C163.317495,349.9704 167.348795,354 172.323974,354 L180.510263,354 L174.390661,384 L104.475162,384 L104.475162,295.8504 C142.290367,291.3816 171.723542,259.17 171.723542,220.2 C171.723542,152.5908 106.41816,11.1972 103.63816,5.2116 C102.162298,2.0328 98.9752052,0 95.4686825,0 C91.9621598,0 88.775067,2.0328 87.2992052,5.2116 C84.5192052,11.1972 19.2138229,152.5908 19.2138229,220.2 C19.2138229,259.17 48.6469978,291.3816 86.462203,295.8504 L86.462203,384 L9.00647948,384 C4.03130022,384 0,388.0296 0,393 C0,397.9704 4.03130022,402 9.00647948,402 L546.993521,402 C551.9687,402 556,397.9704 556,393 C556,388.0296 551.9687,384 546.993521,384 Z M450.323974,261 C450.323974,252.9744 453.852112,228.9576 460.473676,204.7428 C470.105806,169.5192 478.20203,163.0548 479.74514,162.1116 C481.288251,163.0548 489.383274,169.5192 499.016605,204.7428 C505.639369,228.9588 509.166307,252.9744 509.166307,261 C509.166307,273.006 500.58133,283.2012 488.75162,286.7004 L488.75162,268.2 C488.75162,263.2296 484.72032,259.2 479.74514,259.2 C474.769961,259.2 470.738661,263.2296 470.738661,268.2 L470.738661,286.7004 C458.90895,283.2012 450.323974,273.006 450.323974,261 Z M392.682505,104.4 L413.097192,104.4 L413.097192,133.8 C413.097192,139.4244 408.518298,144 402.889849,144 C397.2614,144 392.682505,139.4244 392.682505,133.8 L392.682505,104.4 Z M37.2267819,220.2 C37.2267819,170.2476 77.7187127,71.8416 95.4686825,31.1052 C113.218652,71.8416 153.710583,170.2476 153.710583,220.2 C153.710583,249.2316 132.328,273.3624 104.475162,277.7016 L104.475162,249.006 C104.475162,249.0024 104.475162,248.9976 104.475162,248.994 L104.475162,223.9284 L130.658799,197.7636 C134.17613,194.2488 134.17613,188.55 130.658799,185.0364 C127.140268,181.5216 121.438566,181.5216 117.921235,185.0364 L104.475162,198.4716 L104.475162,181.8 C104.475162,176.8296 100.443862,172.8 95.4686825,172.8 C90.4935032,172.8 86.462203,176.8296 86.462203,181.8 L86.462203,220.194 C86.462203,220.1976 86.462203,220.2024 86.462203,220.206 L86.462203,227.2716 L73.0173305,213.8364 C69.4987991,210.3216 63.7970972,210.3216 60.2797667,213.8364 C56.7624363,217.3512 56.7624363,223.05 60.2797667,226.5636 L86.462203,252.7284 L86.462203,277.7016 C58.609365,273.3624 37.2267819,249.2316 37.2267819,220.2 Z M210.151188,286.8 L326.634989,286.8 L326.634989,297.6 L210.151188,297.6 L210.151188,286.8 Z M210.151188,315.6 L326.634989,315.6 L326.634989,336 L210.151188,336 L210.151188,315.6 Z M198.893089,354 L337.893089,354 L344.01149,384 L192.774687,384 L198.893089,354 Z" id="path-2"></path>
        <filter x="-0.5%" y="-0.7%" width="102.2%" height="103.0%" filterUnits="objectBoundingBox" id="filter-3">
            <feOffset dx="6" dy="6" in="SourceAlpha" result="shadowOffsetOuter1"></feOffset>
            <feColorMatrix values="0 0 0 0 0.917647059   0 0 0 0 0.937254902   0 0 0 0 0  0 0 0 1 0" type="matrix" in="shadowOffsetOuter1"></feColorMatrix>
        </filter>
    </defs>
    <g id="Page-1" stroke="none" stroke-width="1" fill="none" fill-rule="evenodd">
        <g id="023-park" filter="url(#filter-1)" transform="translate(4.000000, 2.000000)" fill-rule="nonzero">
            <g id="Shape">
                <use fill="black" fill-opacity="1" filter="url(#filter-3)" xlink:href="#path-2"></use>
                <use fill="#000000" xlink:href="#path-2"></use>
            </g>
        </g>
    </g>
</svg>