<?xml version="1.0" encoding="UTF-8"?>
<svg width="450px" height="450px" viewBox="0 0 450 450" version="1.1" xmlns="http://www.w3.org/2000/svg" xmlns:xlink="http://www.w3.org/1999/xlink">
    <!-- Generator: Sketch 52.6 (67491) - http://www.bohemiancoding.com/sketch -->
    <title>014-parking</title>
    <desc>Created with Sketch.</desc>
    <defs>
        <path d="M265,139.671387 C265,62.6576841 202.404186,0 125.458986,0 L8.66378044,0 C3.87839503,0 0,3.88201861 0,8.671875 L0,435.328125 C0,440.117981 3.87839503,444 8.66378044,444 L91.8360726,444 C96.621458,444 100.499853,440.117981 100.499853,435.328125 L100.499853,279.346161 L125.458986,279.346161 C202.404186,279.346161 265,216.688477 265,139.671387 Z M125.458986,262.002411 L91.8360726,262.002411 C87.0506872,262.002411 83.1722922,265.88443 83.1722922,270.674286 L83.1722922,426.65625 L51.9826826,426.65625 L51.9826826,347.308594 C51.9826826,342.518737 48.1042876,338.636719 43.3189022,338.636719 C38.5335168,338.636719 34.6551217,342.518737 34.6551217,347.308594 L34.6551217,426.65625 L17.3275609,426.65625 L17.3275609,17.34375 L125.458986,17.34375 C192.850338,17.34375 247.672439,72.220459 247.672439,139.671387 C247.672439,207.122314 192.850338,262.002411 125.458986,262.002411 Z" id="path-1"></path>
        <filter x="-1.1%" y="-0.7%" width="104.5%" height="102.7%" filterUnits="objectBoundingBox" id="filter-2">
            <feOffset dx="6" dy="6" in="SourceAlpha" result="shadowOffsetOuter1"></feOffset>
            <feColorMatrix values="0 0 0 0 0.917647059   0 0 0 0 0.937254902   0 0 0 0 0  0 0 0 1 0" type="matrix" in="shadowOffsetOuter1"></feColorMatrix>
        </filter>
        <path d="M125.434393,83 L91.6940414,83 C86.8919415,83 83,86.8873108 83,91.6836971 L83,187.316303 C83,192.109297 86.8919415,196 91.6940414,196 L125.434393,196 C156.627663,196 182,170.651067 182,139.498304 C182,108.345541 156.627663,83 125.434393,83 Z M125.434393,178.632606 L100.388083,178.632606 L100.388083,100.367394 L125.434393,100.367394 C147.037048,100.367394 164.611917,117.921352 164.611917,139.498304 C164.611917,161.075256 147.037048,178.632606 125.434393,178.632606 Z" id="path-3"></path>
        <filter x="-3.0%" y="-2.7%" width="112.1%" height="110.6%" filterUnits="objectBoundingBox" id="filter-4">
            <feOffset dx="6" dy="6" in="SourceAlpha" result="shadowOffsetOuter1"></feOffset>
            <feColorMatrix values="0 0 0 0 0.917647059   0 0 0 0 0.937254902   0 0 0 0 0  0 0 0 1 0" type="matrix" in="shadowOffsetOuter1"></feColorMatrix>
        </filter>
        <path d="M415.121157,315.648135 L400.502174,274.636719 C395.887794,261.695384 383.565837,253 369.837885,253 L250.162115,253 C236.457878,253 224.142698,261.675036 219.514765,274.585849 L204.80092,315.654919 C188.667527,317.174237 176,330.804013 176,347.343555 L176,377.441655 C176,394.544158 189.545004,408.533417 206.461014,409.238814 L206.461014,424.025036 C206.461014,435.040093 215.411964,444 226.416009,444 L239.954237,444 C250.958283,444 259.909234,435.040093 259.909234,424.025036 L259.909234,409.272727 L360.090766,409.272727 L360.090766,424.025036 C360.090766,435.040093 369.041717,444 380.045763,444 L393.583991,444 C404.588036,444 413.538986,435.040093 413.538986,424.025036 L413.538986,409.238814 C430.454996,408.533417 444,394.540767 444,377.438263 L444,347.340163 C444,330.776883 431.291818,317.133541 415.121157,315.648135 Z M235.841272,280.449468 C238.00617,274.416282 243.7589,270.363636 250.162115,270.363636 L369.837885,270.363636 C376.251264,270.363636 382.007383,274.426456 384.165504,280.473206 L396.653469,315.509091 L223.28216,315.509091 L235.841272,280.449468 Z M242.562955,424.025036 C242.562955,425.466353 241.394115,426.636364 239.954237,426.636364 L226.416009,426.636364 C224.97952,426.636364 223.807292,425.462962 223.807292,424.025036 L223.807292,409.272727 L242.562955,409.272727 L242.562955,424.025036 Z M396.192708,424.025036 C396.192708,425.466353 395.02048,426.636364 393.583991,426.636364 L380.045763,426.636364 C378.605885,426.636364 377.437045,425.462962 377.437045,424.025036 L377.437045,409.272727 L396.192708,409.272727 L396.192708,424.025036 Z M426.653722,377.438263 C426.653722,385.418076 420.169195,391.909091 412.19736,391.909091 L207.80264,391.909091 C199.830805,391.909091 193.346278,385.418076 193.346278,377.438263 L193.346278,347.340163 C193.346278,339.363742 199.830805,332.872727 207.80264,332.872727 L210.895833,332.872727 C210.916161,332.872727 210.936489,332.876118 210.956817,332.876118 C210.977144,332.876118 211.00086,332.872727 211.021187,332.872727 L412.200749,332.872727 C420.169195,332.872727 426.653722,339.363742 426.653722,347.340163 L426.653722,377.438263 Z" id="path-5"></path>
        <filter x="-1.1%" y="-1.6%" width="104.5%" height="106.3%" filterUnits="objectBoundingBox" id="filter-6">
            <feOffset dx="6" dy="6" in="SourceAlpha" result="shadowOffsetOuter1"></feOffset>
            <feColorMatrix values="0 0 0 0 0.917647059   0 0 0 0 0.937254902   0 0 0 0 0  0 0 0 1 0" type="matrix" in="shadowOffsetOuter1"></feColorMatrix>
        </filter>
        <path d="M239.5,354 C237.265429,354 235.070703,354.909765 233.490234,356.490235 C231.909765,358.070703 231,360.26543 231,362.5 C231,364.73457 231.909765,366.929297 233.490234,368.509765 C235.070703,370.090235 237.265429,371 239.5,371 C241.73457,371 243.929296,370.090235 245.509765,368.509765 C247.090234,366.929297 248,364.73457 248,362.5 C248,360.26543 247.090234,358.070703 245.509765,356.490235 C243.929296,354.909765 241.73457,354 239.5,354 Z" id="path-7"></path>
        <filter x="-17.6%" y="-17.6%" width="170.6%" height="170.6%" filterUnits="objectBoundingBox" id="filter-8">
            <feOffset dx="6" dy="6" in="SourceAlpha" result="shadowOffsetOuter1"></feOffset>
            <feColorMatrix values="0 0 0 0 0.917647059   0 0 0 0 0.937254902   0 0 0 0 0  0 0 0 1 0" type="matrix" in="shadowOffsetOuter1"></feColorMatrix>
        </filter>
        <path d="M345.359223,354 L273.640777,354 C268.871473,354 265,357.805078 265,362.5 C265,367.194922 268.871473,371 273.640777,371 L345.359223,371 C350.131902,371 354,367.194922 354,362.5 C354,357.805078 350.131902,354 345.359223,354 Z" id="path-9"></path>
        <filter x="-3.4%" y="-17.6%" width="113.5%" height="170.6%" filterUnits="objectBoundingBox" id="filter-10">
            <feOffset dx="6" dy="6" in="SourceAlpha" result="shadowOffsetOuter1"></feOffset>
            <feColorMatrix values="0 0 0 0 0.917647059   0 0 0 0 0.937254902   0 0 0 0 0  0 0 0 1 0" type="matrix" in="shadowOffsetOuter1"></feColorMatrix>
        </filter>
        <path d="M379.5,354 C377.255469,354 375.070703,354.909765 373.483594,356.490235 C371.899805,358.070703 371,360.26543 371,362.5 C371,364.73457 371.899805,366.929297 373.483594,368.509765 C375.070703,370.090235 377.255469,371 379.5,371 C381.73457,371 383.929296,370.090235 385.509765,368.509765 C387.090234,366.929297 388,364.73457 388,362.5 C388,360.26543 387.090234,358.070703 385.509765,356.490235 C383.929296,354.909765 381.73457,354 379.5,354 Z" id="path-11"></path>
        <filter x="-17.6%" y="-17.6%" width="170.6%" height="170.6%" filterUnits="objectBoundingBox" id="filter-12">
            <feOffset dx="6" dy="6" in="SourceAlpha" result="shadowOffsetOuter1"></feOffset>
            <feColorMatrix values="0 0 0 0 0.917647059   0 0 0 0 0.937254902   0 0 0 0 0  0 0 0 1 0" type="matrix" in="shadowOffsetOuter1"></feColorMatrix>
        </filter>
        <path d="M43.5,304 C41.2654299,304 39.0707027,304.909765 37.4902348,306.490235 C35.9097652,308.070703 35,310.26543 35,312.5 C35,314.73457 35.9097652,316.929297 37.4902348,318.509765 C39.0707027,320.090235 41.2654299,321 43.5,321 C45.7345701,321 47.9292973,320.090235 49.5097652,318.509765 C51.0902348,316.929297 52,314.73457 52,312.5 C52,310.26543 51.0902348,308.070703 49.5097652,306.490235 C47.9292973,304.909765 45.7345701,304 43.5,304 Z" id="path-13"></path>
        <filter x="-17.6%" y="-17.6%" width="170.6%" height="170.6%" filterUnits="objectBoundingBox" id="filter-14">
            <feOffset dx="6" dy="6" in="SourceAlpha" result="shadowOffsetOuter1"></feOffset>
            <feColorMatrix values="0 0 0 0 0.917647059   0 0 0 0 0.937254902   0 0 0 0 0  0 0 0 1 0" type="matrix" in="shadowOffsetOuter1"></feColorMatrix>
        </filter>
    </defs>
    <g id="Page-1" stroke="none" stroke-width="1" fill="none" fill-rule="evenodd">
        <g id="014-parking">
            <g id="Shape" fill-rule="nonzero">
                <use fill="black" fill-opacity="1" filter="url(#filter-2)" xlink:href="#path-1"></use>
                <use fill="#000000" xlink:href="#path-1"></use>
            </g>
            <g id="Shape" fill-rule="nonzero">
                <use fill="black" fill-opacity="1" filter="url(#filter-4)" xlink:href="#path-3"></use>
                <use fill="#000000" xlink:href="#path-3"></use>
            </g>
            <g id="Shape" fill-rule="nonzero">
                <use fill="black" fill-opacity="1" filter="url(#filter-6)" xlink:href="#path-5"></use>
                <use fill="#000000" xlink:href="#path-5"></use>
            </g>
            <g id="Path">
                <use fill="black" fill-opacity="1" filter="url(#filter-8)" xlink:href="#path-7"></use>
                <use fill="#000000" fill-rule="evenodd" xlink:href="#path-7"></use>
            </g>
            <g id="Path">
                <use fill="black" fill-opacity="1" filter="url(#filter-10)" xlink:href="#path-9"></use>
                <use fill="#000000" fill-rule="evenodd" xlink:href="#path-9"></use>
            </g>
            <g id="Path">
                <use fill="black" fill-opacity="1" filter="url(#filter-12)" xlink:href="#path-11"></use>
                <use fill="#000000" fill-rule="evenodd" xlink:href="#path-11"></use>
            </g>
            <g id="Path">
                <use fill="black" fill-opacity="1" filter="url(#filter-14)" xlink:href="#path-13"></use>
                <use fill="#000000" fill-rule="evenodd" xlink:href="#path-13"></use>
            </g>
        </g>
    </g>
</svg>