<?xml version="1.0" encoding="iso-8859-1"?>
<!-- Generator: Adobe Illustrator 19.1.0, SVG Export Plug-In . SVG Version: 6.00 Build 0)  -->
<svg version="1.1" id="Capa_1" xmlns="http://www.w3.org/2000/svg" xmlns:xlink="http://www.w3.org/1999/xlink" x="0px" y="0px"
	 viewBox="0 0 69.677 69.677" style="enable-background:new 0 0 69.677 69.677;" xml:space="preserve">
<g>
	<path d="M29.999,43.879c0,1.609,2.5,1.611,2.5,0c0-3.062,0-6.125,0-9.187c6.292,0,12.584,0,18.875,0c0,3.062,0,6.125,0,9.187
		c0,1.609,2.5,1.611,2.5,0c0-6.347,0-12.693,0-19.04c0-2.349-0.034-4.701,0-7.05c0.038-2.611,0.4-5.429,2.165-7.49
		c1.803-2.105,4.556-2.649,7.198-2.697c1.607-0.029,1.612-2.529,0-2.5c-5.274,0.096-9.768,2.467-11.262,7.786
		c-0.633,2.253-0.656,4.661-0.627,7.03c-6.286,0-12.572,0-18.857,0c0.001-0.71-0.003-1.42,0.008-2.13
		c0.038-2.611,0.4-5.429,2.165-7.49c1.803-2.105,4.556-2.649,7.198-2.697c1.607-0.029,1.612-2.529,0-2.5
		C36.588,5.199,32.093,7.57,30.6,12.889c-0.849,3.024-0.601,6.328-0.601,9.441C29.999,29.513,29.999,36.696,29.999,43.879z
		 M32.499,32.192c0-2.451,0-4.902,0-7.353c0-0.807-0.005-1.614-0.009-2.421c6.295,0,12.589,0,18.884,0c0,3.258,0,6.516,0,9.773
		C45.083,32.192,38.791,32.192,32.499,32.192z"/>
	<path d="M1.203,46.185c3.153,0.19,4.147,4.998,6.328,6.787c2.309,1.895,5.383,1.394,7.326-0.739
		c1.665-1.828,3.377-7.418,6.719-5.775c2.642,1.298,3.135,5.243,5.647,6.883c2.554,1.667,5.478,0.648,7.245-1.596
		c1.605-2.039,3.799-7.822,7.135-4.675c2.146,2.024,2.7,5.417,5.618,6.69c2.669,1.164,5.167-0.219,6.753-2.39
		c1.014-1.389,1.68-3.228,2.991-4.376c1.78-1.559,3.556-0.517,4.733,1.154c1.878,2.664,3.06,5.824,6.774,6.039
		c1.607,0.093,1.602-2.407,0-2.5c-3.084-0.179-4.088-4.791-6.117-6.604c-2.096-1.873-5.133-1.796-7.158,0.144
		c-1.819,1.742-3.017,6.464-5.955,6.461c-3.017-0.004-4.215-4.977-6.204-6.689c-2.223-1.914-5.311-1.597-7.299,0.473
		c-1.745,1.818-3.493,7.609-6.88,5.943c-2.647-1.302-3.129-5.244-5.647-6.883c-2.495-1.624-5.365-0.697-7.145,1.469
		c-2.001,2.436-4.432,8.626-7.927,3.972c-2.019-2.689-3.07-6.054-6.939-6.287C-0.404,43.588-0.398,46.088,1.203,46.185z"/>
	<path d="M68.474,62.072c-3.084-0.179-4.088-4.791-6.117-6.604c-2.096-1.873-5.133-1.796-7.158,0.144
		c-1.819,1.742-3.017,6.464-5.955,6.461c-3.017-0.004-4.215-4.977-6.204-6.689c-2.223-1.914-5.311-1.597-7.299,0.473
		c-1.745,1.818-3.493,7.61-6.88,5.943c-2.647-1.302-3.129-5.244-5.647-6.883c-2.495-1.624-5.365-0.697-7.145,1.469
		c-2.001,2.436-4.432,8.626-7.927,3.972c-2.019-2.689-3.07-6.054-6.939-6.287c-1.607-0.097-1.601,2.404,0,2.5
		c3.153,0.19,4.147,4.998,6.328,6.787c2.309,1.895,5.383,1.394,7.326-0.739c1.665-1.828,3.377-7.418,6.719-5.775
		c2.642,1.298,3.135,5.243,5.647,6.883c2.554,1.667,5.478,0.648,7.245-1.596c1.605-2.039,3.799-7.821,7.135-4.675
		c2.146,2.024,2.7,5.417,5.618,6.69c2.669,1.164,5.167-0.219,6.753-2.39c1.014-1.389,1.68-3.228,2.991-4.376
		c1.78-1.559,3.556-0.517,4.733,1.154c1.878,2.664,3.06,5.824,6.774,6.039C70.081,64.665,70.076,62.165,68.474,62.072z"/>
</g>
<g>
</g>
<g>
</g>
<g>
</g>
<g>
</g>
<g>
</g>
<g>
</g>
<g>
</g>
<g>
</g>
<g>
</g>
<g>
</g>
<g>
</g>
<g>
</g>
<g>
</g>
<g>
</g>
<g>
</g>
</svg>
