<?xml version="1.0" encoding="UTF-8"?>
<svg width="451px" height="385px" viewBox="0 0 451 385" version="1.1" xmlns="http://www.w3.org/2000/svg" xmlns:xlink="http://www.w3.org/1999/xlink">
    <!-- Generator: Sketch 52.6 (67491) - http://www.bohemiancoding.com/sketch -->
    <title>011-swimmer</title>
    <desc>Created with Sketch.</desc>
    <defs>
        <path d="M192.215199,247.299444 C192.215199,257.560474 208.167006,257.573228 208.167006,247.299444 C208.167006,227.772237 208.167006,208.238654 208.167006,188.711447 C248.314514,188.711447 288.462023,188.711447 328.60315,188.711447 C328.60315,208.238654 328.60315,227.772237 328.60315,247.299444 C328.60315,257.560474 344.554957,257.573228 344.554957,247.299444 C344.554957,206.822899 344.554957,166.352732 344.554957,125.876188 C344.554957,110.895976 344.338013,95.8966331 344.554957,80.9164215 C344.797425,64.2653648 347.107246,46.2942128 358.369222,33.1506556 C369.873665,19.7264984 387.439795,16.2572625 404.297665,15.9511534 C414.551487,15.7662126 414.583391,-0.176967014 404.297665,0.00797386881 C370.645733,0.620191964 341.970764,15.7407035 332.437964,49.6614123 C328.398967,64.0294057 328.25221,79.3858763 328.437251,94.4936333 C288.328027,94.4936333 248.218804,94.4936333 208.11596,94.4936333 C208.122341,89.9657703 208.096818,85.4379073 208.167006,80.9100443 C208.409474,64.2589875 210.719295,46.2878355 221.981271,33.1442783 C233.485714,19.7201211 251.051844,16.2508852 267.909714,15.9447762 C278.163536,15.7598353 278.19544,-0.183344286 267.909714,0.00159659698 C234.257782,0.626569236 205.576433,15.7470807 196.050013,49.6677896 C190.63278,68.9526596 192.215199,90.0231657 192.215199,109.875613 C192.215199,155.683556 192.215199,201.4915 192.215199,247.299444 Z M208.167006,172.768268 C208.167006,157.137574 208.167006,141.506881 208.167006,125.876188 C208.167006,120.72973 208.135103,115.583271 208.10958,110.436813 C248.27623,110.436813 288.4365,110.436813 328.60315,110.436813 C328.60315,131.213964 328.60315,151.991116 328.60315,172.76189 C288.462023,172.768268 248.314514,172.768268 208.167006,172.768268 Z" id="path-1"></path>
        <filter x="-1.4%" y="-1.2%" width="105.5%" height="104.7%" filterUnits="objectBoundingBox" id="filter-2">
            <feOffset dx="6" dy="6" in="SourceAlpha" result="shadowOffsetOuter1"></feOffset>
            <feColorMatrix values="0 0 0 0 0.917647059   0 0 0 0 0.937254902   0 0 0 0 0  0 0 0 0.5 0" type="matrix" in="shadowOffsetOuter1"></feColorMatrix>
        </filter>
        <path d="M7.68485482,261.954281 C27.8222407,263.16593 34.1706586,293.827041 48.1001348,305.235678 C62.8471136,317.320288 82.4799472,314.125359 94.8893797,300.522999 C105.523299,288.865655 116.457395,253.21765 137.801874,263.69523 C154.675637,271.972709 157.824299,297.13038 173.867786,307.588829 C190.179515,318.219459 208.854338,311.721192 220.139705,297.410973 C230.39042,284.40806 244.402924,247.529274 265.709083,267.598017 C279.415023,280.505273 282.953276,302.142783 301.589778,310.260835 C318.635983,317.683783 334.590055,308.86425 344.719422,295.019559 C351.195575,286.161763 355.449142,274.434271 363.822156,267.113357 C375.190551,257.171454 386.533398,263.816395 394.050589,274.472534 C406.044883,291.461136 413.594008,311.612781 437.314354,312.983858 C447.577843,313.576929 447.545909,297.634171 437.314354,297.041101 C417.617653,295.899599 411.205368,266.488401 398.246676,254.926713 C384.860072,242.9824 365.463548,243.473437 352.530403,255.845016 C340.912926,266.953929 333.261614,297.066609 314.497376,297.047478 C295.228587,297.021969 287.577274,265.308637 274.874052,254.391037 C260.676333,242.185262 240.954085,244.206803 228.257249,257.407406 C217.112391,269.000979 205.948372,305.930782 184.316489,295.306529 C167.410793,287.003541 164.332385,261.865001 148.250578,251.41293 C132.315666,241.056515 113.985727,246.968089 102.617333,260.780894 C89.8374697,276.315516 74.3113089,315.789783 51.9896585,286.110746 C39.0948338,268.962717 32.3823719,247.503766 7.67208135,246.017901 C-2.57863364,245.392945 -2.54031321,261.335702 7.68485482,261.954281 Z" id="path-3"></path>
        <filter x="-0.7%" y="-4.5%" width="102.7%" height="117.9%" filterUnits="objectBoundingBox" id="filter-4">
            <feOffset dx="6" dy="6" in="SourceAlpha" result="shadowOffsetOuter1"></feOffset>
            <feColorMatrix values="0 0 0 0 0.917647059   0 0 0 0 0.937254902   0 0 0 0 0  0 0 0 0.5 0" type="matrix" in="shadowOffsetOuter1"></feColorMatrix>
        </filter>
        <path d="M437.316119,363.036416 C417.619842,361.895011 411.207694,332.486301 398.249281,320.925592 C384.862966,308.982289 365.466859,309.473285 352.533992,321.843817 C340.916765,332.951791 333.265617,363.061922 314.501783,363.042792 C295.233408,363.017286 287.58226,331.306637 274.879311,320.389961 C260.681897,308.185219 240.960073,310.20659 228.263511,323.406075 C217.118892,334.998667 205.955114,371.931722 184.323696,361.301991 C167.418364,352.999705 164.340022,327.863293 148.258561,317.412106 C132.323991,307.056567 113.994447,312.967641 102.626297,326.779277 C89.8467087,342.312585 74.3208818,381.783512 51.9997115,352.106986 C39.1051642,334.960408 32.3928467,313.503273 7.68308764,312.017534 C-2.58018006,311.399007 -2.54186045,327.346792 7.68308764,327.958942 C27.8200404,329.170489 34.1683217,359.829005 48.0974984,371.236676 C62.8441599,383.320263 82.4765712,380.125605 94.8857368,366.524396 C105.519427,354.868038 116.453288,319.22305 137.797308,329.699743 C154.670708,337.976522 157.819302,363.132064 173.862444,373.589628 C190.173823,384.219359 208.848244,377.721641 220.133368,363.412633 C230.383862,350.410821 244.396065,313.541532 265.701765,333.6022 C279.407411,346.508364 282.945588,368.144043 301.581689,376.261408 C318.627527,383.683728 334.581256,374.864941 344.710406,361.021422 C351.186419,352.164376 355.439895,340.437876 363.812729,333.117581 C375.180879,323.176519 386.523482,329.820898 394.040511,340.476135 C406.034548,357.4633 413.58351,377.613239 437.303346,378.9842 C447.579387,379.570844 447.547454,363.629436 437.316119,363.036416 Z" id="path-5"></path>
        <filter x="-0.7%" y="-4.5%" width="102.7%" height="117.9%" filterUnits="objectBoundingBox" id="filter-6">
            <feOffset dx="6" dy="6" in="SourceAlpha" result="shadowOffsetOuter1"></feOffset>
            <feColorMatrix values="0 0 0 0 0.917647059   0 0 0 0 0.937254902   0 0 0 0 0  0 0 0 0.5 0" type="matrix" in="shadowOffsetOuter1"></feColorMatrix>
        </filter>
    </defs>
    <g id="Page-1" stroke="none" stroke-width="1" fill="none" fill-rule="evenodd">
        <g id="011-swimmer">
            <g id="Shape" fill-rule="nonzero">
                <use fill="black" fill-opacity="1" filter="url(#filter-2)" xlink:href="#path-1"></use>
                <use fill="#000000" xlink:href="#path-1"></use>
            </g>
            <g id="Path">
                <use fill="black" fill-opacity="1" filter="url(#filter-4)" xlink:href="#path-3"></use>
                <use fill="#000000" fill-rule="evenodd" xlink:href="#path-3"></use>
            </g>
            <g id="Path">
                <use fill="black" fill-opacity="1" filter="url(#filter-6)" xlink:href="#path-5"></use>
                <use fill="#000000" fill-rule="evenodd" xlink:href="#path-5"></use>
            </g>
        </g>
    </g>
</svg>