<?xml version="1.0" encoding="UTF-8"?>
<svg width="518px" height="518px" viewBox="0 0 518 518" version="1.1" xmlns="http://www.w3.org/2000/svg" xmlns:xlink="http://www.w3.org/1999/xlink">
    <!-- Generator: Sketch 52.6 (67491) - http://www.bohemiancoding.com/sketch -->
    <title>016-pool-table-1</title>
    <desc>Created with Sketch.</desc>
    <defs>
        <path d="M474.5,255 L308.5,255 L308.5,199.714844 C358.769531,195.871094 398.5,153.738281 398.5,102.5 C398.5,98.355469 395.140625,95 391,95 C386.855469,95 383.5,98.355469 383.5,102.5 C383.5,145.84375 349.894531,181.460938 307.375,184.726562 C304.011719,173.339844 293.464844,165 281,165 L231,165 C218.4375,165 207.820312,173.472656 204.546875,185 L158.5,185 L158.5,7.5 C158.5,3.355469 155.140625,0 151,0 C146.855469,0 143.5,3.355469 143.5,7.5 L143.5,185 L136,185 C123.59375,185 113.5,195.09375 113.5,207.5 C113.5,219.90625 123.59375,230 136,230 L143.5,230 L143.5,255 L37.5,255 C16.820312,255 0,271.820312 0,292.5 L0,382.5 C0,386.640625 3.355469,390 7.5,390 L30,390 L30,504.496094 C30,508.640625 33.355469,511.996094 37.5,511.996094 L67.5,511.996094 C70.953125,511.996094 73.957031,509.640625 74.78125,506.289062 L103.378906,390 L143.5,390 L143.5,504.496094 C143.5,508.640625 146.855469,511.996094 151,511.996094 C155.140625,511.996094 158.5,508.640625 158.5,504.496094 L158.5,390 L218.5,390 L218.5,489.09375 L193.628906,497.382812 C189.699219,498.691406 187.574219,502.941406 188.882812,506.871094 C189.933594,510.011719 192.859375,512 196,512 C196.785156,512 197.585938,511.875 198.371094,511.613281 L228.371094,501.613281 C231.433594,500.59375 233.5,497.726562 233.5,494.5 L233.5,390 L278.5,390 L278.5,494.5 C278.5,497.726562 280.5625,500.59375 283.625,501.613281 L313.625,511.613281 C314.414062,511.875 315.214844,512 316,512 C319.140625,512 322.066406,510.011719 323.113281,506.871094 C324.421875,502.941406 322.300781,498.691406 318.371094,497.382812 L293.5,489.09375 L293.5,390 L408.621094,390 L437.214844,506.289062 C438.039062,509.640625 441.046875,511.996094 444.5,511.996094 L474.5,511.996094 C478.640625,511.996094 482,508.640625 482,504.496094 L482,390 L504.496094,390 C508.640625,390 511.996094,386.640625 511.996094,382.5 L511.996094,292.5 C511.996094,271.820312 495.175781,255 474.5,255 Z M437,285 L321.277344,285 C319.90625,279.78125 317.898438,274.746094 315.320312,270 L437,270 L437,285 Z M231,180 L281,180 C287.890625,180 293.5,185.605469 293.5,192.5 L293.5,262.5 C293.5,262.742188 293.511719,262.980469 293.535156,263.21875 C293.542969,263.324219 293.5625,263.421875 293.578125,263.523438 C293.59375,263.65625 293.613281,263.789062 293.636719,263.917969 C293.660156,264.039062 293.691406,264.160156 293.722656,264.28125 C293.746094,264.386719 293.773438,264.492188 293.800781,264.597656 C293.839844,264.722656 293.878906,264.847656 293.925781,264.972656 C293.957031,265.066406 293.992188,265.164062 294.03125,265.261719 C294.078125,265.382812 294.128906,265.5 294.183594,265.617188 C294.226562,265.714844 294.273438,265.808594 294.320312,265.902344 C294.375,266.011719 294.4375,266.125 294.5,266.234375 C294.554688,266.328125 294.613281,266.421875 294.671875,266.515625 C294.734375,266.617188 294.800781,266.71875 294.871094,266.816406 C294.9375,266.910156 295.007812,267.003906 295.082031,267.097656 C295.152344,267.1875 295.222656,267.277344 295.296875,267.363281 C295.324219,267.394531 295.347656,267.429688 295.375,267.460938 C301.585938,274.507812 305.742188,283.023438 307.515625,292.117188 C307.511719,292.242188 307.496094,292.371094 307.496094,292.5 C307.496094,293.488281 307.695312,294.429688 308.039062,295.292969 C308.339844,297.558594 308.496094,299.855469 308.496094,302.164062 L308.496094,345 L203.5,345 L203.5,302.164062 C203.5,299.855469 203.65625,297.558594 203.957031,295.292969 C204.300781,294.429688 204.5,293.488281 204.5,292.5 C204.5,292.371094 204.484375,292.242188 204.480469,292.117188 C206.253906,283.023438 210.40625,274.507812 216.621094,267.460938 C216.648438,267.429688 216.671875,267.394531 216.699219,267.363281 C216.773438,267.277344 216.84375,267.1875 216.914062,267.097656 C216.988281,267.003906 217.058594,266.910156 217.125,266.816406 C217.195312,266.71875 217.261719,266.617188 217.324219,266.515625 C217.382812,266.421875 217.441406,266.328125 217.496094,266.234375 C217.558594,266.125 217.617188,266.015625 217.675781,265.902344 C217.722656,265.808594 217.769531,265.714844 217.8125,265.617188 C217.867188,265.5 217.917969,265.382812 217.96875,265.257812 C218.003906,265.164062 218.039062,265.066406 218.070312,264.972656 C218.113281,264.847656 218.15625,264.722656 218.195312,264.597656 C218.226562,264.492188 218.25,264.386719 218.273438,264.28125 C218.304688,264.160156 218.335938,264.039062 218.359375,263.917969 C218.382812,263.789062 218.402344,263.65625 218.417969,263.523438 C218.433594,263.421875 218.449219,263.320312 218.460938,263.21875 C218.484375,262.980469 218.496094,262.742188 218.496094,262.5 L218.496094,192.5 C218.5,185.605469 224.105469,180 231,180 Z M190.71875,285 L158.5,285 L158.5,270 L196.675781,270 C194.097656,274.746094 192.09375,279.78125 190.71875,285 Z M136,215 C131.863281,215 128.5,211.636719 128.5,207.5 C128.5,203.363281 131.863281,200 136,200 L143.5,200 L143.5,215 L136,215 Z M158.5,200 L203.5,200 L203.5,255 L158.5,255 L158.5,200 Z M143.5,285 L75,285 L75,270 L143.5,270 L143.5,285 Z M15,292.5 C15,280.09375 25.09375,270 37.5,270 L60,270 L60,375 L15,375 L15,292.5 Z M61.621094,497 L45,497 L45,390 L87.933594,390 L61.621094,497 Z M75,375 L75,300 L143.5,300 L143.5,375 L75,375 Z M158.5,375 L158.5,300 L188.546875,300 C188.523438,300.71875 188.5,301.441406 188.5,302.164062 L188.5,352.5 C188.5,356.640625 191.855469,360 196,360 L218.5,360 L218.5,375 L158.5,375 Z M233.5,375 L233.5,360 L278.5,360 L278.5,375 L233.5,375 Z M293.5,360 L316,360 C320.140625,360 323.5,356.640625 323.5,352.5 L323.5,302.164062 C323.5,301.441406 323.476562,300.71875 323.453125,300 L437,300 L437,375 L293.5,375 L293.5,360 Z M467,497 L450.378906,497 L424.066406,390 L467,390 L467,497 Z M497,375 L452,375 L452,270 L474.5,270 C486.902344,270 497,280.09375 497,292.5 L497,375 Z" id="path-1"></path>
        <filter x="-0.6%" y="-0.6%" width="102.3%" height="102.3%" filterUnits="objectBoundingBox" id="filter-2">
            <feOffset dx="6" dy="6" in="SourceAlpha" result="shadowOffsetOuter1"></feOffset>
            <feColorMatrix values="0 0 0 0 0.917647059   0 0 0 0 0.937254902   0 0 0 0 0  0 0 0 1 0" type="matrix" in="shadowOffsetOuter1"></feColorMatrix>
        </filter>
        <path d="M391,80 C407.539062,80 421,66.542969 421,50 C421,33.457031 407.539062,20 391,20 C374.457031,20 361,33.457031 361,50 C361,66.542969 374.457031,80 391,80 Z M391,35 C399.269531,35 406,41.730469 406,50 C406,58.269531 399.269531,65 391,65 C382.726562,65 376,58.269531 376,50 C376,41.730469 382.726562,35 391,35 Z" id="path-3"></path>
        <filter x="-5.0%" y="-5.0%" width="120.0%" height="120.0%" filterUnits="objectBoundingBox" id="filter-4">
            <feOffset dx="6" dy="6" in="SourceAlpha" result="shadowOffsetOuter1"></feOffset>
            <feColorMatrix values="0 0 0 0 0.917647059   0 0 0 0 0.937254902   0 0 0 0 0  0 0 0 1 0" type="matrix" in="shadowOffsetOuter1"></feColorMatrix>
        </filter>
        <path d="M203.5,150 L308.5,150 C325.039062,150 338.5,136.542969 338.5,120 C338.5,112.265625 335.558594,104.917969 330.214844,99.3125 L294.011719,61.296875 C293.863281,61.140625 293.707031,61 293.546875,60.859375 C284.007812,51.085938 270.703125,45 256,45 C241.058594,45 227.566406,51.28125 218,61.332031 C217.503906,61.804688 216.996094,62.335938 216.429688,62.929688 L181.785156,99.3125 C176.441406,104.917969 173.5,112.261719 173.5,120 C173.5,136.542969 186.957031,150 203.5,150 Z M218.5,97.5 C218.5,90.933594 220.199219,84.757812 223.179688,79.382812 C232.929688,86.457031 244.464844,89.996094 256,89.996094 C267.535156,89.996094 279.070312,86.457031 288.820312,79.382812 C291.796875,84.757812 293.5,90.933594 293.5,97.5 C293.5,118.175781 276.675781,135 256,135 C235.320312,135 218.5,118.175781 218.5,97.5 Z M323.5,120 C323.5,128.269531 316.769531,135 308.5,135 L292.691406,135 C302.269531,125.625 308.28125,112.625 308.480469,98.238281 L319.355469,109.660156 C322.027344,112.460938 323.5,116.132812 323.5,120 Z M279.019531,67.929688 C265.183594,77.351562 246.816406,77.351562 232.976562,67.929688 C239.335938,62.96875 247.324219,60 255.996094,60 C264.671875,60 272.660156,62.96875 279.019531,67.929688 Z M192.644531,109.65625 C195.738281,106.40625 199.546875,102.40625 203.515625,98.234375 C203.71875,112.621094 209.726562,125.621094 219.304688,135 L203.5,135 C195.226562,135 188.5,128.269531 188.5,120 C188.5,116.132812 189.972656,112.460938 192.644531,109.65625 Z" id="path-5"></path>
        <filter x="-1.8%" y="-2.9%" width="107.3%" height="111.4%" filterUnits="objectBoundingBox" id="filter-6">
            <feOffset dx="6" dy="6" in="SourceAlpha" result="shadowOffsetOuter1"></feOffset>
            <feColorMatrix values="0 0 0 0 0.917647059   0 0 0 0 0.937254902   0 0 0 0 0  0 0 0 1 0" type="matrix" in="shadowOffsetOuter1"></feColorMatrix>
        </filter>
    </defs>
    <g id="Page-1" stroke="none" stroke-width="1" fill="none" fill-rule="evenodd">
        <g id="016-pool-table-1" fill-rule="nonzero">
            <g id="Shape">
                <use fill="black" fill-opacity="1" filter="url(#filter-2)" xlink:href="#path-1"></use>
                <use fill="#000000" xlink:href="#path-1"></use>
            </g>
            <g id="Shape">
                <use fill="black" fill-opacity="1" filter="url(#filter-4)" xlink:href="#path-3"></use>
                <use fill="#000000" xlink:href="#path-3"></use>
            </g>
            <g id="Shape">
                <use fill="black" fill-opacity="1" filter="url(#filter-6)" xlink:href="#path-5"></use>
                <use fill="#000000" xlink:href="#path-5"></use>
            </g>
        </g>
    </g>
</svg>