<svg viewBox="0 -37 512 512" xmlns="http://www.w3.org/2000/svg"><path d="m217.964844 285.703125h-81.058594c-6.894531 0-12.5 5.609375-12.5 12.5v69.296875c0 6.894531 5.605469 12.5 12.5 12.5h36.59375c4.140625 0 7.5-3.359375 7.5-7.5s-3.359375-7.5-7.5-7.5h-34.09375v-10.601562h76.058594v10.601562h-6.464844c-4.140625 0-7.5 3.359375-7.5 7.5s3.359375 7.5 7.5 7.5h8.964844c6.890625 0 12.5-5.605469 12.5-12.5v-69.296875c0-6.890625-5.609375-12.5-12.5-12.5zm-62.609375 53.695313h-15.949219v-38.695313h15.949219zm29.15625 0h-14.152344v-38.695313h14.152344zm30.953125 0h-15.953125v-38.695313h15.953125zm0 0"/><path d="m217.964844 63.714844h-81.058594c-6.894531 0-12.5 5.609375-12.5 12.5v69.296875c0 6.894531 5.605469 12.5 12.5 12.5h81.058594c6.890625 0 12.5-5.605469 12.5-12.5v-69.296875c0-6.890625-5.609375-12.5-12.5-12.5zm-47.609375 15h14.15625v38.691406h-14.15625zm-30.949219 0h15.949219v38.691406h-15.949219zm76.058594 64.296875h-76.058594v-10.605469h76.058594zm0-25.605469h-15.953125v-38.691406h15.953125zm0 0"/><path d="m217.964844 174.710938h-81.058594c-6.894531 0-12.5 5.605468-12.5 12.5v69.296874c0 6.890626 5.605469 12.5 12.5 12.5h81.058594c6.890625 0 12.5-5.609374 12.5-12.5v-69.296874c0-6.894532-5.609375-12.5-12.5-12.5zm-47.609375 15h14.15625v38.691406h-14.15625zm-30.949219 0h15.949219v38.691406h-15.949219zm76.058594 64.296874h-76.058594v-10.605468h76.058594zm0-25.605468h-15.953125v-38.691406h15.953125zm0 0"/><path d="m326.726562 128.042969h-22c-6.894531 0-12.5 5.605469-12.5 12.5v34.957031c0 6.894531 5.605469 12.5 12.5 12.5h22c6.890626 0 12.5-5.605469 12.5-12.5v-34.957031c0-6.894531-5.609374-12.5-12.5-12.5zm-2.5 44.957031h-17v-29.957031h17zm0 0"/><path d="m387.726562 128.042969h-22c-6.894531 0-12.5 5.605469-12.5 12.5v34.957031c0 6.894531 5.605469 12.5 12.5 12.5h22c6.890626 0 12.5-5.605469 12.5-12.5v-34.957031c0-6.894531-5.609374-12.5-12.5-12.5zm-2.5 44.957031h-17v-29.957031h17zm0 0"/><path d="m326.726562 198h-22c-6.894531 0-12.5 5.605469-12.5 12.5v34.957031c0 6.894531 5.605469 12.5 12.5 12.5h22c6.890626 0 12.5-5.605469 12.5-12.5v-34.957031c0-6.894531-5.609374-12.5-12.5-12.5zm-2.5 44.957031h-17v-29.957031h17zm0 0"/><path d="m387.726562 198h-22c-6.894531 0-12.5 5.605469-12.5 12.5v34.957031c0 6.894531 5.605469 12.5 12.5 12.5h22c6.890626 0 12.5-5.605469 12.5-12.5v-34.957031c0-6.894531-5.609374-12.5-12.5-12.5zm-2.5 44.957031h-17v-29.957031h17zm0 0"/><path d="m326.726562 267.957031h-22c-6.894531 0-12.5 5.609375-12.5 12.5v34.957031c0 6.894532 5.605469 12.5 12.5 12.5h22c6.890626 0 12.5-5.605468 12.5-12.5v-34.957031c0-6.890625-5.609374-12.5-12.5-12.5zm-2.5 44.957031h-17v-29.957031h17zm0 0"/><path d="m387.726562 267.957031h-22c-6.894531 0-12.5 5.609375-12.5 12.5v34.957031c0 6.894532 5.605469 12.5 12.5 12.5h22c6.890626 0 12.5-5.605468 12.5-12.5v-34.957031c0-6.890625-5.609374-12.5-12.5-12.5zm-2.5 44.957031h-17v-29.957031h17zm0 0"/><path d="m326.726562 337.914062h-22c-6.894531 0-12.5 5.609376-12.5 12.5v34.960938c0 6.890625 5.605469 12.5 12.5 12.5h22c6.890626 0 12.5-5.609375 12.5-12.5v-34.960938c0-6.890624-5.609374-12.5-12.5-12.5zm-2.5 44.960938h-17v-29.960938h17zm0 0"/><path d="m387.726562 337.914062h-22c-6.894531 0-12.5 5.609376-12.5 12.5v34.960938c0 6.890625 5.605469 12.5 12.5 12.5h22c6.890626 0 12.5-5.609375 12.5-12.5v-34.960938c0-6.890624-5.609374-12.5-12.5-12.5zm-2.5 44.960938h-17v-29.960938h17zm0 0"/><path d="m504.5 422h-44v-27.660156c20.421875-3.566406 36-21.414063 36-42.839844 0-23.984375-19.515625-43.5-43.5-43.5-5.941406 0-11.609375 1.199219-16.773438 3.367188v-24.867188c0-4.140625-3.359374-7.5-7.5-7.5-4.140624 0-7.5 3.359375-7.5 7.5v35.335938c-7.265624 7.777343-11.726562 18.207031-11.726562 29.664062s4.460938 21.886719 11.726562 29.664062v40.726563h-145.902343v-236.390625c0-4.140625-3.359375-7.5-7.5-7.5-4.144531 0-7.5 3.359375-7.5 7.5v236.390625h-165.777344v-42.726563c6.214844-7.523437 9.953125-17.164062 9.953125-27.664062s-3.738281-20.140625-9.953125-27.664062v-276.839844h165.777344v103.003906c0 4.140625 3.355469 7.5 7.5 7.5 4.140625 0 7.5-3.359375 7.5-7.5v-35.003906h145.902343v135.503906c0 4.140625 3.355469 7.5 7.5 7.5 4.140626 0 7.5-3.359375 7.5-7.5v-135.503906h2.5c6.890626 0 12.5-5.605469 12.5-12.5v-21.996094c0-6.894531-5.609374-12.5-12.5-12.5h-163.402343v-21.003906h6.269531c6.894531 0 12.5-5.605469 12.5-12.5v-21.996094c0-6.894531-5.605469-12.5-12.5-12.5h-208.320312c-6.890626 0-12.5 5.605469-12.5 12.5v21.996094c0 6.894531 5.609374 12.5 12.5 12.5h6.273437v265.164062c-5.632813-2.664062-11.917969-4.160156-18.546875-4.160156-23.984375 0-43.5 19.515625-43.5 43.5 0 21.429688 15.578125 39.273438 36 42.839844v27.660156h-46c-4.140625 0-7.5 3.359375-7.5 7.5s3.359375 7.5 7.5 7.5h497c4.140625 0 7.5-3.359375 7.5-7.5s-3.359375-7.5-7.5-7.5zm-68.273438-339v16.996094h-160.902343v-16.996094zm-360.453124-51.003906v-16.996094h203.320312v16.996094zm3.773437 390.003906h-11.046875v-27.660156c3.882812-.679688 7.589844-1.867188 11.046875-3.5zm-11.046875-43.007812v-9.492188c0-4.140625-3.359375-7.5-7.5-7.5s-7.5 3.359375-7.5 7.5v9.492188c-12.085938-3.300782-21-14.375-21-27.492188 0-15.714844 12.785156-28.5 28.5-28.5s28.5 12.785156 28.5 28.5c0 13.117188-8.914062 24.191406-21 27.492188zm377 43.007812h-9.273438v-30.367188c2.941407 1.234376 6.046876 2.144532 9.273438 2.707032zm7.5-60c-4.140625 0-7.5 3.359375-7.5 7.5v9.492188c-12.085938-3.300782-21-14.375-21-27.492188 0-15.714844 12.785156-28.5 28.5-28.5s28.5 12.785156 28.5 28.5c0 13.117188-8.914062 24.191406-21 27.492188v-9.492188c0-4.140625-3.359375-7.5-7.5-7.5zm0 0"/></svg>