<?xml version="1.0" encoding="UTF-8"?>
<svg width="518px" height="518px" viewBox="0 0 518 518" version="1.1" xmlns="http://www.w3.org/2000/svg" xmlns:xlink="http://www.w3.org/1999/xlink">
    <!-- Generator: Sketch 52.6 (67491) - http://www.bohemiancoding.com/sketch -->
    <title>024-chair</title>
    <desc>Created with Sketch.</desc>
    <defs>
        <path d="M512,454.78 L512,421.653 C512,417.506 508.639,414.146 504.493,414.146 L495.436,414.146 L495.436,405.084 C495.436,391.811 484.637,381.012 471.364,381.012 L156.631,381.012 C143.358,381.012 132.559,391.811 132.559,405.084 L132.559,414.146 L113.825,414.146 L104.452,397.922 L112.297,393.391 C123.79,386.751 127.738,371.999 121.099,360.506 L87.954,303.133 C81.314,291.639 66.561,287.692 55.068,294.331 L47.224,298.863 L42.693,291.02 C41.697,289.295 40.058,288.039 38.134,287.524 C36.213,287.01 34.163,287.28 32.438,288.276 L3.753,304.846 C0.164,306.92 -1.065,311.511 1.008,315.101 L83.767,458.353 C83.79,458.395 83.819,458.432 83.843,458.473 C83.963,458.686 84.094,458.894 84.236,459.097 C84.267,459.14 84.294,459.186 84.325,459.228 C84.506,459.474 84.702,459.71 84.915,459.935 C84.942,459.964 84.972,459.99 85,460.018 C85.179,460.202 85.369,460.376 85.571,460.544 C85.638,460.6 85.707,460.654 85.776,460.708 C85.947,460.841 86.127,460.965 86.312,461.084 C86.391,461.135 86.467,461.188 86.548,461.236 C86.572,461.25 86.593,461.267 86.617,461.281 C86.72,461.34 86.827,461.382 86.931,461.436 C87.103,461.525 87.272,461.616 87.452,461.692 C87.609,461.758 87.768,461.808 87.927,461.863 C88.079,461.915 88.227,461.974 88.383,462.016 C88.599,462.075 88.817,462.114 89.036,462.154 C89.142,462.173 89.245,462.201 89.353,462.216 C89.689,462.262 90.026,462.288 90.362,462.288 C90.367,462.288 90.372,462.287 90.377,462.287 L96.519,462.287 L84.956,496.966 L7.549,496.966 C3.403,496.966 0.042,500.326 0.042,504.473 C0.042,508.62 3.403,511.98 7.549,511.98 L504.493,511.98 C508.639,511.98 512,508.62 512,504.473 C512,500.326 508.639,496.966 504.493,496.966 L493.341,496.966 L481.779,462.287 L504.493,462.287 C508.639,462.287 512,458.927 512,454.78 Z M62.578,307.329 C66.902,304.832 72.455,306.317 74.953,310.642 L108.098,368.015 C110.596,372.339 109.111,377.891 104.785,380.39 L96.943,384.919 L54.735,311.859 L62.578,307.329 Z M90.368,439.767 L17.764,314.09 L33.448,305.03 L100.824,421.655 L90.368,439.767 Z M129.65,462.287 L118.089,496.961 L100.785,496.961 L112.346,462.286 L129.65,462.286 L129.65,462.287 Z M133.914,496.966 L145.477,462.287 L432.824,462.287 L444.385,496.966 L133.914,496.966 Z M460.208,496.961 L448.649,462.286 L465.952,462.286 L477.512,496.961 L460.208,496.961 Z M496.986,447.273 L471.362,447.273 L438.232,447.273 L140.066,447.273 L106.936,447.273 L103.371,447.273 L113.826,429.16 L409.73,429.16 C413.876,429.16 417.237,425.8 417.237,421.653 C417.237,417.506 413.876,414.146 409.73,414.146 L147.573,414.146 L147.573,405.084 C147.573,400.089 151.637,396.026 156.631,396.026 L231.947,396.026 L231.947,396.802 C231.947,400.949 235.308,404.309 239.454,404.309 C243.6,404.309 246.961,400.949 246.961,396.802 L246.961,396.026 L364.469,396.026 L364.469,396.802 C364.469,400.949 367.83,404.309 371.976,404.309 C376.122,404.309 379.483,400.949 379.483,396.802 L379.483,396.026 L471.363,396.026 C476.358,396.026 480.421,400.09 480.421,405.084 L480.421,414.146 L439.756,414.146 C435.61,414.146 432.249,417.506 432.249,421.653 C432.249,425.8 435.61,429.16 439.756,429.16 L496.985,429.16 L496.986,447.273 Z" id="path-1"></path>
        <filter x="-0.6%" y="-1.3%" width="102.3%" height="105.3%" filterUnits="objectBoundingBox" id="filter-2">
            <feOffset dx="6" dy="6" in="SourceAlpha" result="shadowOffsetOuter1"></feOffset>
            <feColorMatrix values="0 0 0 0 0.917647059   0 0 0 0 0.937254902   0 0 0 0 0  0 0 0 1 0" type="matrix" in="shadowOffsetOuter1"></feColorMatrix>
        </filter>
        <path d="M355.409,180.683 C386.95,180.683 412.61,155.022 412.61,123.482 C412.61,91.942 386.95,66.281 355.409,66.281 C323.868,66.281 298.208,91.942 298.208,123.482 C298.208,155.022 323.868,180.683 355.409,180.683 Z M355.409,81.293 C378.671,81.293 397.596,100.219 397.596,123.48 C397.596,146.742 378.67,165.667 355.409,165.667 C332.146,165.667 313.222,146.741 313.222,123.48 C313.222,100.219 332.146,81.293 355.409,81.293 Z" id="path-3"></path>
        <filter x="-2.6%" y="-2.6%" width="110.5%" height="110.5%" filterUnits="objectBoundingBox" id="filter-4">
            <feOffset dx="6" dy="6" in="SourceAlpha" result="shadowOffsetOuter1"></feOffset>
            <feColorMatrix values="0 0 0 0 0.917647059   0 0 0 0 0.937254902   0 0 0 0 0  0 0 0 1 0" type="matrix" in="shadowOffsetOuter1"></feColorMatrix>
        </filter>
        <path d="M355.409,48.163 C359.555,48.163 362.916,44.803 362.916,40.656 L362.916,7.527 C362.916,3.38 359.555,0.02 355.409,0.02 C351.263,0.02 347.902,3.38 347.902,7.527 L347.902,40.656 C347.902,44.802 351.263,48.163 355.409,48.163 Z" id="path-5"></path>
        <filter x="-20.0%" y="-6.2%" width="179.9%" height="124.9%" filterUnits="objectBoundingBox" id="filter-6">
            <feOffset dx="6" dy="6" in="SourceAlpha" result="shadowOffsetOuter1"></feOffset>
            <feColorMatrix values="0 0 0 0 0.917647059   0 0 0 0 0.937254902   0 0 0 0 0  0 0 0 1 0" type="matrix" in="shadowOffsetOuter1"></feColorMatrix>
        </filter>
        <path d="M291.535,70.223 C293,71.688 294.922,72.421 296.843,72.421 C298.764,72.421 300.686,71.688 302.151,70.223 C305.083,67.29 305.083,62.538 302.151,59.606 L278.725,36.181 C275.793,33.25 271.04,33.25 268.108,36.181 C265.176,39.114 265.176,43.866 268.108,46.798 L291.535,70.223 Z" id="path-7"></path>
        <filter x="-7.8%" y="-7.8%" width="131.2%" height="131.2%" filterUnits="objectBoundingBox" id="filter-8">
            <feOffset dx="6" dy="6" in="SourceAlpha" result="shadowOffsetOuter1"></feOffset>
            <feColorMatrix values="0 0 0 0 0.917647059   0 0 0 0 0.937254902   0 0 0 0 0  0 0 0 1 0" type="matrix" in="shadowOffsetOuter1"></feColorMatrix>
        </filter>
        <path d="M239.454,130.989 L272.583,130.989 C276.729,130.989 280.09,127.629 280.09,123.482 C280.09,119.335 276.729,115.975 272.583,115.975 L239.454,115.975 C235.308,115.975 231.947,119.335 231.947,123.482 C231.947,127.629 235.308,130.989 239.454,130.989 Z" id="path-9"></path>
        <filter x="-6.2%" y="-20.0%" width="124.9%" height="179.9%" filterUnits="objectBoundingBox" id="filter-10">
            <feOffset dx="6" dy="6" in="SourceAlpha" result="shadowOffsetOuter1"></feOffset>
            <feColorMatrix values="0 0 0 0 0.917647059   0 0 0 0 0.937254902   0 0 0 0 0  0 0 0 1 0" type="matrix" in="shadowOffsetOuter1"></feColorMatrix>
        </filter>
        <path d="M291.534,176.74 L268.109,200.166 C265.177,203.098 265.177,207.851 268.109,210.782 C269.574,212.247 271.496,212.98 273.417,212.98 C275.338,212.98 277.26,212.247 278.725,210.781 L302.15,187.355 C305.082,184.423 305.082,179.67 302.15,176.739 C299.219,173.808 294.465,173.807 291.534,176.74 Z" id="path-11"></path>
        <filter x="-7.8%" y="-7.8%" width="131.2%" height="131.2%" filterUnits="objectBoundingBox" id="filter-12">
            <feOffset dx="6" dy="6" in="SourceAlpha" result="shadowOffsetOuter1"></feOffset>
            <feColorMatrix values="0 0 0 0 0.917647059   0 0 0 0 0.937254902   0 0 0 0 0  0 0 0 1 0" type="matrix" in="shadowOffsetOuter1"></feColorMatrix>
        </filter>
        <path d="M347.901,206.307 L347.901,239.436 C347.901,243.583 351.262,246.943 355.408,246.943 C359.554,246.943 362.915,243.583 362.915,239.436 L362.915,206.307 C362.915,202.16 359.554,198.8 355.408,198.8 C351.262,198.8 347.901,202.161 347.901,206.307 Z" id="path-13"></path>
        <filter x="-20.0%" y="-6.2%" width="179.9%" height="124.9%" filterUnits="objectBoundingBox" id="filter-14">
            <feOffset dx="6" dy="6" in="SourceAlpha" result="shadowOffsetOuter1"></feOffset>
            <feColorMatrix values="0 0 0 0 0.917647059   0 0 0 0 0.937254902   0 0 0 0 0  0 0 0 1 0" type="matrix" in="shadowOffsetOuter1"></feColorMatrix>
        </filter>
        <path d="M408.667,176.74 C405.735,179.673 405.735,184.425 408.667,187.357 L432.093,210.782 C433.558,212.247 435.48,212.98 437.401,212.98 C439.322,212.98 441.244,212.247 442.709,210.782 C445.641,207.849 445.641,203.097 442.709,200.165 L419.283,176.74 C416.351,173.809 411.598,173.809 408.667,176.74 Z" id="path-15"></path>
        <filter x="-7.8%" y="-7.8%" width="131.2%" height="131.2%" filterUnits="objectBoundingBox" id="filter-16">
            <feOffset dx="6" dy="6" in="SourceAlpha" result="shadowOffsetOuter1"></feOffset>
            <feColorMatrix values="0 0 0 0 0.917647059   0 0 0 0 0.937254902   0 0 0 0 0  0 0 0 1 0" type="matrix" in="shadowOffsetOuter1"></feColorMatrix>
        </filter>
        <path d="M430.727,123.482 C430.727,127.629 434.088,130.989 438.234,130.989 L471.363,130.989 C475.509,130.989 478.87,127.629 478.87,123.482 C478.87,119.335 475.509,115.975 471.363,115.975 L438.234,115.975 C434.088,115.975 430.727,119.335 430.727,123.482 Z" id="path-17"></path>
        <filter x="-6.2%" y="-20.0%" width="124.9%" height="179.9%" filterUnits="objectBoundingBox" id="filter-18">
            <feOffset dx="6" dy="6" in="SourceAlpha" result="shadowOffsetOuter1"></feOffset>
            <feColorMatrix values="0 0 0 0 0.917647059   0 0 0 0 0.937254902   0 0 0 0 0  0 0 0 1 0" type="matrix" in="shadowOffsetOuter1"></feColorMatrix>
        </filter>
        <path d="M413.975,72.422 C415.896,72.422 417.818,71.689 419.283,70.224 L442.709,46.798 C445.641,43.865 445.641,39.113 442.709,36.181 C439.777,33.25 435.024,33.25 432.093,36.181 L408.667,59.607 C405.735,62.54 405.735,67.292 408.667,70.224 C410.133,71.69 412.054,72.422 413.975,72.422 Z" id="path-19"></path>
        <filter x="-7.8%" y="-7.8%" width="131.2%" height="131.2%" filterUnits="objectBoundingBox" id="filter-20">
            <feOffset dx="6" dy="6" in="SourceAlpha" result="shadowOffsetOuter1"></feOffset>
            <feColorMatrix values="0 0 0 0 0.917647059   0 0 0 0 0.937254902   0 0 0 0 0  0 0 0 1 0" type="matrix" in="shadowOffsetOuter1"></feColorMatrix>
        </filter>
    </defs>
    <g id="Page-1" stroke="none" stroke-width="1" fill="none" fill-rule="evenodd">
        <g id="024-chair">
            <g id="Shape" fill-rule="nonzero">
                <use fill="black" fill-opacity="1" filter="url(#filter-2)" xlink:href="#path-1"></use>
                <use fill="#000000" xlink:href="#path-1"></use>
            </g>
            <g id="Shape" fill-rule="nonzero">
                <use fill="black" fill-opacity="1" filter="url(#filter-4)" xlink:href="#path-3"></use>
                <use fill="#000000" xlink:href="#path-3"></use>
            </g>
            <g id="Path">
                <use fill="black" fill-opacity="1" filter="url(#filter-6)" xlink:href="#path-5"></use>
                <use fill="#000000" fill-rule="evenodd" xlink:href="#path-5"></use>
            </g>
            <g id="Path">
                <use fill="black" fill-opacity="1" filter="url(#filter-8)" xlink:href="#path-7"></use>
                <use fill="#000000" fill-rule="evenodd" xlink:href="#path-7"></use>
            </g>
            <g id="Path">
                <use fill="black" fill-opacity="1" filter="url(#filter-10)" xlink:href="#path-9"></use>
                <use fill="#000000" fill-rule="evenodd" xlink:href="#path-9"></use>
            </g>
            <g id="Path">
                <use fill="black" fill-opacity="1" filter="url(#filter-12)" xlink:href="#path-11"></use>
                <use fill="#000000" fill-rule="evenodd" xlink:href="#path-11"></use>
            </g>
            <g id="Path">
                <use fill="black" fill-opacity="1" filter="url(#filter-14)" xlink:href="#path-13"></use>
                <use fill="#000000" fill-rule="evenodd" xlink:href="#path-13"></use>
            </g>
            <g id="Path">
                <use fill="black" fill-opacity="1" filter="url(#filter-16)" xlink:href="#path-15"></use>
                <use fill="#000000" fill-rule="evenodd" xlink:href="#path-15"></use>
            </g>
            <g id="Path">
                <use fill="black" fill-opacity="1" filter="url(#filter-18)" xlink:href="#path-17"></use>
                <use fill="#000000" fill-rule="evenodd" xlink:href="#path-17"></use>
            </g>
            <g id="Path">
                <use fill="black" fill-opacity="1" filter="url(#filter-20)" xlink:href="#path-19"></use>
                <use fill="#000000" fill-rule="evenodd" xlink:href="#path-19"></use>
            </g>
        </g>
    </g>
</svg>