<?xml version="1.0" encoding="UTF-8"?>
<svg width="24px" height="19px" viewBox="0 0 24 19" version="1.1" xmlns="http://www.w3.org/2000/svg" xmlns:xlink="http://www.w3.org/1999/xlink">
    <!-- Generator: Sketch 51.3 (57544) - http://www.bohemiancoding.com/sketch -->
    <title>Shape</title>
    <desc>Created with Sketch.</desc>
    <defs></defs>
    <g id="Tools" stroke="none" stroke-width="1" fill="none" fill-rule="evenodd">
        <g id="Footer" transform="translate(-501.000000, -253.000000)" fill="#FFFFFF" fill-rule="nonzero">
            <g id="Group-4" transform="translate(443.000000, 243.000000)">
                <g id="if_square-twitter_317723" transform="translate(51.000000, 0.000000)">
                    <path d="M31,12.2495468 C30.1162255,12.6319935 29.1688097,12.8873539 28.1697603,13.0037507 C29.1904238,12.4122648 29.9709311,11.4727761 30.3383699,10.3539414 C29.3873518,10.9014815 28.3330665,11.3005564 27.2103367,11.5155342 C26.3121529,10.5831718 25.0321209,10 23.6164007,10 C20.895432,10 18.6932006,12.1462149 18.6932006,14.7960243 C18.6932006,15.1689692 18.7364287,15.5383509 18.8180818,15.8911046 C14.7270226,15.6868163 11.0982639,13.7781459 8.66908491,10.8777271 C8.24641017,11.5867975 8.00145094,12.4098894 8.00145094,13.2911796 C8.00145094,14.9528037 8.87321759,16.4208289 10.1916746,17.2819279 C9.38595087,17.255798 8.62585681,17.0408202 7.96302597,16.6809402 C7.96182519,16.7011315 7.96182519,16.7213227 7.96182519,16.7427018 C7.96182519,19.0646996 9.65972882,21.0054385 11.9123931,21.4460836 C11.5005253,21.5529787 11.0658428,21.6147403 10.6143493,21.6147403 C10.2973433,21.6147403 9.98994346,21.5862349 9.68974834,21.5292242 C10.3141542,23.4343314 12.1321359,24.8204038 14.2863361,24.8607864 C12.607645,26.1459024 10.4822635,26.9131712 8.17556412,26.9131712 C7.77930655,26.9131712 7.38545054,26.8917922 7,26.8466587 C9.17821584,28.2066012 11.7682994,29 14.549307,29 C23.6043929,29 28.5576124,21.6907545 28.5576124,15.3518785 C28.5576124,15.1464025 28.5516085,14.9361755 28.5432031,14.733075 C29.5038275,14.0548853 30.3407715,13.2104145 31,12.2495468 Z" id="Shape"></path>
                </g>
            </g>
        </g>
    </g>
</svg>