<?xml version="1.0" encoding="UTF-8"?>
<svg width="385px" height="385px" viewBox="0 0 385 385" version="1.1" xmlns="http://www.w3.org/2000/svg" xmlns:xlink="http://www.w3.org/1999/xlink">
    <!-- Generator: Sketch 52.6 (67491) - http://www.bohemiancoding.com/sketch -->
    <title>013-wifi</title>
    <desc>Created with Sketch.</desc>
    <defs>
        <path d="M96.7998045,234.802734 C98.1972653,233.408203 99,231.47168 99,229.5 C99,227.52832 98.1972653,225.591796 96.7998045,224.197265 C95.4052732,222.802734 93.4716795,222 91.5,222 C89.5253903,222 87.5917972,222.802734 86.1972653,224.197265 C84.7939455,225.591796 84,227.52832 84,229.5 C84,231.471679 84.7939455,233.408203 86.1972653,234.802734 C87.5917972,236.197265 89.5253903,237 91.5,237 C93.4716795,237 95.4052732,236.197265 96.7998045,234.802734 Z" id="path-1"></path>
        <filter x="-20.0%" y="-20.0%" width="180.0%" height="180.0%" filterUnits="objectBoundingBox" id="filter-2">
            <feOffset dx="6" dy="6" in="SourceAlpha" result="shadowOffsetOuter1"></feOffset>
            <feColorMatrix values="0 0 0 0 0.917647059   0 0 0 0 0.937254902   0 0 0 0 0  0 0 0 1 0" type="matrix" in="shadowOffsetOuter1"></feColorMatrix>
        </filter>
        <path d="M262.589178,364.188679 L31.1254544,364.188679 C22.1340428,364.188679 14.8216449,356.878482 14.8216449,347.896226 L14.8216449,253.103774 C14.8216449,244.118624 22.1340428,236.811321 31.1254544,236.811321 L61.7500994,236.811321 C65.8434205,236.811321 69.1609219,233.49613 69.1609219,229.40566 C69.1609219,225.31519 65.8434205,222 61.7500994,222 L31.1254544,222 C13.9618739,222 0,235.952148 0,253.103774 L0,347.896226 C0,365.044959 13.9618739,379 31.1254544,379 L262.589178,379 C266.682499,379 270,375.684809 270,371.59434 C270,367.503869 266.682499,364.188679 262.589178,364.188679 Z" id="path-3"></path>
        <filter x="-1.1%" y="-1.9%" width="104.4%" height="107.6%" filterUnits="objectBoundingBox" id="filter-4">
            <feOffset dx="6" dy="6" in="SourceAlpha" result="shadowOffsetOuter1"></feOffset>
            <feColorMatrix values="0 0 0 0 0.917647059   0 0 0 0 0.937254902   0 0 0 0 0  0 0 0 1 0" type="matrix" in="shadowOffsetOuter1"></feColorMatrix>
        </filter>
        <path d="M291.5,364 C289.528321,364 287.594727,364.802734 286.200196,366.197265 C284.802735,367.591796 284,369.52832 284,371.5 C284,373.471679 284.802735,375.408203 286.200196,376.802734 C287.594727,378.197265 289.528321,379 291.5,379 C293.480469,379 295.408203,378.197265 296.802735,376.802734 C298.200195,375.408203 299,373.47168 299,371.5 C299,369.52832 298.200196,367.591796 296.802735,366.197265 C295.408203,364.802734 293.47461,364 291.5,364 Z" id="path-5"></path>
        <filter x="-20.0%" y="-20.0%" width="180.0%" height="180.0%" filterUnits="objectBoundingBox" id="filter-6">
            <feOffset dx="6" dy="6" in="SourceAlpha" result="shadowOffsetOuter1"></feOffset>
            <feColorMatrix values="0 0 0 0 0.917647059   0 0 0 0 0.937254902   0 0 0 0 0  0 0 0 1 0" type="matrix" in="shadowOffsetOuter1"></feColorMatrix>
        </filter>
        <path d="M347.939422,222 L121.395376,222 C117.310586,222 114,225.31519 114,229.40566 C114,233.49613 117.310586,236.811321 121.395376,236.811321 L347.939422,236.811321 C356.912092,236.811321 364.209249,244.118624 364.209249,253.103774 L364.209249,347.896226 C364.209249,356.878482 356.912092,364.188679 347.939422,364.188679 L321.561619,364.188679 C317.47683,364.188679 314.166243,367.503869 314.166243,371.59434 C314.166243,375.684809 317.47683,379 321.561619,379 L347.939422,379 C365.067228,379 379,365.044959 379,347.896226 L379,253.103774 C379,235.952148 365.067228,222 347.939422,222 Z" id="path-7"></path>
        <filter x="-1.1%" y="-1.9%" width="104.5%" height="107.6%" filterUnits="objectBoundingBox" id="filter-8">
            <feOffset dx="6" dy="6" in="SourceAlpha" result="shadowOffsetOuter1"></feOffset>
            <feColorMatrix values="0 0 0 0 0.917647059   0 0 0 0 0.937254902   0 0 0 0 0  0 0 0 1 0" type="matrix" in="shadowOffsetOuter1"></feColorMatrix>
        </filter>
        <path d="M66.6735372,263.532465 C62.8616602,265.049972 61.0094301,269.356799 62.5336009,273.152009 L86.3164631,332.349204 C87.4458004,335.158759 90.177694,337 93.2173251,337 C96.2569562,337 98.9888497,335.158759 100.118187,332.349204 L117.000187,290.327289 L133.882187,332.349204 C135.011525,335.158759 137.743418,337 140.783049,337 C143.822681,337 146.554574,335.158759 147.683911,332.349204 L171.466774,273.152009 C172.990944,269.356799 171.135811,265.049972 167.326837,263.532465 C163.51496,262.012069 159.18922,263.859091 157.66505,267.654301 L140.783049,309.676217 L123.901049,267.654301 C122.771712,264.844747 120.039818,263.003506 117.000187,263.003506 C113.960556,263.003506 111.228663,264.844747 110.099325,267.654301 L93.2173251,309.676217 L76.335325,267.654301 C74.8082519,263.859091 70.4825112,262.012069 66.6735372,263.532465 Z" id="path-9"></path>
        <filter x="-2.7%" y="-4.1%" width="110.9%" height="116.2%" filterUnits="objectBoundingBox" id="filter-10">
            <feOffset dx="6" dy="6" in="SourceAlpha" result="shadowOffsetOuter1"></feOffset>
            <feColorMatrix values="0 0 0 0 0.917647059   0 0 0 0 0.937254902   0 0 0 0 0  0 0 0 1 0" type="matrix" in="shadowOffsetOuter1"></feColorMatrix>
        </filter>
        <path d="M210,329.6 L210,270.4 C210,266.312656 206.642579,263 202.5,263 C198.357421,263 195,266.312656 195,270.4 L195,329.6 C195,333.687343 198.357421,337 202.5,337 C206.642579,337 210,333.687343 210,329.6 Z" id="path-11"></path>
        <filter x="-20.0%" y="-4.1%" width="180.0%" height="116.2%" filterUnits="objectBoundingBox" id="filter-12">
            <feOffset dx="6" dy="6" in="SourceAlpha" result="shadowOffsetOuter1"></feOffset>
            <feColorMatrix values="0 0 0 0 0.917647059   0 0 0 0 0.937254902   0 0 0 0 0  0 0 0 1 0" type="matrix" in="shadowOffsetOuter1"></feColorMatrix>
        </filter>
        <path d="M317,329.6 L317,270.4 C317,266.312656 313.642579,263 309.5,263 C305.357421,263 302,266.312656 302,270.4 L302,329.6 C302,333.687343 305.357421,337 309.5,337 C313.642579,337 317,333.687343 317,329.6 Z" id="path-13"></path>
        <filter x="-20.0%" y="-4.1%" width="180.0%" height="116.2%" filterUnits="objectBoundingBox" id="filter-14">
            <feOffset dx="6" dy="6" in="SourceAlpha" result="shadowOffsetOuter1"></feOffset>
            <feColorMatrix values="0 0 0 0 0.917647059   0 0 0 0 0.937254902   0 0 0 0 0  0 0 0 1 0" type="matrix" in="shadowOffsetOuter1"></feColorMatrix>
        </filter>
        <path d="M270.666667,277.8 C274.717188,277.8 278,274.487343 278,270.4 C278,266.312656 274.717188,263 270.666667,263 L241.333333,263 C237.282812,263 234,266.312656 234,270.4 L234,329.6 C234,333.687343 237.282812,337 241.333333,337 C245.383855,337 248.666667,333.687343 248.666667,329.6 L248.666667,307.4 L270.666667,307.4 C274.717188,307.4 278,304.087343 278,300 C278,295.912656 274.717188,292.6 270.666667,292.6 L248.666667,292.6 L248.666667,277.8 L270.666667,277.8 Z" id="path-15"></path>
        <filter x="-6.8%" y="-4.1%" width="127.3%" height="116.2%" filterUnits="objectBoundingBox" id="filter-16">
            <feOffset dx="6" dy="6" in="SourceAlpha" result="shadowOffsetOuter1"></feOffset>
            <feColorMatrix values="0 0 0 0 0.917647059   0 0 0 0 0.937254902   0 0 0 0 0  0 0 0 1 0" type="matrix" in="shadowOffsetOuter1"></feColorMatrix>
        </filter>
        <path d="M103.986825,85.6372956 C151.138568,38.5725996 227.859262,38.5725996 275.011004,85.6372956 C279.768427,90.3859368 286.094296,93 292.822405,93 C299.550514,93 305.876382,90.3859368 310.633806,85.6372956 C320.455398,75.833836 320.455398,59.883716 310.633806,50.0831447 C278.278115,17.7871855 235.25584,0 189.498915,0 C143.741989,0 100.719714,17.7871855 68.3640232,50.0831447 C58.5453256,59.883716 58.5453256,75.833836 68.3640232,85.6372956 C78.1856151,95.4378669 94.1652341,95.4407552 103.986825,85.6372956 Z M78.8425094,60.5393984 C108.399886,31.0365871 147.697828,14.7889555 189.498915,14.7889555 C231.300002,14.7889555 270.597943,31.0365871 300.15532,60.5393984 C304.200866,64.5774761 304.200866,71.1458524 300.15532,75.1810419 C298.19621,77.1365344 295.591781,78.2139335 292.822405,78.2139335 C290.053029,78.2139335 287.448599,77.1365344 285.48949,75.1810419 C259.019809,48.760226 224.26515,35.5570399 189.498915,35.5570399 C154.741361,35.5570399 119.969339,48.7688916 93.5083391,75.1810419 C89.4656865,79.2162313 82.8851627,79.2162313 78.8425094,75.1810419 C74.7969632,71.1429641 74.7969632,64.5745878 78.8425094,60.5393984 Z" id="path-17"></path>
        <filter x="-1.2%" y="-3.2%" width="104.7%" height="112.9%" filterUnits="objectBoundingBox" id="filter-18">
            <feOffset dx="6" dy="6" in="SourceAlpha" result="shadowOffsetOuter1"></feOffset>
            <feColorMatrix values="0 0 0 0 0.917647059   0 0 0 0 0.937254902   0 0 0 0 0  0 0 0 1 0" type="matrix" in="shadowOffsetOuter1"></feColorMatrix>
        </filter>
        <path d="M243.87381,143 C250.588182,143 256.901136,140.371594 261.648845,135.596896 C271.450385,125.739646 271.450385,109.702009 261.648845,99.8447582 C242.51072,80.5978514 217.065416,70 190,70 C162.934584,70 137.48928,80.5978514 118.351155,99.8447582 C108.549615,109.702009 108.549615,125.739646 118.351155,135.596896 C128.152693,145.454147 144.099687,145.451243 153.898339,135.596896 C163.523715,125.916809 176.346,120.587388 190,120.587388 C203.654,120.587388 216.473397,125.916809 226.098774,135.596896 C230.849372,140.371594 237.159437,143 243.87381,143 Z M143.444134,125.080366 C139.409734,129.140601 132.842646,129.140601 128.808247,125.080366 C124.77096,121.023035 124.77096,114.41862 128.808247,110.361289 C145.153772,93.9228563 166.885233,84.8701014 190,84.8701014 C213.117654,84.8701014 234.849116,93.9228563 251.194641,110.361289 C255.22904,114.41862 255.22904,121.023035 251.194641,125.080366 C249.239531,127.046588 246.637532,128.129899 243.87381,128.129899 C241.110087,128.129899 238.510976,127.046588 236.555866,125.080366 C223.719142,112.170678 206.862459,105.720191 190,105.720191 C173.140428,105.720191 156.27797,112.173582 143.444134,125.080366 Z" id="path-19"></path>
        <filter x="-1.9%" y="-4.1%" width="107.6%" height="116.4%" filterUnits="objectBoundingBox" id="filter-20">
            <feOffset dx="6" dy="6" in="SourceAlpha" result="shadowOffsetOuter1"></feOffset>
            <feColorMatrix values="0 0 0 0 0.917647059   0 0 0 0 0.937254902   0 0 0 0 0  0 0 0 1 0" type="matrix" in="shadowOffsetOuter1"></feColorMatrix>
        </filter>
        <path d="M172.321346,154.316863 C167.668313,158.970698 165,165.414249 165,171.995691 C165,178.582879 167.668313,185.029302 172.327091,189.688883 C176.982996,194.336972 183.425437,197 190,197 C196.574563,197 203.017004,194.334099 207.675781,189.683138 C212.331687,185.029302 215,178.582879 215,171.995691 C215,165.414249 212.331687,158.970698 207.670037,154.311117 C203.014132,149.665901 196.574563,147 190,147 C183.425437,147 176.985868,149.665901 172.321346,154.316863 Z M200.294118,171.995691 C200.294118,174.710428 199.194049,177.367711 197.284007,179.278081 C195.365349,181.194197 192.711397,182.291583 190,182.291583 C187.288603,182.291583 184.634651,181.194197 182.721737,179.283826 C180.805951,177.367711 179.705882,174.710428 179.705882,171.995691 C179.705882,169.286699 180.805951,166.63229 182.715993,164.721919 C184.634651,162.805803 187.291475,161.708417 190,161.708417 C192.708525,161.708417 195.365349,162.805803 197.278263,164.716174 C199.194049,166.63229 200.294118,169.286699 200.294118,171.995691 Z" id="path-21"></path>
        <filter x="-6.0%" y="-6.0%" width="124.0%" height="124.0%" filterUnits="objectBoundingBox" id="filter-22">
            <feOffset dx="6" dy="6" in="SourceAlpha" result="shadowOffsetOuter1"></feOffset>
            <feColorMatrix values="0 0 0 0 0.917647059   0 0 0 0 0.937254902   0 0 0 0 0  0 0 0 1 0" type="matrix" in="shadowOffsetOuter1"></feColorMatrix>
        </filter>
    </defs>
    <g id="Page-1" stroke="none" stroke-width="1" fill="none" fill-rule="evenodd">
        <g id="013-wifi">
            <g id="Path">
                <use fill="black" fill-opacity="1" filter="url(#filter-2)" xlink:href="#path-1"></use>
                <use fill="#000000" fill-rule="evenodd" xlink:href="#path-1"></use>
            </g>
            <g id="Path">
                <use fill="black" fill-opacity="1" filter="url(#filter-4)" xlink:href="#path-3"></use>
                <use fill="#000000" fill-rule="evenodd" xlink:href="#path-3"></use>
            </g>
            <g id="Path">
                <use fill="black" fill-opacity="1" filter="url(#filter-6)" xlink:href="#path-5"></use>
                <use fill="#000000" fill-rule="evenodd" xlink:href="#path-5"></use>
            </g>
            <g id="Path">
                <use fill="black" fill-opacity="1" filter="url(#filter-8)" xlink:href="#path-7"></use>
                <use fill="#000000" fill-rule="evenodd" xlink:href="#path-7"></use>
            </g>
            <g id="Path">
                <use fill="black" fill-opacity="1" filter="url(#filter-10)" xlink:href="#path-9"></use>
                <use fill="#000000" fill-rule="evenodd" xlink:href="#path-9"></use>
            </g>
            <g id="Path">
                <use fill="black" fill-opacity="1" filter="url(#filter-12)" xlink:href="#path-11"></use>
                <use fill="#000000" fill-rule="evenodd" xlink:href="#path-11"></use>
            </g>
            <g id="Path">
                <use fill="black" fill-opacity="1" filter="url(#filter-14)" xlink:href="#path-13"></use>
                <use fill="#000000" fill-rule="evenodd" xlink:href="#path-13"></use>
            </g>
            <g id="Path">
                <use fill="black" fill-opacity="1" filter="url(#filter-16)" xlink:href="#path-15"></use>
                <use fill="#000000" fill-rule="evenodd" xlink:href="#path-15"></use>
            </g>
            <g id="Shape" fill-rule="nonzero">
                <use fill="black" fill-opacity="1" filter="url(#filter-18)" xlink:href="#path-17"></use>
                <use fill="#000000" xlink:href="#path-17"></use>
            </g>
            <g id="Shape" fill-rule="nonzero">
                <use fill="black" fill-opacity="1" filter="url(#filter-20)" xlink:href="#path-19"></use>
                <use fill="#000000" xlink:href="#path-19"></use>
            </g>
            <g id="Shape" fill-rule="nonzero">
                <use fill="black" fill-opacity="1" filter="url(#filter-22)" xlink:href="#path-21"></use>
                <use fill="#000000" xlink:href="#path-21"></use>
            </g>
        </g>
    </g>
</svg>