<svg xmlns="http://www.w3.org/2000/svg" xmlns:xlink="http://www.w3.org/1999/xlink" viewBox="0 0 955 900"><defs><path id="a" d="M500.594 1403.24c-16.218-205.53-33.866-308.06-130.217-384.36-96.35-76.305-22.418-217.462 93.489-126.854 115.907 90.608-17.172 593.244 293.822 601.824 310.992 8.59 231.814-503.109 101.597-689.571-130.216-186.461-151.204-467.823-29.096-550.8C989.025 145.226 891.72-85.109 678.031 32.681 550.2 103.26 594.082 253.957 641.304 342.657c105.89 199.337-101.598 292.329-169.806 147.834-75.364-160.233 124.492-217.459 19.556-398.675S131.885 29.82 160.505 222.004c28.619 192.184 123.538 364.816-1.431 426.811C34.104 710.81-96.112 894.887 101.836 1069.9c197.948 175.02-56.285 384.37 124.492 539.84 180.777 155.46 290.006-9.07 274.266-206.5z"/></defs><g fill="none" fill-rule="evenodd" transform="translate(61 -322)"><mask id="b" fill="#fff"><use xlink:href="#a"/></mask><path fill="#3B2C5F" fill-rule="nonzero" d="M-42 322h936v900H-42z" mask="url(#b)"/></g></svg>