<?xml version="1.0" encoding="UTF-8"?>
<svg width="257px" height="64px" viewBox="0 0 257 64" version="1.1" xmlns="http://www.w3.org/2000/svg" xmlns:xlink="http://www.w3.org/1999/xlink">
    <!-- Generator: Sketch 51.3 (57544) - http://www.bohemiancoding.com/sketch -->
    <title>walk.in_2 copy</title>
    <desc>Created with Sketch.</desc>
    <defs>
        <polygon id="path-1" points="0.0157978723 0.0188531073 197.874407 0.0188531073 197.874407 47 0.0157978723 47"></polygon>
    </defs>
    <g id="Page-1" stroke="none" stroke-width="1" fill="none" fill-rule="evenodd">
        <g id="walk.in_2-copy">
            <g id="Group-5" transform="translate(0.000000, 17.000000)">
                <mask id="mask-2" fill="white">
                    <use xlink:href="#path-1"></use>
                </mask>
                <g id="Clip-3"></g>
                <path d="M190.94467,33.0221469 C187.117372,33.0221469 184.014934,36.1514972 184.014934,40.0110734 C184.014934,43.8711808 187.117372,47 190.94467,47 C194.771968,47 197.874407,43.8711808 197.874407,40.0110734 C197.874407,36.1514972 194.771968,33.0221469 190.94467,33.0221469" id="Fill-2" fill="#FFFFFF" mask="url(#mask-2)"></path>
                <polyline id="Fill-4" fill="#FFFFFF" mask="url(#mask-2)" points="58.3107367 0.0188531073 49.7896277 27.2568136 41.2669388 0.0188531073 29.1549734 0.0188531073 20.6338644 27.2568136 12.1117021 0.0188531073 0 0.0188531073 14.5780133 46.6117853 26.6886622 46.6117853 35.2108245 19.3738249 43.7335133 46.6117853 55.8444255 46.6117853 70.4224388 0.0188531073 58.3107367 0.0188531073"></polyline>
            </g>
            <g id="Group" transform="translate(201.000000, 0.000000)" fill="#FFFFFF">
                <polyline id="Fill-6" points="1.70999052 26.9334215 1.70999052 63.8778182 13.3529479 63.8778182 13.3529479 26.7403636 1.70999052 26.7403636 1.70999052 26.9334215"></polyline>
                <path d="M7.40208531,6.63166942 C3.43617062,6.63166942 0.222938389,9.8353719 0.222938389,13.7856529 C0.222938389,17.7372562 3.43617062,20.9396364 7.40208531,20.9396364 C11.3677346,20.9396364 14.5809668,17.7372562 14.5809668,13.7856529 C14.5809668,9.8353719 11.3677346,6.63166942 7.40208531,6.63166942" id="Fill-7"></path>
                <path d="M40.3178768,0.0716694215 L19.1734976,0.0716694215 L19.1734976,63.8778182 L30.8161896,63.8778182 L30.8161896,11.673124 L40.3178768,11.673124 C42.52709,11.673124 44.3238673,13.4632727 44.3238673,15.6638678 L44.3238673,63.8778182 L55.9665592,63.8778182 L55.9665592,15.6638678 C55.9665592,7.05322314 48.9612512,0.0716694215 40.3178768,0.0716694215" id="Fill-12"></path>
            </g>
            <polyline id="Fill-10" fill="#FFFFFF" points="181 17.4545213 166.112155 17.4545213 151.610196 35.5645157 151.610196 0 140 0 140 64 151.610196 64 151.610196 54.1559683 154.91987 50.0231196 166.112155 64 181 64 162.363396 40.727128 181 17.4545213"></polyline>
            <path d="M92.9998689,51.4996723 C86.6588019,51.4996723 81.4995412,46.3411981 81.4995412,39.9998689 C81.4995412,33.6588019 86.6588019,28.5000655 92.9998689,28.5000655 C99.3414602,28.5000655 104.499934,33.6588019 104.499934,39.9998689 C104.499934,46.3411981 99.3414602,51.4996723 92.9998689,51.4996723 Z M104.499934,20.0842837 C101.116529,18.126491 97.1901953,17 92.9998689,17 C80.2970245,17 70,27.2975488 70,39.9998689 C70,52.702189 80.2970245,63 92.9998689,63 C97.1901953,63 101.116529,61.8740333 104.499934,59.9159785 L104.499934,63 L116,63 L116,17 L104.499934,17 L104.499934,20.0842837 Z" id="Fill-12" fill="#FFFFFF"></path>
            <polygon id="Fill-11" fill="#FFFFFF" points="122 64 134 64 134 0 122 0"></polygon>
        </g>
    </g>
</svg>